<svg width="12" height="16" viewBox="0 0 12 16" fill="none" xmlns="http://www.w3.org/2000/svg">
<path d="M5.568 0C4.09176 0.00158821 2.67644 0.588725 1.63258 1.63258C0.588725 2.67644 0.00158821 4.09176 0 5.568C0.0332422 6.30412 0.192901 7.02903 0.471996 7.711C0.655971 8.12673 0.871258 8.52788 1.116 8.911L4.933 14.7C4.9959 14.8131 5.08789 14.9074 5.19945 14.973C5.31101 15.0386 5.43807 15.0732 5.5675 15.0732C5.69692 15.0732 5.82399 15.0386 5.93555 14.973C6.04711 14.9074 6.1391 14.8131 6.202 14.7L10.02 8.915C10.2649 8.53195 10.4801 8.13079 10.664 7.715C10.9431 7.03304 11.1028 6.30812 11.136 5.572C11.1355 4.09507 10.5488 2.67872 9.50483 1.634C8.46085 0.589276 7.04493 0.00158971 5.568 0ZM10.06 7.457C9.89244 7.83799 9.69621 8.20571 9.473 8.557L5.655 14.341C5.58 14.455 5.555 14.455 5.48 14.341L1.663 8.554C1.4398 8.2027 1.24357 7.83498 1.076 7.454C0.831418 6.85218 0.689128 6.21372 0.654999 5.565C0.673415 4.27426 1.19908 3.04263 2.11835 2.13638C3.03762 1.23013 4.27663 0.722091 5.5675 0.722091C6.85837 0.722091 8.09737 1.23013 9.01664 2.13638C9.93591 3.04263 10.4616 4.27426 10.48 5.565C10.4461 6.21473 10.3038 6.85421 10.059 7.457H10.06Z" fill="white"/>
</svg>
