<svg width="11" height="6" viewBox="0 0 11 6" fill="none" xmlns="http://www.w3.org/2000/svg">
<path opacity="0.5" d="M4.82902 4.95097L0.0840153 0.459969C0.0576823 0.435713 0.036664 0.406261 0.0222874 0.373472C0.00791086 0.340683 0.000488281 0.305271 0.000488281 0.269469C0.000488281 0.233667 0.00791086 0.198254 0.0222874 0.165465C0.036664 0.132677 0.0576823 0.103225 0.0840153 0.078969C0.139018 0.0297737 0.210222 0.0025754 0.284015 0.0025754C0.357809 0.0025754 0.429013 0.0297737 0.484015 0.078969L5.02902 4.37897L9.57201 0.078969C9.62702 0.0297737 9.69822 0.0025754 9.77202 0.0025754C9.84581 0.0025754 9.91701 0.0297737 9.97202 0.078969C9.99814 0.103312 10.0191 0.132701 10.0335 0.165359C10.0479 0.198017 10.0556 0.233264 10.056 0.268969C10.0561 0.30475 10.0486 0.340146 10.0342 0.372872C10.0197 0.405599 9.99852 0.434928 9.97202 0.458969L5.22902 4.94897C5.17426 4.99844 5.10319 5.02599 5.0294 5.02636C4.9556 5.02673 4.88426 4.99989 4.82902 4.95097Z" fill="#111111"/>
</svg>
