<svg width="22" height="17" viewBox="0 0 22 17" fill="none" xmlns="http://www.w3.org/2000/svg">
<path d="M7.06205 1.22593C7.1324 1.15217 7.21674 1.09317 7.31014 1.05238C7.40355 1.01159 7.50415 0.989826 7.60607 0.988361C7.70798 0.986895 7.80917 1.00576 7.90371 1.04384C7.99825 1.08193 8.08425 1.13848 8.15669 1.21019C8.22912 1.28189 8.28654 1.36732 8.32559 1.46147C8.36463 1.55562 8.38452 1.6566 8.38409 1.75853C8.38365 1.86045 8.36291 1.96127 8.32307 2.05509C8.28323 2.1489 8.22509 2.23384 8.15205 2.30493L2.62605 7.83293H20.8591C20.9595 7.83239 21.059 7.8518 21.1519 7.89002C21.2448 7.92824 21.3291 7.98451 21.4001 8.05557C21.4711 8.12664 21.5272 8.21108 21.5653 8.304C21.6034 8.39693 21.6227 8.49649 21.6221 8.59693C21.6228 8.69787 21.6037 8.79797 21.5658 8.89152C21.5279 8.98506 21.4719 9.07021 21.401 9.1421C21.3301 9.21399 21.2458 9.2712 21.1528 9.31046C21.0598 9.34972 20.96 9.37027 20.8591 9.37093H2.62605L8.15205 14.8859C8.2939 15.0319 8.37325 15.2274 8.37325 15.4309C8.37325 15.6345 8.2939 15.83 8.15205 15.9759C8.08101 16.0484 7.99621 16.106 7.90263 16.1454C7.80905 16.1847 7.70856 16.2049 7.60705 16.2049C7.50554 16.2049 7.40505 16.1847 7.31147 16.1454C7.21789 16.106 7.13309 16.0484 7.06205 15.9759L0.229051 9.14193C0.156744 9.07191 0.09925 8.98806 0.0599858 8.89539C0.0207216 8.80271 0.000488281 8.70308 0.000488281 8.60243C0.000488281 8.50177 0.0207216 8.40215 0.0599858 8.30947C0.09925 8.21679 0.156744 8.13295 0.229051 8.06293L7.06205 1.22593Z" fill="#111111"/>
</svg>
