<svg width="22" height="17" viewBox="0 0 22 17" fill="none" xmlns="http://www.w3.org/2000/svg">
<path d="M7.06205 1.22605C7.1324 1.15229 7.21674 1.09329 7.31014 1.0525C7.40355 1.01171 7.50415 0.989948 7.60607 0.988483C7.70798 0.987017 7.80917 1.00588 7.90371 1.04397C7.99825 1.08205 8.08425 1.1386 8.15669 1.21031C8.22912 1.28201 8.28654 1.36744 8.32559 1.46159C8.36463 1.55574 8.38452 1.65673 8.38409 1.75865C8.38365 1.86058 8.36291 1.96139 8.32307 2.05521C8.28323 2.14902 8.22509 2.23396 8.15205 2.30505L2.62605 7.83305H20.8591C20.9595 7.83252 21.059 7.85192 21.1519 7.89014C21.2448 7.92836 21.3291 7.98463 21.4001 8.05569C21.4711 8.12676 21.5272 8.2112 21.5653 8.30413C21.6034 8.39705 21.6227 8.49662 21.6221 8.59705C21.6228 8.69799 21.6037 8.79809 21.5658 8.89164C21.5279 8.98518 21.4719 9.07034 21.401 9.14222C21.3301 9.21411 21.2458 9.27132 21.1528 9.31058C21.0598 9.34985 20.96 9.37039 20.8591 9.37105H2.62605L8.15205 14.886C8.2939 15.032 8.37325 15.2275 8.37325 15.431C8.37325 15.6346 8.2939 15.8301 8.15205 15.976C8.08101 16.0486 7.99621 16.1062 7.90263 16.1455C7.80905 16.1848 7.70856 16.2051 7.60705 16.2051C7.50554 16.2051 7.40505 16.1848 7.31147 16.1455C7.21789 16.1062 7.13309 16.0486 7.06205 15.976L0.229051 9.14205C0.156744 9.07203 0.09925 8.98819 0.0599858 8.89551C0.0207216 8.80283 0.000488281 8.7032 0.000488281 8.60255C0.000488281 8.50189 0.0207216 8.40227 0.0599858 8.30959C0.09925 8.21691 0.156744 8.13307 0.229051 8.06305L7.06205 1.22605Z" fill="white"/>
</svg>
