<svg width="15" height="16" viewBox="0 0 15 16" fill="none" xmlns="http://www.w3.org/2000/svg">
<path d="M14.1799 13.067C13.8111 13.0652 13.4578 12.9178 13.197 12.657C12.9361 12.3961 12.7888 12.0429 12.7869 11.674V6.96701C12.7856 5.85517 12.4222 4.774 11.7518 3.88705C11.0813 3.00009 10.1403 2.35558 9.07094 2.05101V1.39301C9.07094 1.02343 8.92412 0.66899 8.66279 0.407658C8.40146 0.146326 8.04702 -0.000488281 7.67744 -0.000488281C7.30786 -0.000488281 6.95342 0.146326 6.69209 0.407658C6.43075 0.66899 6.28394 1.02343 6.28394 1.39301V2.05101C5.21462 2.35558 4.27357 3.00009 3.60312 3.88705C2.93267 4.774 2.56929 5.85517 2.56794 6.96701V11.674C2.5661 12.0429 2.41875 12.3961 2.15791 12.657C1.89707 12.9178 1.54382 13.0652 1.17494 13.067H0.710938V14H6.28394V14.464C6.28394 14.8336 6.43075 15.188 6.69209 15.4494C6.95342 15.7107 7.30786 15.8575 7.67744 15.8575C8.04702 15.8575 8.40146 15.7107 8.66279 15.4494C8.92412 15.188 9.07094 14.8336 9.07094 14.464V14H14.6439V13.071L14.1799 13.067ZM7.21094 1.39301C7.21094 1.26982 7.25987 1.15167 7.34698 1.06456C7.4341 0.97745 7.55224 0.928512 7.67544 0.928512C7.79863 0.928512 7.91678 0.97745 8.00389 1.06456C8.091 1.15167 8.13994 1.26982 8.13994 1.39301V1.87901C7.98694 1.86501 7.83194 1.85801 7.67594 1.85801C7.51994 1.85801 7.36494 1.86501 7.21194 1.87901L7.21094 1.39301ZM7.67494 2.78601C8.78314 2.78733 9.84557 3.22815 10.6292 4.01177C11.4128 4.79538 11.8536 5.85781 11.8549 6.96601V11.208H3.49494V6.96701C3.49626 5.85829 3.93749 4.79541 4.72176 4.01171C5.50602 3.22801 6.56922 2.78754 7.67794 2.78701L7.67494 2.78601ZM3.45094 12.138H11.9049C11.9738 12.475 12.1169 12.7923 12.3239 13.067H3.03194C3.23893 12.7923 3.38208 12.475 3.45094 12.138ZM8.14194 14.46C8.14194 14.5832 8.093 14.7014 8.00589 14.7885C7.91878 14.8756 7.80063 14.9245 7.67744 14.9245C7.55424 14.9245 7.4361 14.8756 7.34899 14.7885C7.26188 14.7014 7.21294 14.5832 7.21294 14.46V14H8.14194V14.46Z" fill="white"/>
</svg>
