<svg width="14" height="16" viewBox="0 0 14 16" fill="none" xmlns="http://www.w3.org/2000/svg">
<path d="M13.469 13.067C13.1001 13.0652 12.7469 12.9178 12.486 12.657C12.2252 12.3961 12.0778 12.0429 12.076 11.674V6.96701C12.0746 5.85517 11.7113 4.774 11.0408 3.88705C10.3704 3.00009 9.42932 2.35558 8.36 2.05101V1.39301C8.36 1.02343 8.21319 0.66899 7.95185 0.407658C7.69052 0.146326 7.33608 -0.000488281 6.9665 -0.000488281C6.59692 -0.000488281 6.24248 0.146326 5.98115 0.407658C5.71982 0.66899 5.573 1.02343 5.573 1.39301V2.05101C4.50369 2.35558 3.56264 3.00009 2.89219 3.88705C2.22173 4.774 1.85835 5.85517 1.857 6.96701V11.674C1.85516 12.0429 1.70781 12.3961 1.44697 12.657C1.18613 12.9178 0.83288 13.0652 0.464001 13.067H0V14H5.573V14.464C5.573 14.8336 5.71982 15.188 5.98115 15.4494C6.24248 15.7107 6.59692 15.8575 6.9665 15.8575C7.33608 15.8575 7.69052 15.7107 7.95185 15.4494C8.21319 15.188 8.36 14.8336 8.36 14.464V14H13.933V13.071L13.469 13.067ZM6.5 1.39301C6.5 1.26982 6.54894 1.15167 6.63605 1.06456C6.72316 0.97745 6.84131 0.928512 6.9645 0.928512C7.08769 0.928512 7.20584 0.97745 7.29295 1.06456C7.38006 1.15167 7.429 1.26982 7.429 1.39301V1.87901C7.276 1.86501 7.121 1.85801 6.965 1.85801C6.809 1.85801 6.654 1.86501 6.501 1.87901L6.5 1.39301ZM6.964 2.78601C8.0722 2.78733 9.13463 3.22815 9.91824 4.01177C10.7019 4.79538 11.1427 5.85781 11.144 6.96601V11.208H2.784V6.96701C2.78532 5.85829 3.22655 4.79541 4.01082 4.01171C4.79508 3.22801 5.85828 2.78754 6.967 2.78701L6.964 2.78601ZM2.74 12.138H11.194C11.2629 12.475 11.406 12.7923 11.613 13.067H2.321C2.528 12.7923 2.67114 12.475 2.74 12.138V12.138ZM7.431 14.46C7.431 14.5832 7.38206 14.7014 7.29495 14.7885C7.20784 14.8756 7.08969 14.9245 6.9665 14.9245C6.84331 14.9245 6.72516 14.8756 6.63805 14.7885C6.55094 14.7014 6.502 14.5832 6.502 14.46V14H7.431V14.46Z" fill="#273773"/>
</svg>
