<svg width="19" height="16" viewBox="0 0 19 16" fill="none" xmlns="http://www.w3.org/2000/svg">
<path d="M14.972 13.3439C14.9099 13.3047 14.8348 13.2917 14.7632 13.3079C14.6916 13.324 14.6293 13.3679 14.59 13.4299C14.2532 13.9643 13.7862 14.4044 13.2327 14.7089C12.6793 15.0134 12.0577 15.1724 11.426 15.1709H4.3C3.30701 15.1704 2.35481 14.7758 1.65247 14.0739C0.95013 13.3719 0.55506 12.4199 0.554 11.4269V4.78892C0.554 4.71546 0.524816 4.645 0.472869 4.59305C0.420921 4.5411 0.350465 4.51192 0.277 4.51192C0.203535 4.51192 0.133079 4.5411 0.0811314 4.59305C0.0291838 4.645 0 4.71546 0 4.78892L0 11.4269C0 12.5674 0.453034 13.6611 1.25944 14.4675C2.06585 15.2739 3.15957 15.7269 4.3 15.7269H11.428C12.1531 15.7283 12.8666 15.5455 13.5017 15.1957C14.1368 14.8459 14.6727 14.3405 15.059 13.7269C15.0983 13.665 15.1114 13.59 15.0955 13.5183C15.0796 13.4467 15.0359 13.3844 14.974 13.3449L14.972 13.3439ZM12.537 5.98292L10.425 8.09492C10.373 8.1469 10.3438 8.21741 10.3438 8.29092C10.3438 8.36443 10.373 8.43494 10.425 8.48692C10.477 8.5389 10.5475 8.56811 10.621 8.56811C10.6945 8.56811 10.765 8.5389 10.817 8.48692L12.929 6.37492C12.981 6.32294 13.0102 6.25244 13.0102 6.17892C13.0102 6.10541 12.981 6.0349 12.929 5.98292C12.877 5.93094 12.8065 5.90174 12.733 5.90174C12.6595 5.90174 12.589 5.93094 12.537 5.98292ZM18.509 1.36792L17.543 0.401921C17.2858 0.145324 16.9373 0.0012207 16.574 0.0012207C16.2107 0.0012207 15.8622 0.145324 15.605 0.401921L14.605 1.40192C14.2027 0.958933 13.7119 0.6054 13.1642 0.364226C12.6166 0.123052 12.0244 -0.000381825 11.426 0.00192106H4.3C3.31808 0.00251626 2.36595 0.339155 1.60187 0.955875C0.837792 1.57259 0.307801 2.43225 0.1 3.39192C0.0923646 3.42751 0.0918185 3.46426 0.0983926 3.50006C0.104967 3.53586 0.118533 3.57001 0.138314 3.60057C0.158096 3.63112 0.183705 3.65748 0.213679 3.67813C0.243653 3.69878 0.277403 3.71332 0.313 3.72092C0.332083 3.72486 0.351514 3.72687 0.371 3.72692C0.434244 3.72672 0.495516 3.70489 0.544634 3.66505C0.593752 3.62521 0.627758 3.56976 0.641 3.50792C0.82208 2.67191 1.28383 1.92306 1.94948 1.38584C2.61514 0.848621 3.44461 0.555401 4.3 0.554921H11.428C11.9536 0.554415 12.4734 0.665283 12.9531 0.880221C13.4328 1.09516 13.8615 1.40929 14.211 1.80192L11.265 4.74292H3.541C3.46754 4.74292 3.39708 4.77211 3.34513 4.82405C3.29318 4.876 3.264 4.94646 3.264 5.01992C3.264 5.09339 3.29318 5.16384 3.34513 5.21579C3.39708 5.26774 3.46754 5.29692 3.541 5.29692H10.711L9.383 6.62492H3.541C3.46754 6.62492 3.39708 6.65411 3.34513 6.70605C3.29318 6.758 3.264 6.82846 3.264 6.90192C3.264 6.97539 3.29318 7.04584 3.34513 7.09779C3.39708 7.14974 3.46754 7.17892 3.541 7.17892H8.829L7.111 8.90192C6.61458 9.39643 6.20516 9.97117 5.9 10.6019L5.112 12.2419C5.02679 12.4197 4.98786 12.6162 4.99883 12.8131C5.00979 13.0099 5.07029 13.2008 5.17471 13.3681C5.27913 13.5354 5.4241 13.6735 5.59617 13.7698C5.76823 13.8661 5.96183 13.9174 6.159 13.9189C6.33596 13.9188 6.51063 13.8788 6.67 13.8019L7.465 13.4199L8.308 13.0139C8.94092 12.709 9.51771 12.2992 10.014 11.8019L15.17 6.64592V11.4269C15.1704 11.7302 15.1342 12.0324 15.062 12.3269C15.0528 12.3624 15.0508 12.3994 15.056 12.4357C15.0612 12.472 15.0736 12.5069 15.0924 12.5384C15.1112 12.5698 15.1361 12.5973 15.1655 12.6191C15.195 12.6408 15.2286 12.6566 15.2642 12.6653C15.2998 12.674 15.3368 12.6756 15.373 12.67C15.4092 12.6643 15.444 12.6515 15.4752 12.6323C15.5064 12.6131 15.5336 12.5879 15.555 12.5581C15.5764 12.5284 15.5917 12.4946 15.6 12.4589C15.6826 12.1222 15.7242 11.7767 15.724 11.4299V6.09192L16.494 5.32192L18.509 3.30192C18.7656 3.04472 18.9097 2.69623 18.9097 2.33292C18.9097 1.96961 18.7656 1.62113 18.509 1.36392V1.36792ZM6.43 13.3019C6.31538 13.3575 6.18631 13.376 6.0607 13.3548C5.9351 13.3336 5.81922 13.2738 5.72915 13.1838C5.63908 13.0937 5.57931 12.9778 5.55814 12.8522C5.53696 12.7266 5.55544 12.5975 5.611 12.4829L5.845 11.9969C6.24044 12.3133 6.59963 12.6725 6.916 13.0679L6.43 13.3019ZM8.068 12.5139L7.427 12.8219C7.04043 12.3215 6.59146 11.8725 6.091 11.4859L6.399 10.8449C6.61181 10.4045 6.88071 9.99338 7.199 9.62192L9.294 11.7169C8.9225 12.0352 8.51143 12.3041 8.071 12.5169L8.068 12.5139ZM9.7 11.3359L7.58 9.21592L13.786 3.00192L15.906 5.12192L9.7 11.3359ZM16.3 4.73592L14.18 2.61592L14.864 1.93192L16.984 4.05192L16.3 4.73592ZM18.119 2.91692L17.375 3.66092L15.255 1.54092L16 0.794921C16.1533 0.642074 16.361 0.556246 16.5775 0.556246C16.794 0.556246 17.0017 0.642074 17.155 0.794921L18.12 1.75992C18.2728 1.91325 18.3587 2.12092 18.3587 2.33742C18.3587 2.55392 18.2728 2.76159 18.12 2.91492L18.119 2.91692ZM3.543 3.41692H12.185C12.2585 3.41692 12.3289 3.38774 12.3809 3.33579C12.4328 3.28384 12.462 3.21339 12.462 3.13992C12.462 3.06646 12.4328 2.996 12.3809 2.94405C12.3289 2.89211 12.2585 2.86292 12.185 2.86292H3.541C3.46754 2.86292 3.39708 2.89211 3.34513 2.94405C3.29318 2.996 3.264 3.06646 3.264 3.13992C3.264 3.21339 3.29318 3.28384 3.34513 3.33579C3.39708 3.38774 3.46754 3.41692 3.541 3.41692H3.543Z" fill="white"/>
</svg>
