<svg width="23" height="18" viewBox="0 0 23 18" fill="none" xmlns="http://www.w3.org/2000/svg">
<path d="M21.4001 2.71408C21.175 2.47838 20.9039 2.29144 20.6035 2.16483C20.3032 2.03823 19.98 1.97466 19.6541 1.97808H16.1601V1.93608C16.1625 1.68155 16.1134 1.42916 16.0158 1.19408C15.9182 0.958996 15.7741 0.746067 15.5921 0.568075C15.4129 0.387754 15.1997 0.24472 14.9649 0.14723C14.7302 0.0497404 14.4784 -0.000275441 14.2241 7.4528e-05H7.91213C7.65628 -0.00216811 7.4025 0.0462226 7.16543 0.142462C6.92835 0.238701 6.71266 0.38089 6.53076 0.560835C6.34886 0.74078 6.20436 0.954931 6.10557 1.19095C6.00677 1.42698 5.95565 1.68021 5.95513 1.93608V1.97808H2.48313C2.15721 1.97466 1.83407 2.03823 1.53373 2.16483C1.23339 2.29144 0.962254 2.47838 0.737131 2.71408C0.271595 3.17704 0.00686729 3.80456 0.00013055 4.46108V14.9391C-0.00328309 15.265 0.0602823 15.5881 0.186886 15.8885C0.31349 16.1888 0.500435 16.46 0.736131 16.6851C1.19901 17.15 1.8261 17.4143 2.48213 17.4211H19.6521C19.978 17.4245 20.3012 17.3609 20.6015 17.2343C20.9019 17.1077 21.173 16.9208 21.3981 16.6851C21.8631 16.2222 22.1274 15.5951 22.1341 14.9391V4.46108C22.1379 4.13514 22.0748 3.81189 21.9485 3.51138C21.8222 3.21086 21.6356 2.93949 21.4001 2.71408ZM21.0421 14.9391H21.0201C21.0205 15.1188 20.9854 15.2969 20.9168 15.4631C20.8482 15.6292 20.7474 15.7802 20.6203 15.9073C20.4932 16.0344 20.3423 16.1351 20.1761 16.2037C20.01 16.2724 19.8319 16.3075 19.6521 16.3071H2.48313C2.30337 16.3075 2.1253 16.2724 1.95915 16.2037C1.793 16.1351 1.64204 16.0344 1.51493 15.9073C1.38782 15.7802 1.28707 15.6292 1.21846 15.4631C1.14985 15.2969 1.11474 15.1188 1.11513 14.9391V4.46108C1.11474 4.28132 1.14985 4.10325 1.21846 3.9371C1.28707 3.77095 1.38782 3.61998 1.51493 3.49287C1.64204 3.36576 1.793 3.26501 1.95915 3.1964C2.1253 3.12779 2.30337 3.09268 2.48313 3.09308H6.54413C6.6188 3.09334 6.69277 3.07883 6.76181 3.05038C6.83084 3.02193 6.89356 2.9801 6.94636 2.9273C6.99915 2.87451 7.04098 2.81178 7.06943 2.74275C7.09788 2.67372 7.11239 2.59974 7.11213 2.52508V1.91508C7.10806 1.80617 7.12652 1.69759 7.16634 1.59614C7.20616 1.4947 7.26649 1.40256 7.34355 1.32549C7.42061 1.24843 7.51275 1.1881 7.6142 1.14828C7.71565 1.10846 7.82422 1.09001 7.93313 1.09408H14.2241C14.333 1.09001 14.4416 1.10846 14.5431 1.14828C14.6445 1.1881 14.7366 1.24843 14.8137 1.32549C14.8908 1.40256 14.9511 1.4947 14.9909 1.59614C15.0307 1.69759 15.0492 1.80617 15.0451 1.91508V2.52508C15.0449 2.59974 15.0594 2.67372 15.0878 2.74275C15.1163 2.81178 15.1581 2.87451 15.2109 2.9273C15.2637 2.9801 15.3264 3.02193 15.3955 3.05038C15.4645 3.07883 15.5385 3.09334 15.6131 3.09308H19.6741C19.8539 3.09268 20.032 3.12779 20.1981 3.1964C20.3643 3.26501 20.5152 3.36576 20.6423 3.49287C20.7694 3.61998 20.8702 3.77095 20.9388 3.9371C21.0074 4.10325 21.0425 4.28132 21.0421 4.46108V14.9391Z" fill="white"/>
<path d="M11.0682 4.52417C9.87183 4.52502 8.71272 4.94062 7.78836 5.70018C6.864 6.45974 6.23155 7.51628 5.99876 8.68982C5.76597 9.86335 5.94723 11.0813 6.51166 12.1362C7.0761 13.1911 7.98879 14.0177 9.09427 14.4751C10.1998 14.9326 11.4297 14.9927 12.5745 14.6451C13.7193 14.2975 14.7082 13.5638 15.3727 12.569C16.0372 11.5741 16.3363 10.3796 16.219 9.18895C16.1016 7.99831 15.5752 6.88519 14.7292 6.03917C13.7576 5.06944 12.441 4.52462 11.0682 4.52417ZM13.9302 12.5832C13.1691 13.3379 12.1406 13.7614 11.0687 13.7614C9.99684 13.7614 8.96836 13.3379 8.20723 12.5832C7.83178 12.208 7.5343 11.7622 7.33195 11.2715C7.1296 10.7808 7.02638 10.2549 7.02823 9.72417C7.03319 8.65316 7.45582 7.62635 8.20623 6.86217C8.58185 6.48654 9.02815 6.18905 9.51938 5.98686C10.0106 5.78467 10.537 5.6818 11.0682 5.68417C12.1392 5.68914 13.166 6.11176 13.9302 6.86217C14.3058 7.23782 14.6033 7.68413 14.8055 8.17535C15.0076 8.66657 15.1105 9.19297 15.1082 9.72417C15.115 10.2556 15.0141 10.7828 14.8117 11.2742C14.6092 11.7655 14.3094 12.2108 13.9302 12.5832Z" fill="white"/>
<path d="M18.5583 6.56517C19.1277 6.56517 19.5893 6.10358 19.5893 5.53417C19.5893 4.96477 19.1277 4.50317 18.5583 4.50317C17.9889 4.50317 17.5273 4.96477 17.5273 5.53417C17.5273 6.10358 17.9889 6.56517 18.5583 6.56517Z" fill="white"/>
</svg>
