<svg width="17" height="17" viewBox="0 0 17 17" fill="none" xmlns="http://www.w3.org/2000/svg">
<path d="M9.19115 8.99906L15.7532 2.43706C15.834 2.35947 15.8986 2.26652 15.9431 2.16365C15.9876 2.06078 16.0111 1.95007 16.0122 1.838C16.0134 1.72593 15.9921 1.61476 15.9497 1.51101C15.9074 1.40726 15.8447 1.31301 15.7654 1.23379C15.6861 1.15458 15.5918 1.09199 15.488 1.04969C15.3842 1.00739 15.2731 0.986243 15.161 0.987478C15.0489 0.988713 14.9382 1.01231 14.8354 1.05688C14.7326 1.10146 14.6397 1.16611 14.5622 1.24706L8.00015 7.80906L1.43815 1.24706C1.28022 1.08912 1.06601 1.00039 0.842652 1.00039C0.619297 1.00039 0.405089 1.08912 0.247152 1.24706C0.089216 1.40499 0.000488281 1.6192 0.000488281 1.84256C0.000488281 2.06591 0.089216 2.28012 0.247152 2.43806L6.80915 8.99906L0.247152 15.5621C0.16895 15.6403 0.106917 15.7331 0.0645942 15.8353C0.0222715 15.9375 0.000488281 16.047 0.000488281 16.1576C0.000488281 16.2682 0.0222715 16.3777 0.0645942 16.4798C0.106917 16.582 0.16895 16.6749 0.247152 16.7531C0.325355 16.8313 0.418194 16.8933 0.52037 16.9356C0.622546 16.9779 0.732058 16.9997 0.842652 16.9997C0.953247 16.9997 1.06276 16.9779 1.16493 16.9356C1.26711 16.8933 1.35995 16.8313 1.43815 16.7531L8.00015 10.1911L14.5622 16.7531C14.6404 16.8313 14.7332 16.8933 14.8354 16.9356C14.9375 16.9779 15.0471 16.9997 15.1577 16.9997C15.2682 16.9997 15.3778 16.9779 15.4799 16.9356C15.5821 16.8933 15.675 16.8313 15.7532 16.7531C15.8314 16.6749 15.8934 16.582 15.9357 16.4798C15.978 16.3777 15.9998 16.2682 15.9998 16.1576C15.9998 16.047 15.978 15.9375 15.9357 15.8353C15.8934 15.7331 15.8314 15.6403 15.7532 15.5621L9.19115 8.99906Z" fill="#273773"/>
</svg>
