<svg width="20" height="20" viewBox="0 0 20 20" fill="none" xmlns="http://www.w3.org/2000/svg">
<path opacity="0.2" d="M10 20C15.5228 20 20 15.5228 20 10C20 4.47715 15.5228 0 10 0C4.47715 0 0 4.47715 0 10C0 15.5228 4.47715 20 10 20Z" fill="#FF0909"/>
<path d="M13.233 6.13301H11.679V5.84901C11.6788 5.73721 11.6567 5.62654 11.6137 5.52334C11.5707 5.42013 11.5078 5.32641 11.4286 5.24755C11.3494 5.16869 11.2554 5.10623 11.152 5.06375C11.0485 5.02127 10.9378 4.99961 10.826 5.00001H9.69398C9.46889 5.00027 9.2531 5.0898 9.09394 5.24896C8.93478 5.40812 8.84524 5.62392 8.84498 5.84901V6.13201H7.28698C7.09929 6.13227 6.91936 6.20695 6.78664 6.33967C6.65392 6.47238 6.57924 6.65231 6.57898 6.84001V7.83101C6.57898 7.90606 6.6088 7.97804 6.66187 8.03112C6.71494 8.08419 6.78692 8.11401 6.86198 8.11401H7.01698L7.26198 13.251C7.27202 13.4691 7.36578 13.6749 7.52373 13.8256C7.68169 13.9763 7.89167 14.0602 8.10998 14.06H12.41C12.6283 14.0602 12.8383 13.9763 12.9962 13.8256C13.1542 13.6749 13.2479 13.4691 13.258 13.251L13.503 8.11401H13.658C13.733 8.11401 13.805 8.08419 13.8581 8.03112C13.9112 7.97804 13.941 7.90606 13.941 7.83101V6.84001C13.9405 6.65249 13.8657 6.47281 13.733 6.34031C13.6003 6.20781 13.4205 6.13327 13.233 6.13301ZM9.41098 5.84901C9.41098 5.77395 9.4408 5.70197 9.49387 5.64889C9.54694 5.59582 9.61892 5.56601 9.69398 5.56601H10.827C10.902 5.56601 10.974 5.59582 11.0271 5.64889C11.0802 5.70197 11.11 5.77395 11.11 5.84901V6.13201H9.40998L9.41098 5.84901ZM7.14598 6.84001C7.14598 6.80234 7.16094 6.76623 7.18757 6.7396C7.2142 6.71297 7.25032 6.69801 7.28798 6.69801H13.234C13.2716 6.69801 13.3078 6.71297 13.3344 6.7396C13.361 6.76623 13.376 6.80234 13.376 6.84001V7.54801H7.14498L7.14598 6.84001ZM12.693 13.224C12.6896 13.2968 12.6583 13.3655 12.6056 13.4158C12.5529 13.4661 12.4828 13.4941 12.41 13.494H8.10998C8.03712 13.4941 7.96704 13.4661 7.91433 13.4158C7.86162 13.3655 7.83033 13.2968 7.82698 13.224L7.57898 8.11501H12.931L12.693 13.224Z" fill="#FF0000"/>
<path d="M10.2599 12.9279C10.335 12.9279 10.407 12.8981 10.46 12.845C10.5131 12.7919 10.5429 12.72 10.5429 12.6449V8.96391C10.5429 8.88886 10.5131 8.81687 10.46 8.76379C10.407 8.71072 10.335 8.68091 10.2599 8.68091C10.1849 8.68091 10.1129 8.71072 10.0598 8.76379C10.0067 8.81687 9.97693 8.88886 9.97693 8.96391V12.6449C9.97693 12.72 10.0067 12.7919 10.0598 12.845C10.1129 12.8981 10.1849 12.9279 10.2599 12.9279Z" fill="#FF0000"/>
<path d="M11.6759 12.9279C11.751 12.9279 11.823 12.8981 11.8761 12.845C11.9291 12.7919 11.959 12.72 11.959 12.6449V8.96391C11.959 8.92675 11.9516 8.88994 11.9374 8.85561C11.9232 8.82127 11.9023 8.79007 11.8761 8.76379C11.8498 8.73751 11.8186 8.71668 11.7842 8.70245C11.7499 8.68823 11.7131 8.68091 11.6759 8.68091C11.6388 8.68091 11.602 8.68823 11.5677 8.70245C11.5333 8.71668 11.5021 8.73751 11.4758 8.76379C11.4496 8.79007 11.4287 8.82127 11.4145 8.85561C11.4003 8.88994 11.3929 8.92675 11.3929 8.96391V12.6449C11.3929 12.72 11.4228 12.7919 11.4758 12.845C11.5289 12.8981 11.6009 12.9279 11.6759 12.9279Z" fill="#FF0000"/>
<path d="M8.84404 12.9279C8.9191 12.9279 8.99107 12.8981 9.04414 12.845C9.09722 12.7919 9.12703 12.72 9.12703 12.6449V8.96391C9.12703 8.88886 9.09722 8.81687 9.04414 8.76379C8.99107 8.71072 8.9191 8.68091 8.84404 8.68091C8.76898 8.68091 8.69699 8.71072 8.64392 8.76379C8.59085 8.81687 8.56104 8.88886 8.56104 8.96391V12.6449C8.56104 12.6821 8.56836 12.7189 8.58258 12.7532C8.5968 12.7875 8.61764 12.8187 8.64392 12.845C8.6702 12.8713 8.7014 12.8921 8.73573 12.9064C8.77007 12.9206 8.80688 12.9279 8.84404 12.9279Z" fill="#FF0000"/>
</svg>
