<svg width="36" height="28" viewBox="0 0 36 28" fill="none" xmlns="http://www.w3.org/2000/svg">
<path d="M35.657 10.172C35.6668 8.57265 35.232 7.002 34.4012 5.63531C33.5705 4.26861 32.3763 3.15961 30.952 2.43201C29.5152 1.61594 27.9503 1.04989 26.324 0.758015L26.197 0.739014L0.681974 9.65102H0.672974V19.472L1.31997 19.306C1.61141 19.2312 1.91611 19.224 2.21075 19.285C2.5054 19.346 2.78218 19.4736 3.01994 19.658C3.25769 19.8424 3.45012 20.0788 3.5825 20.349C3.71487 20.6192 3.7837 20.9161 3.7837 21.217C3.7837 21.5179 3.71487 21.8148 3.5825 22.085C3.45012 22.3552 3.25769 22.5916 3.01994 22.776C2.78218 22.9604 2.5054 23.088 2.21075 23.149C1.91611 23.21 1.61141 23.2029 1.31997 23.128L0.672974 22.963V27.282H35.657V10.238C35.6582 10.216 35.6582 10.194 35.657 10.172ZM26.292 1.80402C27.7456 2.08801 29.1444 2.60321 30.435 3.33002C31.6245 3.92476 32.6364 4.82243 33.3686 5.93264C34.1008 7.04285 34.5276 8.32639 34.606 9.65401H3.81797L26.292 1.80402ZM34.621 26.247H1.70897V24.226H1.80897C2.60701 24.226 3.37236 23.909 3.93666 23.3447C4.50095 22.7804 4.81797 22.0151 4.81797 21.217C4.81797 20.419 4.50095 19.6536 3.93666 19.0893C3.37236 18.525 2.60701 18.208 1.80897 18.208H1.70897V10.69H34.621V26.247Z" fill="#EFC90C"/>
<path d="M21.888 12.45C21.4042 12.45 20.9313 12.5934 20.5291 12.8622C20.1268 13.131 19.8133 13.513 19.6282 13.9599C19.4431 14.4069 19.3946 14.8987 19.489 15.3732C19.5834 15.8476 19.8163 16.2835 20.1584 16.6255C20.5005 16.9676 20.9364 17.2006 21.4108 17.295C21.8853 17.3893 22.3771 17.3409 22.824 17.1558C23.271 16.9706 23.653 16.6571 23.9218 16.2549C24.1906 15.8526 24.334 15.3797 24.334 14.896C24.3332 14.2475 24.0752 13.6258 23.6167 13.1673C23.1582 12.7087 22.5365 12.4507 21.888 12.45ZM21.888 16.307C21.6091 16.307 21.3365 16.2243 21.1046 16.0693C20.8728 15.9144 20.6921 15.6942 20.5853 15.4365C20.4786 15.1789 20.4507 14.8954 20.5051 14.6219C20.5595 14.3484 20.6938 14.0971 20.891 13.8999C21.0882 13.7027 21.3394 13.5685 21.6129 13.5141C21.8864 13.4596 22.1699 13.4876 22.4276 13.5943C22.6852 13.701 22.9054 13.8817 23.0604 14.1136C23.2153 14.3455 23.298 14.6181 23.298 14.897C23.2975 15.2708 23.1487 15.6291 22.8844 15.8934C22.6201 16.1577 22.2618 16.3064 21.888 16.307Z" fill="#EFC90C"/>
<path d="M28.162 18.1631C27.4895 18.1631 26.8322 18.3625 26.273 18.7361C25.7139 19.1097 25.2781 19.6407 25.0208 20.262C24.7634 20.8832 24.6961 21.5669 24.8273 22.2264C24.9585 22.8859 25.2823 23.4918 25.7578 23.9673C26.2333 24.4428 26.8391 24.7666 27.4987 24.8978C28.1582 25.029 28.8418 24.9616 29.4631 24.7043C30.0844 24.4469 30.6154 24.0112 30.989 23.452C31.3626 22.8929 31.562 22.2355 31.562 21.5631C31.5604 20.6618 31.2017 19.798 30.5644 19.1607C29.9271 18.5234 29.0632 18.1647 28.162 18.1631ZM28.162 23.9301C27.694 23.9301 27.2366 23.7913 26.8475 23.5313C26.4584 23.2714 26.1551 22.9018 25.9761 22.4695C25.797 22.0372 25.7501 21.5615 25.8414 21.1025C25.9327 20.6435 26.1581 20.222 26.4889 19.8911C26.8198 19.5602 27.2414 19.3349 27.7004 19.2436C28.1594 19.1523 28.6351 19.1991 29.0674 19.3782C29.4997 19.5573 29.8693 19.8605 30.1292 20.2496C30.3892 20.6387 30.528 21.0961 30.528 21.5641C30.5274 22.1914 30.278 22.7929 29.8344 23.2365C29.3908 23.6801 28.7893 23.9296 28.162 23.9301Z" fill="#EFC90C"/>
<path d="M10.746 14.4431C10.121 14.4431 9.51006 14.6284 8.9904 14.9756C8.47074 15.3229 8.06572 15.8164 7.82654 16.3938C7.58737 16.9712 7.52479 17.6066 7.64672 18.2196C7.76865 18.8326 8.06961 19.3956 8.51154 19.8376C8.95347 20.2795 9.51653 20.5805 10.1295 20.7024C10.7425 20.8243 11.3779 20.7617 11.9553 20.5226C12.5327 20.2834 13.0262 19.8784 13.3734 19.3587C13.7207 18.839 13.906 18.2281 13.906 17.6031C13.9049 16.7653 13.5717 15.9622 12.9793 15.3698C12.3869 14.7774 11.5838 14.4442 10.746 14.4431ZM10.746 19.7271C10.3259 19.7271 9.91526 19.6025 9.56597 19.3691C9.21668 19.1358 8.94444 18.804 8.78368 18.4159C8.62292 18.0278 8.58086 17.6007 8.66282 17.1887C8.74477 16.7767 8.94706 16.3982 9.24411 16.1012C9.54115 15.8041 9.91962 15.6019 10.3316 15.5199C10.7436 15.438 11.1707 15.48 11.5588 15.6408C11.9469 15.8015 12.2787 16.0738 12.512 16.4231C12.7454 16.7724 12.87 17.183 12.87 17.6031C12.8695 18.1662 12.6455 18.7062 12.2473 19.1044C11.8491 19.5026 11.3092 19.7266 10.746 19.7271Z" fill="#EFC90C"/>
<path d="M18.165 21.752C17.8046 21.752 17.4523 21.8588 17.1527 22.059C16.8531 22.2592 16.6196 22.5438 16.4816 22.8767C16.3437 23.2096 16.3077 23.5759 16.378 23.9294C16.4483 24.2828 16.6218 24.6075 16.8766 24.8623C17.1314 25.1171 17.4561 25.2906 17.8095 25.3609C18.1629 25.4312 18.5293 25.3952 18.8622 25.2573C19.1951 25.1194 19.4797 24.8858 19.6799 24.5862C19.8801 24.2866 19.987 23.9343 19.987 23.5739C19.9864 23.0909 19.7943 22.6277 19.4527 22.2862C19.1111 21.9446 18.648 21.7525 18.165 21.752ZM18.165 24.36C18.0095 24.36 17.8575 24.3138 17.7283 24.2275C17.599 24.1411 17.4983 24.0183 17.4388 23.8747C17.3793 23.7311 17.3637 23.5731 17.394 23.4206C17.4244 23.2681 17.4992 23.1281 17.6092 23.0182C17.7191 22.9082 17.8591 22.8334 18.0116 22.803C18.1641 22.7727 18.3221 22.7883 18.4657 22.8478C18.6094 22.9073 18.7321 23.008 18.8185 23.1373C18.9049 23.2665 18.9509 23.4185 18.9509 23.5739C18.9507 23.7823 18.8678 23.9821 18.7204 24.1294C18.5731 24.2768 18.3733 24.3597 18.165 24.36Z" fill="#EFC90C"/>
<path d="M5.30598 11.6841C4.93712 11.6841 4.57654 11.7935 4.26984 11.9984C3.96314 12.2033 3.7241 12.4946 3.58294 12.8354C3.44179 13.1762 3.40485 13.5512 3.47682 13.9129C3.54878 14.2747 3.7264 14.607 3.98723 14.8678C4.24805 15.1287 4.58036 15.3063 4.94214 15.3783C5.30391 15.4502 5.6789 15.4133 6.01969 15.2721C6.36047 15.131 6.65174 14.8919 6.85667 14.5852C7.0616 14.2785 7.17098 13.9179 7.17098 13.5491C7.17045 13.0546 6.97379 12.5806 6.62415 12.2309C6.27451 11.8813 5.80045 11.6846 5.30598 11.6841ZM5.30598 14.3781C5.14202 14.3781 4.98174 14.3295 4.84541 14.2384C4.70909 14.1473 4.60283 14.0178 4.54009 13.8663C4.47734 13.7149 4.46092 13.5482 4.49291 13.3874C4.5249 13.2265 4.60385 13.0788 4.71979 12.9629C4.83573 12.847 4.98344 12.768 5.14425 12.736C5.30506 12.704 5.47174 12.7204 5.62322 12.7832C5.7747 12.8459 5.90418 12.9522 5.99527 13.0885C6.08636 13.2248 6.13498 13.3851 6.13498 13.5491C6.13472 13.7689 6.04729 13.9796 5.89188 14.135C5.73647 14.2904 5.52577 14.3778 5.30598 14.3781Z" fill="#EFC90C"/>
<path d="M31.045 11.0969V12.1379H33.135V15.5509H34.171V11.1009L31.045 11.0969Z" fill="#EFC90C"/>
<path d="M34.172 16.1521H33.136V17.2451H34.172V16.1521Z" fill="#EFC90C"/>
<path d="M10.347 24.7451H4.72998V25.7811H10.347V24.7451Z" fill="#EFC90C"/>
<path d="M22.787 5.20605C21.378 5.20605 20.275 6.01306 20.275 7.04206C20.275 8.07106 21.375 8.87806 22.787 8.87806C24.199 8.87806 25.299 8.07106 25.299 7.04206C25.299 6.01306 24.2 5.20605 22.787 5.20605ZM22.787 7.84306C21.942 7.84306 21.311 7.42105 21.311 7.04305C21.311 6.66505 21.942 6.24305 22.787 6.24305C23.632 6.24305 24.263 6.66505 24.263 7.04305C24.263 7.42105 23.632 7.84005 22.787 7.84005V7.84306Z" fill="#EFC90C"/>
<path d="M15.737 6.30797C15.4963 6.36758 15.2771 6.49366 15.1046 6.67183C14.932 6.85 14.8131 7.07308 14.7612 7.31561C14.7094 7.55815 14.7267 7.81037 14.8114 8.0435C14.896 8.27664 15.0444 8.48131 15.2397 8.63414C15.4351 8.78697 15.6694 8.88182 15.916 8.90787C16.1627 8.93392 16.4117 8.89011 16.6346 8.78145C16.8576 8.67279 17.0455 8.50366 17.1769 8.29334C17.3084 8.08302 17.378 7.83998 17.378 7.59197C17.329 7.20483 17.1291 6.85273 16.8217 6.61226C16.5144 6.37179 16.1246 6.26243 15.737 6.30797ZM15.737 7.83997C15.353 7.83997 15.132 7.65197 15.132 7.59197C15.132 7.53197 15.353 7.34397 15.737 7.34397C16.121 7.34397 16.342 7.53197 16.342 7.59197C16.342 7.65197 16.121 7.84097 15.737 7.84097V7.83997Z" fill="#EFC90C"/>
<path d="M26.407 2.22607C25.483 2.22607 24.7599 2.76807 24.7599 3.46107C24.7599 4.15407 25.484 4.69608 26.407 4.69608C27.33 4.69608 28.054 4.15407 28.054 3.46107C28.054 2.76807 27.334 2.22607 26.407 2.22607ZM26.407 3.65908C26.1884 3.67454 25.9725 3.60261 25.8069 3.45908C25.9821 3.33002 26.1939 3.26041 26.4114 3.26041C26.629 3.26041 26.8408 3.33002 27.016 3.45908C26.9329 3.53126 26.8362 3.58614 26.7316 3.62048C26.627 3.65483 26.5167 3.66795 26.407 3.65908Z" fill="#EFC90C"/>
<path d="M32.279 5.69093C32.0333 5.72917 31.8038 5.83705 31.6176 6.00176C31.4314 6.16647 31.2963 6.38111 31.2284 6.62025C31.1605 6.85938 31.1626 7.11298 31.2344 7.35098C31.3062 7.58897 31.4448 7.80138 31.6336 7.96304C31.8225 8.12469 32.0537 8.22881 32.2999 8.26305C32.5461 8.29729 32.797 8.26022 33.0228 8.15623C33.2486 8.05223 33.4399 7.88568 33.5739 7.67631C33.7079 7.46694 33.7791 7.22352 33.779 6.97492C33.7476 6.60683 33.5727 6.26586 33.292 6.02563C33.0114 5.78539 32.6475 5.66517 32.279 5.69093ZM32.279 7.22292C32 7.22292 31.814 7.07392 31.814 6.97492C31.814 6.87592 31.999 6.72692 32.279 6.72692C32.559 6.72692 32.744 6.87592 32.744 6.97492C32.744 7.07392 32.558 7.22292 32.279 7.22292Z" fill="#EFC90C"/>
<path d="M14.214 24.7451H11.258V25.7811H14.214V24.7451Z" fill="#EFC90C"/>
</svg>
