<svg width="17" height="17" viewBox="0 0 17 17" fill="none" xmlns="http://www.w3.org/2000/svg">
<path d="M13.964 8.50011C13.803 8.50011 13.6486 8.56406 13.5348 8.67789C13.421 8.79173 13.357 8.94612 13.357 9.10711V15.1771C13.357 15.3381 13.293 15.4925 13.1792 15.6063C13.0654 15.7202 12.911 15.7841 12.75 15.7841H1.821C1.66001 15.7841 1.50562 15.7202 1.39179 15.6063C1.27795 15.4925 1.214 15.3381 1.214 15.1771V3.03511C1.214 2.87412 1.27795 2.71973 1.39179 2.6059C1.50562 2.49206 1.66001 2.42811 1.821 2.42811H9.107C9.18671 2.42811 9.26564 2.41241 9.33929 2.3819C9.41293 2.3514 9.47985 2.30669 9.53621 2.25032C9.59258 2.19396 9.63729 2.12704 9.6678 2.0534C9.6983 1.97975 9.714 1.90082 9.714 1.82111C9.714 1.7414 9.6983 1.66247 9.6678 1.58882C9.63729 1.51518 9.59258 1.44826 9.53621 1.3919C9.47985 1.33553 9.41293 1.29082 9.33929 1.26031C9.26564 1.22981 9.18671 1.21411 9.107 1.21411H1.821C1.33804 1.21411 0.874862 1.40596 0.533359 1.74747C0.191855 2.08897 0 2.55215 0 3.03511L0 15.1771C0 15.6601 0.191855 16.1232 0.533359 16.4648C0.874862 16.8063 1.33804 16.9981 1.821 16.9981H12.75C12.9891 16.9981 13.2259 16.951 13.4469 16.8595C13.6678 16.768 13.8685 16.6338 14.0376 16.4648C14.2067 16.2957 14.3409 16.0949 14.4324 15.874C14.5239 15.653 14.571 15.4162 14.571 15.1771V9.10711C14.571 8.94612 14.507 8.79173 14.3932 8.67789C14.2794 8.56406 14.125 8.50011 13.964 8.50011Z" fill="#273773"/>
<path d="M16.3191 0.681112C16.1033 0.465253 15.8471 0.294022 15.5651 0.177198C15.2831 0.0603734 14.9809 0.000244141 14.6756 0.000244141C14.3704 0.000244141 14.0681 0.0603734 13.7861 0.177198C13.5042 0.294022 13.2479 0.465253 13.0321 0.681112L5.03212 8.68111C4.96595 8.74789 4.916 8.82898 4.88612 8.91811L3.67213 12.5611C3.6415 12.6524 3.63305 12.7497 3.64746 12.845C3.66188 12.9402 3.69874 13.0306 3.75502 13.1088C3.8113 13.1869 3.88537 13.2506 3.97112 13.2945C4.05686 13.3383 4.15181 13.3612 4.24812 13.3611C4.31336 13.361 4.37817 13.3505 4.44012 13.3301L8.08312 12.1161C8.17246 12.0862 8.2536 12.0358 8.32012 11.9691L16.3201 3.96911C16.5361 3.75322 16.7073 3.49688 16.8242 3.21476C16.941 2.93264 17.0011 2.63026 17.001 2.3249C17.0009 2.01955 16.9406 1.71721 16.8236 1.43516C16.7066 1.1531 16.5352 0.896875 16.3191 0.681112ZM15.4601 3.11011L7.56712 11.0031L5.20912 11.7901L5.99413 9.43511L13.8941 1.54211C14.1021 1.33392 14.3842 1.21685 14.6784 1.21666C14.9727 1.21647 15.2549 1.33318 15.4631 1.54111C15.6713 1.74904 15.7884 2.03116 15.7886 2.3254C15.7888 2.61965 15.6721 2.90192 15.4641 3.11011H15.4601Z" fill="#273773"/>
</svg>
