<svg width="18" height="18" viewBox="0 0 18 18" fill="none" xmlns="http://www.w3.org/2000/svg">
<path d="M17.2999 2.17101H6.63091C6.48416 1.73412 6.20391 1.35435 5.82971 1.0853C5.45552 0.816246 5.00628 0.671509 4.5454 0.671509C4.08452 0.671509 3.63529 0.816246 3.26109 1.0853C2.8869 1.35435 2.60665 1.73412 2.4599 2.17101H0.797905C0.612253 2.17101 0.434201 2.24476 0.302925 2.37604C0.17165 2.50731 0.0979004 2.68536 0.0979004 2.87101C0.0979004 3.05666 0.17165 3.23471 0.302925 3.36599C0.434201 3.49727 0.612253 3.57101 0.797905 3.57101H2.46291C2.60965 4.00791 2.8899 4.38768 3.26409 4.65673C3.63828 4.92578 4.08752 5.07052 4.5484 5.07052C5.00928 5.07052 5.45852 4.92578 5.83272 4.65673C6.20691 4.38768 6.48716 4.00791 6.6339 3.57101H17.2999C17.4856 3.57101 17.6636 3.49727 17.7949 3.36599C17.9262 3.23471 17.9999 3.05666 17.9999 2.87101C17.9999 2.68536 17.9262 2.50731 17.7949 2.37604C17.6636 2.24476 17.4856 2.17101 17.2999 2.17101ZM4.5489 3.67101C4.39068 3.67101 4.23601 3.62409 4.10445 3.53619C3.97289 3.44828 3.87035 3.32334 3.8098 3.17716C3.74925 3.03098 3.73341 2.87013 3.76427 2.71494C3.79514 2.55976 3.87133 2.41721 3.98322 2.30533C4.0951 2.19345 4.23765 2.11726 4.39283 2.08639C4.54801 2.05552 4.70887 2.07136 4.85505 2.13191C5.00123 2.19246 5.12618 2.295 5.21408 2.42656C5.30199 2.55812 5.3489 2.71278 5.3489 2.87101C5.3489 3.08318 5.26462 3.28667 5.11459 3.4367C4.96456 3.58673 4.76108 3.67101 4.5489 3.67101Z" fill="white"/>
<path d="M17.2999 8.172H15.6309C15.4842 7.73511 15.2039 7.35532 14.8297 7.08627C14.4555 6.81722 14.0063 6.67249 13.5454 6.67249C13.0845 6.67249 12.6353 6.81722 12.2611 7.08627C11.8869 7.35532 11.6066 7.73511 11.4599 8.172H0.797905C0.70598 8.172 0.61495 8.1901 0.530022 8.22528C0.445094 8.26046 0.367926 8.31201 0.302925 8.37701C0.237924 8.44202 0.186362 8.51918 0.151184 8.60411C0.116006 8.68904 0.0979004 8.78007 0.0979004 8.87199C0.0979004 8.96392 0.116006 9.05495 0.151184 9.13988C0.186362 9.22481 0.237924 9.30197 0.302925 9.36697C0.367926 9.43197 0.445094 9.48353 0.530022 9.51871C0.61495 9.55389 0.70598 9.57199 0.797905 9.57199H11.4639C11.6107 10.0089 11.8909 10.3887 12.2651 10.6577C12.6393 10.9268 13.0885 11.0715 13.5494 11.0715C14.0103 11.0715 14.4595 10.9268 14.8337 10.6577C15.2079 10.3887 15.4882 10.0089 15.6349 9.57199H17.2999C17.3918 9.57199 17.4829 9.55389 17.5678 9.51871C17.6527 9.48353 17.7299 9.43197 17.7949 9.36697C17.8599 9.30197 17.9114 9.22481 17.9466 9.13988C17.9818 9.05495 17.9999 8.96392 17.9999 8.87199C17.9999 8.78007 17.9818 8.68904 17.9466 8.60411C17.9114 8.51918 17.8599 8.44202 17.7949 8.37701C17.7299 8.31201 17.6527 8.26046 17.5678 8.22528C17.4829 8.1901 17.3918 8.172 17.2999 8.172ZM13.5499 9.672C13.3917 9.672 13.237 9.62508 13.1054 9.53717C12.9739 9.44927 12.8713 9.32433 12.8108 9.17815C12.7502 9.03197 12.7344 8.87111 12.7653 8.71593C12.7961 8.56074 12.8723 8.41819 12.9842 8.3063C13.0961 8.19442 13.2386 8.11824 13.3938 8.08737C13.549 8.0565 13.7099 8.07234 13.856 8.13289C14.0022 8.19344 14.1272 8.29598 14.2151 8.42754C14.303 8.5591 14.3499 8.71377 14.3499 8.87199C14.3499 8.97714 14.3292 9.08125 14.2889 9.17838C14.2486 9.2755 14.1896 9.36373 14.1152 9.43803C14.0408 9.51233 13.9525 9.57124 13.8554 9.61139C13.7582 9.65153 13.654 9.67213 13.5489 9.672H13.5499Z" fill="white"/>
<path d="M17.2999 14.172H9.63091C9.48416 13.7351 9.20391 13.3553 8.82971 13.0863C8.45552 12.8172 8.00628 12.6725 7.5454 12.6725C7.08452 12.6725 6.63529 12.8172 6.26109 13.0863C5.8869 13.3553 5.60665 13.7351 5.4599 14.172H0.797905C0.612253 14.172 0.434201 14.2457 0.302925 14.377C0.17165 14.5083 0.0979004 14.6864 0.0979004 14.872C0.0979004 15.0577 0.17165 15.2357 0.302925 15.367C0.434201 15.4982 0.612253 15.572 0.797905 15.572H5.46291C5.60965 16.0089 5.8899 16.3887 6.26409 16.6577C6.63828 16.9268 7.08752 17.0715 7.5484 17.0715C8.00928 17.0715 8.45852 16.9268 8.83272 16.6577C9.20691 16.3887 9.48716 16.0089 9.6339 15.572H17.2989C17.4846 15.572 17.6626 15.4982 17.7939 15.367C17.9252 15.2357 17.9989 15.0577 17.9989 14.872C17.9989 14.6864 17.9252 14.5083 17.7939 14.377C17.6626 14.2457 17.4846 14.172 17.2989 14.172H17.2999ZM7.5489 15.672C7.39068 15.672 7.23601 15.6251 7.10445 15.5372C6.97289 15.4493 6.87035 15.3243 6.8098 15.1782C6.74925 15.032 6.73341 14.8711 6.76427 14.7159C6.79514 14.5608 6.87133 14.4182 6.98322 14.3063C7.0951 14.1944 7.23765 14.1182 7.39283 14.0874C7.54801 14.0565 7.70887 14.0724 7.85505 14.1329C8.00123 14.1935 8.12618 14.296 8.21408 14.4276C8.30199 14.5591 8.3489 14.7138 8.3489 14.872C8.3489 14.9771 8.32821 15.0811 8.288 15.1782C8.2478 15.2752 8.18887 15.3634 8.11459 15.4377C8.0403 15.512 7.95211 15.5709 7.85505 15.6111C7.75799 15.6513 7.65396 15.672 7.5489 15.672Z" fill="white"/>
</svg>
