<svg width="36" height="36" viewBox="0 0 36 36" fill="none" xmlns="http://www.w3.org/2000/svg">
<path d="M25.518 6.44009C25.2165 6.74165 25.0471 7.15064 25.0471 7.5771C25.0471 8.00355 25.2165 8.41253 25.518 8.71409L29.234 12.4301C29.5363 12.7282 29.9442 12.8946 30.3687 12.8931C30.7932 12.8917 31.1999 12.7224 31.5001 12.4222C31.8003 12.122 31.9696 11.7153 31.9711 11.2908C31.9726 10.8662 31.8061 10.4584 31.508 10.1561L27.792 6.44009C27.4902 6.13904 27.0813 5.96997 26.655 5.96997C26.2287 5.96997 25.8198 6.13904 25.518 6.44009ZM30.784 10.8801C30.8887 10.9908 30.9461 11.1379 30.944 11.2903C30.9419 11.4426 30.8805 11.5881 30.7727 11.6958C30.665 11.8036 30.5195 11.865 30.3672 11.8671C30.2148 11.8692 30.0677 11.8118 29.957 11.7071L26.241 7.99109C26.1363 7.88043 26.0789 7.73327 26.081 7.58093C26.0831 7.42859 26.1445 7.28308 26.2523 7.17535C26.36 7.06761 26.5055 7.00616 26.6578 7.00406C26.8102 7.00196 26.9573 7.05937 27.068 7.16409L30.784 10.8801Z" fill="#273773"/>
<path d="M35.247 15.857C35.1405 15.3448 34.9053 14.8682 34.5636 14.4721C34.222 14.076 33.785 13.7735 33.294 13.593C35.714 9.55599 36.05 5.77499 34.113 3.83899C33.6359 3.39709 33.0734 3.05758 32.4601 2.8414C31.8468 2.62521 31.1957 2.53693 30.547 2.58199C30.4152 2.58886 30.2912 2.64635 30.2008 2.74245C30.1103 2.83855 30.0605 2.96585 30.0617 3.0978C30.0628 3.22975 30.1149 3.35615 30.207 3.45065C30.2991 3.54515 30.4241 3.60044 30.556 3.60499H30.566C31.0761 3.56245 31.5895 3.62548 32.0742 3.79013C32.5588 3.95478 33.0044 4.21753 33.383 4.56199C33.8005 5.0672 34.0975 5.66089 34.2514 6.298C34.4053 6.93511 34.412 7.5989 34.271 8.23899C33.9451 10.0848 33.2411 11.8433 32.203 13.404C29.2523 13.348 26.292 13.3093 23.322 13.288C23.3023 11.5337 23.1945 9.78148 22.999 8.03799C22.986 7.92225 22.934 7.81439 22.8514 7.73221C22.7689 7.65004 22.6608 7.59846 22.545 7.58599C22.392 7.56999 22.24 7.55499 22.087 7.53999C23.9899 5.85135 26.2406 4.60154 28.68 3.87899C28.7468 3.86386 28.81 3.83547 28.8656 3.79549C28.9213 3.7555 28.9684 3.70475 29.0041 3.64624C29.0398 3.58773 29.0634 3.52264 29.0734 3.45484C29.0835 3.38705 29.0799 3.31792 29.0627 3.25156C29.0456 3.1852 29.0153 3.12295 28.9736 3.06852C28.932 3.01408 28.8798 2.96856 28.8203 2.93465C28.7607 2.90075 28.6949 2.87915 28.6269 2.87113C28.5588 2.86312 28.4898 2.86885 28.424 2.88799C27.5635 3.11519 26.7265 3.42322 25.924 3.80799C26.1412 3.08252 26.1163 2.30604 25.853 1.59599C25.7663 1.41122 25.6405 1.24753 25.4842 1.11629C25.3279 0.985047 25.145 0.8894 24.948 0.83599C24.348 0.67099 23.423 0.75699 22.392 2.11199C22.342 2.17799 22.292 2.24399 22.248 2.31199L22.231 2.25399C22.1427 1.77544 21.8987 1.33949 21.537 1.01395C21.1753 0.68842 20.7162 0.491556 20.231 0.45399C20.0192 0.451104 19.8094 0.495264 19.6168 0.583286C19.4241 0.671308 19.2534 0.800995 19.117 0.96299C18.743 1.48423 18.534 2.10569 18.517 2.74699C18.3506 2.46381 18.1235 2.22104 17.852 2.03619C17.5805 1.85134 17.2714 1.729 16.947 1.67799C16.7518 1.68271 16.5607 1.735 16.3902 1.83032C16.2198 1.92565 16.0752 2.06112 15.969 2.22499C15.311 3.15399 15.301 5.16599 15.913 7.27399L15.447 7.28199C14.6532 6.3817 13.7281 5.60631 12.703 4.98199V3.86499C12.8209 3.84438 12.9278 3.78304 13.0051 3.69166C13.0824 3.60029 13.1252 3.48468 13.126 3.36499V1.91899C13.1257 1.54459 12.9769 1.18559 12.7121 0.920848C12.4474 0.656104 12.0884 0.507255 11.714 0.50699H8.53799C8.16376 0.50752 7.80502 0.656486 7.54049 0.921201C7.27597 1.18592 7.12725 1.54476 7.12699 1.91899V3.36199C7.12778 3.48168 7.17055 3.59729 7.24786 3.68866C7.32516 3.78004 7.43209 3.84138 7.54999 3.86199V4.98599C6.10677 5.84132 4.88435 7.02333 3.98099 8.43699C3.76925 8.80569 3.67115 9.22873 3.69899 9.65299C3.77405 10.9077 3.92096 12.1571 4.13899 13.395L3.51099 13.406C2.81646 13.4226 2.148 13.6738 1.61437 14.1186C1.08074 14.5635 0.713355 15.1758 0.57199 15.856C0.406342 16.6673 0.406342 17.5037 0.57199 18.315C0.675089 18.8167 0.902014 19.2846 1.23211 19.6761C1.56221 20.0677 1.98499 20.3705 2.46199 20.557C2.51799 21.598 2.61399 23.079 2.77199 24.762C2.34999 25.958 1.93766 27.1533 1.53499 28.348C1.36772 28.8461 1.38427 29.3876 1.58163 29.8746C1.77899 30.3616 2.14413 30.7619 2.61099 31.003C2.97459 31.1863 3.35721 31.3292 3.75199 31.429C4.13791 32.5225 4.8534 33.4695 5.7999 34.1395C6.74641 34.8095 7.87736 35.1695 9.03699 35.17H26.779C27.9386 35.1695 29.0696 34.8095 30.0161 34.1395C30.9626 33.4695 31.6781 32.5225 32.064 31.429C32.4588 31.3288 32.8414 31.1856 33.205 31.002C33.6717 30.7607 34.0366 30.3604 34.2338 29.8734C34.4309 29.3864 34.4473 28.845 34.28 28.347C33.88 27.1523 33.4677 25.957 33.043 24.761C33.2 23.078 33.297 21.597 33.353 20.561C33.8308 20.3751 34.2544 20.0726 34.5853 19.681C34.9161 19.2894 35.1436 18.8211 35.247 18.319C35.4127 17.5074 35.4127 16.6706 35.247 15.859V15.857ZM22.034 8.55699C22.198 10.128 22.289 11.711 22.307 13.278C18.513 13.256 14.718 13.2623 10.922 13.297C10.939 11.725 11.03 10.135 11.195 8.55699C14.7976 8.19997 18.4267 8.20165 22.029 8.56199L22.034 8.55699ZM16.802 2.81899C16.839 2.76599 16.894 2.70399 16.946 2.70399C17.314 2.70399 18.087 3.75499 18.636 5.00399C18.6833 5.12192 18.7729 5.21798 18.8872 5.27342C19.0016 5.32887 19.1325 5.33973 19.2544 5.30388C19.3763 5.26804 19.4805 5.18805 19.5466 5.07954C19.6127 4.97102 19.636 4.84177 19.612 4.71699C19.3468 3.68553 19.4468 2.5941 19.895 1.62799C19.9353 1.57733 19.987 1.53695 20.0459 1.51018C20.1049 1.4834 20.1693 1.471 20.234 1.47399C21.413 1.47399 21.453 3.81999 21.453 3.84299C21.4534 3.96021 21.494 4.07375 21.568 4.16464C21.642 4.25554 21.745 4.31828 21.8597 4.34239C21.9744 4.36651 22.0939 4.35053 22.1982 4.29713C22.3026 4.24373 22.3855 4.15614 22.433 4.04899C22.799 3.22199 23.833 1.58999 24.683 1.82599C24.7408 1.84078 24.7944 1.86881 24.8395 1.90785C24.8846 1.9469 24.9201 1.9959 24.943 2.05099C25.1258 2.86843 25.0271 3.72365 24.663 4.47799C23.2321 5.31025 21.8965 6.29644 20.68 7.41899C19.4487 7.32899 18.2153 7.27966 16.98 7.27099C16.267 5.03599 16.434 3.33499 16.802 2.81599V2.81899ZM11.685 4.76799H8.57199V3.86799H11.684V4.76799H11.685ZM8.53799 1.52899H11.719C11.8218 1.52925 11.9203 1.57022 11.9931 1.64292C12.0658 1.71563 12.1067 1.81417 12.107 1.91699V2.84999H8.14699V1.91899C8.14686 1.86765 8.15689 1.8168 8.1765 1.76936C8.19612 1.72191 8.22493 1.67882 8.26128 1.64257C8.29762 1.60631 8.34079 1.57761 8.38828 1.55812C8.43577 1.53863 8.48665 1.52873 8.53799 1.52899ZM5.14699 13.219C4.93499 12.0172 4.79242 10.8042 4.71999 9.58599C4.7047 9.36218 4.75584 9.13885 4.86699 8.94399C5.71597 7.64773 6.85634 6.56798 8.19699 5.79099H12.059C12.7887 6.22698 13.4682 6.74209 14.085 7.32699C12.9437 7.37899 11.8053 7.46532 10.67 7.58599C10.5541 7.59828 10.4459 7.6498 10.3634 7.73201C10.2808 7.81422 10.2288 7.92218 10.216 8.03799C10.0197 9.78944 9.91192 11.5497 9.89299 13.312C8.32232 13.3287 6.75566 13.35 5.19299 13.376C5.174 13.3248 5.15862 13.2723 5.14699 13.219ZM3.49699 20.762H3.52699L4.21499 20.774C4.00966 21.3253 3.80632 21.877 3.60499 22.429C3.55999 21.812 3.52499 21.249 3.49799 20.766L3.49699 20.762ZM26.779 34.149H9.03599C8.15472 34.1449 7.29309 33.8884 6.55302 33.4099C5.81296 32.9314 5.22544 32.2509 4.85999 31.449C5.20145 31.364 5.51769 31.1986 5.78241 30.9668C6.04712 30.7349 6.25268 30.4433 6.38199 30.116C6.67699 29.365 6.94499 28.672 7.20099 28C7.22851 27.9365 7.24287 27.8681 7.24322 27.7989C7.24357 27.7297 7.22989 27.6612 7.20301 27.5975C7.17614 27.5337 7.13662 27.4761 7.08684 27.428C7.03707 27.3799 6.97807 27.3425 6.91341 27.3179C6.84876 27.2932 6.77978 27.282 6.71065 27.2848C6.64152 27.2875 6.57367 27.3043 6.5112 27.334C6.44873 27.3638 6.39293 27.4059 6.34718 27.4578C6.30142 27.5097 6.26666 27.5703 6.24499 27.636C5.98999 28.306 5.72299 28.995 5.42999 29.743C5.32882 30.0039 5.13756 30.22 4.89083 30.3521C4.6441 30.4841 4.35823 30.5235 4.08499 30.463C3.73423 30.381 3.3945 30.2574 3.07299 30.095C2.82497 29.9653 2.6315 29.7512 2.52752 29.4913C2.42354 29.2315 2.4159 28.943 2.50599 28.678C3.81799 24.778 5.24799 20.845 6.75799 16.996C6.85914 16.735 7.05036 16.5188 7.29706 16.3866C7.54376 16.2543 7.82964 16.2148 8.10299 16.275C8.45446 16.3572 8.79486 16.4811 9.11699 16.644C9.36508 16.7734 9.55865 16.9873 9.66266 17.247C9.76666 17.5068 9.77423 17.7952 9.68399 18.06C8.82599 20.614 7.91199 23.193 6.96799 25.725C6.92641 25.8508 6.93521 25.9878 6.99256 26.1073C7.04991 26.2267 7.15133 26.3193 7.2755 26.3655C7.39967 26.4117 7.53693 26.408 7.65843 26.3551C7.77992 26.3023 7.87618 26.2044 7.92699 26.082C8.56999 24.356 9.19899 22.609 9.80599 20.863C12.496 20.892 15.206 20.907 17.906 20.907C20.606 20.907 23.32 20.892 26.006 20.863C27.086 23.963 28.232 27.07 29.427 30.115C29.5562 30.4424 29.7617 30.7343 30.0264 30.9664C30.2911 31.1984 30.6074 31.3639 30.949 31.449C30.5835 32.2509 29.996 32.9314 29.256 33.4099C28.5159 33.8884 27.6543 34.1449 26.773 34.149H26.779ZM32.747 30.091C32.4251 30.2537 32.0851 30.3776 31.734 30.46C31.4606 30.5202 31.1748 30.4806 30.9281 30.3484C30.6814 30.2162 30.4901 30 30.389 29.739C28.878 25.899 27.447 21.969 26.133 18.057C26.043 17.7921 26.0506 17.5038 26.1546 17.2441C26.2586 16.9844 26.452 16.7705 26.7 16.641C27.0218 16.4783 27.3619 16.3544 27.713 16.272C27.7966 16.2522 27.8821 16.2422 27.968 16.242C28.2036 16.244 28.4333 16.3165 28.6274 16.4501C28.8215 16.5838 28.9711 16.7725 29.057 16.992C30.564 20.832 31.994 24.762 33.309 28.674C33.3997 28.9384 33.3929 29.2265 33.2898 29.4863C33.1868 29.7462 32.9943 29.9606 32.747 30.091ZM31.6 20.779L32.287 20.767H32.317C32.29 21.25 32.254 21.812 32.209 22.435C32.009 21.8823 31.8057 21.3307 31.599 20.78L31.6 20.779ZM34.24 18.113C34.1625 18.4902 33.98 18.8377 33.7136 19.1157C33.4471 19.3937 33.1075 19.5907 32.734 19.684C32.5871 19.721 32.4364 19.7411 32.285 19.744H32.268L31.219 19.763C30.819 18.7097 30.416 17.6617 30.01 16.619C29.8181 16.1297 29.4573 15.7253 28.9931 15.479C28.5288 15.2326 27.9917 15.1606 27.479 15.276C27.0485 15.3768 26.6316 15.5286 26.237 15.728C25.7703 15.9693 25.4054 16.3696 25.2082 16.8566C25.011 17.3435 24.9946 17.885 25.162 18.383C25.3253 18.869 25.492 19.355 25.662 19.841C20.514 19.894 15.308 19.894 10.162 19.841C10.3287 19.355 10.4953 18.8693 10.662 18.384C10.8293 17.886 10.8129 17.3445 10.6158 16.8576C10.4186 16.3706 10.0537 15.9703 9.58699 15.729C9.19241 15.5295 8.77547 15.3778 8.34499 15.277C7.83091 15.1589 7.29152 15.2295 6.82511 15.4758C6.3587 15.7221 5.99632 16.1278 5.80399 16.619C5.39466 17.6617 4.99199 18.7097 4.59599 19.763L3.54699 19.745H3.53099C3.37782 19.7421 3.22549 19.7216 3.07699 19.684C2.70462 19.5899 2.36634 19.3926 2.10101 19.1149C1.83568 18.8372 1.65406 18.4903 1.57699 18.114C1.43868 17.4366 1.43868 16.7383 1.57699 16.061C1.67101 15.6082 1.91549 15.2006 2.27064 14.9045C2.62579 14.6083 3.07071 14.4411 3.53299 14.43C13.073 14.247 22.747 14.247 32.288 14.43C32.7503 14.4411 33.1952 14.6083 33.5503 14.9045C33.9055 15.2006 34.15 15.6082 34.244 16.061C34.3824 16.7383 34.3824 17.4367 34.244 18.114L34.24 18.113Z" fill="#273773"/>
<path d="M11.145 22.656H11.11C10.5476 22.6566 10.0076 22.8772 9.60554 23.2705C9.20345 23.6638 8.97106 24.1987 8.95801 24.761C8.91601 26.148 8.91601 27.554 8.95801 28.941C8.97107 29.5035 9.20359 30.0386 9.60589 30.4319C10.0082 30.8252 10.5484 31.0456 11.111 31.046H11.145C11.7075 31.0454 12.2474 30.8249 12.6495 30.4315C13.0516 30.0382 13.284 29.5033 13.297 28.941C13.339 27.554 13.339 26.148 13.297 24.761C13.284 24.1987 13.0516 23.6638 12.6495 23.2705C12.2474 22.8772 11.7075 22.6566 11.145 22.656ZM12.275 28.911C12.2655 29.2065 12.1427 29.4869 11.9319 29.6942C11.7211 29.9014 11.4386 30.0195 11.143 30.024H11.113C10.8174 30.0195 10.5349 29.9014 10.3242 29.6942C10.1134 29.4869 9.99049 29.2065 9.98102 28.911C9.94002 27.544 9.94002 26.159 9.98102 24.792C9.99049 24.4966 10.1134 24.2161 10.3242 24.0089C10.5349 23.8016 10.8174 23.6835 11.113 23.679H11.142C11.4376 23.6835 11.7201 23.8016 11.9309 24.0089C12.1417 24.2161 12.2645 24.4966 12.274 24.792C12.315 26.159 12.315 27.544 12.274 28.911H12.275Z" fill="#273773"/>
<path d="M17.924 22.656H17.89C17.3275 22.6566 16.7876 22.8772 16.3855 23.2705C15.9834 23.6638 15.751 24.1987 15.738 24.761C15.696 26.148 15.696 27.554 15.738 28.941C15.751 29.5035 15.9836 30.0386 16.3859 30.4319C16.7882 30.8252 17.3283 31.0456 17.891 31.046H17.925C18.4874 31.0454 19.0274 30.8249 19.4295 30.4315C19.8316 30.0382 20.0639 29.5033 20.077 28.941C20.119 27.554 20.119 26.148 20.077 24.761C20.0639 24.1985 19.8314 23.6634 19.4291 23.2701C19.0268 22.8768 18.4866 22.6564 17.924 22.656ZM19.054 28.911C19.0445 29.2065 18.9216 29.4869 18.7108 29.6942C18.5001 29.9014 18.2175 30.0195 17.922 30.024H17.892C17.5964 30.0195 17.3139 29.9014 17.1031 29.6942C16.8923 29.4869 16.7695 29.2065 16.76 28.911C16.719 27.544 16.719 26.159 16.76 24.792C16.7695 24.4966 16.8923 24.2161 17.1031 24.0089C17.3139 23.8016 17.5964 23.6835 17.892 23.679H17.921C18.2166 23.6835 18.499 23.8016 18.7098 24.0089C18.9206 24.2161 19.0435 24.4966 19.053 24.792C19.095 26.158 19.095 27.544 19.054 28.911Z" fill="#273773"/>
<path d="M24.703 22.656H24.671C24.1085 22.6566 23.5686 22.8772 23.1665 23.2705C22.7644 23.6638 22.532 24.1987 22.519 24.761C22.477 26.148 22.477 27.554 22.519 28.941C22.532 29.5035 22.7645 30.0386 23.1668 30.4319C23.5691 30.8252 24.1093 31.0456 24.672 31.046H24.706C25.2684 31.0454 25.8084 30.8249 26.2105 30.4315C26.6125 30.0382 26.8449 29.5033 26.858 28.941C26.9 27.554 26.9 26.148 26.858 24.761C26.8449 24.1982 26.6121 23.6628 26.2094 23.2694C25.8067 22.876 25.266 22.6559 24.703 22.656ZM25.833 28.911C25.8235 29.2065 25.7006 29.4869 25.4898 29.6942C25.2791 29.9014 24.9965 30.0195 24.701 30.024H24.671C24.3754 30.0195 24.0929 29.9014 23.8821 29.6942C23.6713 29.4869 23.5485 29.2065 23.539 28.911C23.498 27.544 23.498 26.159 23.539 24.792C23.5485 24.4966 23.6713 24.2161 23.8821 24.0089C24.0929 23.8016 24.3754 23.6835 24.671 23.679H24.7C24.9956 23.6835 25.2781 23.8016 25.4888 24.0089C25.6996 24.2161 25.8225 24.4966 25.832 24.792C25.871 26.158 25.871 27.544 25.833 28.911Z" fill="#273773"/>
</svg>
