<svg width="22" height="16" viewBox="0 0 22 16" fill="none" xmlns="http://www.w3.org/2000/svg">
<path d="M20.175 8.47897H0.877C0.644405 8.47897 0.421337 8.38658 0.256867 8.22211C0.0923979 8.05764 0 7.83457 0 7.60197C0 7.36938 0.0923979 7.14631 0.256867 6.98184C0.421337 6.81737 0.644405 6.72498 0.877 6.72498H20.177C20.4096 6.72498 20.6327 6.81737 20.7971 6.98184C20.9616 7.14631 21.054 7.36938 21.054 7.60197C21.054 7.83457 20.9616 8.05764 20.7971 8.22211C20.6327 8.38658 20.4096 8.47897 20.177 8.47897H20.175Z" fill="white"/>
<path d="M20.175 1.754H0.877C0.644405 1.754 0.421337 1.6616 0.256867 1.49713C0.0923979 1.33266 0 1.10959 0 0.877C0 0.644405 0.0923979 0.421337 0.256867 0.256867C0.421337 0.0923979 0.644405 0 0.877 0L20.177 0C20.4096 0 20.6327 0.0923979 20.7971 0.256867C20.9616 0.421337 21.054 0.644405 21.054 0.877C21.054 1.10959 20.9616 1.33266 20.7971 1.49713C20.6327 1.6616 20.4096 1.754 20.177 1.754H20.175Z" fill="white"/>
<path d="M20.175 15.2039H0.877C0.644405 15.2039 0.421337 15.1116 0.256867 14.9471C0.0923979 14.7826 0 14.5595 0 14.327C0 14.0944 0.0923979 13.8713 0.256867 13.7068C0.421337 13.5423 0.644405 13.45 0.877 13.45H20.177C20.4096 13.45 20.6327 13.5423 20.7971 13.7068C20.9616 13.8713 21.054 14.0944 21.054 14.327C21.054 14.5595 20.9616 14.7826 20.7971 14.9471C20.6327 15.1116 20.4096 15.2039 20.177 15.2039H20.175Z" fill="white"/>
</svg>
