<svg width="16" height="13" viewBox="0 0 16 13" fill="none" xmlns="http://www.w3.org/2000/svg">
<path d="M14.1361 1.26398C13.7675 0.862027 13.3187 0.541849 12.8186 0.324128C12.3186 0.106406 11.7785 -0.00401936 11.2331 -1.70408e-05C10.4056 -0.00369963 9.6013 0.273788 8.95209 0.786983C8.60025 1.06219 8.28975 1.3865 8.03009 1.74998C7.77016 1.38642 7.45931 1.0621 7.10709 0.786983C6.4582 0.273932 5.6543 -0.00355215 4.82709 -1.70408e-05C4.28223 -0.00359916 3.74267 0.10703 3.24318 0.324738C2.74369 0.542446 2.29536 0.862403 1.92709 1.26398C1.16553 2.11472 0.752743 3.22132 0.771094 4.36298C0.80426 5.67802 1.3163 6.93573 2.21109 7.89998C3.31827 9.12253 4.52217 10.2539 5.81109 11.283C6.31109 11.709 6.87609 12.191 7.46409 12.705C7.6194 12.8409 7.81874 12.9157 8.02509 12.9157C8.23145 12.9157 8.43079 12.8409 8.58609 12.705C9.17409 12.191 9.74009 11.705 10.2401 11.283C11.5291 10.2539 12.733 9.12257 13.8401 7.89998C14.7349 6.93573 15.2469 5.67802 15.2801 4.36298C15.2998 3.22151 14.8884 2.11458 14.1281 1.26298L14.1361 1.26398Z" fill="#273773"/>
</svg>
