<svg width="17" height="15" viewBox="0 0 17 15" fill="none" xmlns="http://www.w3.org/2000/svg">
<path d="M8.26519 14.8161C8.0371 14.8162 7.81675 14.7334 7.64519 14.5831C6.99719 14.0171 6.37319 13.4831 5.82219 13.0151C4.3961 11.8779 3.06411 10.6275 1.83919 9.27609C0.851424 8.21102 0.286088 6.82222 0.249192 5.37009C0.228819 4.11143 0.682921 2.89121 1.52119 1.95209C1.92818 1.50751 2.42386 1.15321 2.97626 0.912064C3.52865 0.670919 4.12547 0.548288 4.72819 0.552088C5.64287 0.547814 6.53183 0.854596 7.24919 1.42209C7.63692 1.72604 7.97907 2.08402 8.26519 2.48509C8.55223 2.08381 8.8954 1.72582 9.28419 1.42209C10.001 0.855025 10.8892 0.548268 11.8032 0.552088C12.4059 0.548288 13.0027 0.670919 13.5551 0.912064C14.1075 1.15321 14.6032 1.50751 15.0102 1.95209C15.8494 2.89223 16.3036 4.11405 16.2822 5.37409C16.2453 6.82622 15.68 8.21502 14.6922 9.28009C13.4681 10.6304 12.1371 11.8798 10.7122 13.0161C10.1602 13.4861 9.53519 14.0161 8.88619 14.5871C8.71459 14.7373 8.49427 14.8201 8.26619 14.8201L8.26519 14.8161ZM4.72819 1.49109C4.25549 1.48741 3.78727 1.58286 3.35373 1.7713C2.9202 1.95973 2.53098 2.23696 2.21119 2.58509C1.53243 3.35194 1.16722 4.3462 1.18819 5.37009C1.22416 6.60383 1.71329 7.7811 2.56219 8.67709C3.75318 9.98468 5.04625 11.1955 6.42919 12.2981C6.98219 12.7691 7.60919 13.3041 8.26119 13.8741C8.91719 13.3021 9.54519 12.7671 10.0992 12.2951C11.4817 11.1927 12.7745 9.98227 13.9652 8.67509C14.8141 7.7791 15.3032 6.60183 15.3392 5.36809C15.3605 4.34529 14.9964 3.35188 14.3192 2.58509C13.9995 2.23708 13.6105 1.95993 13.1771 1.7715C12.7438 1.58307 12.2757 1.48755 11.8032 1.49109C11.0973 1.48857 10.4115 1.72586 9.85819 2.16409C9.4235 2.51269 9.05643 2.93806 8.77519 3.41909C8.72257 3.50713 8.64801 3.58001 8.55879 3.63062C8.46958 3.68123 8.36876 3.70784 8.26619 3.70784C8.16362 3.70784 8.06281 3.68123 7.97359 3.63062C7.88438 3.58001 7.80982 3.50713 7.75719 3.41909C7.47544 2.93784 7.10766 2.51244 6.67219 2.16409C6.1191 1.72608 5.43371 1.4888 4.72819 1.49109Z" fill="white"/>
</svg>
