<svg width="13" height="10" viewBox="0 0 13 10" fill="none" xmlns="http://www.w3.org/2000/svg">
<path d="M7.923 3.40094C7.87341 3.35134 7.80615 3.32349 7.73601 3.32349C7.66587 3.32349 7.59861 3.35134 7.54901 3.40094C7.49942 3.45054 7.47156 3.5178 7.47156 3.58794C7.47156 3.65808 7.49942 3.72534 7.54901 3.77493C7.69629 3.92228 7.8131 4.09718 7.89278 4.28967C7.97246 4.48216 8.01344 4.68846 8.0134 4.89679C8.01335 5.10512 7.97228 5.31139 7.89252 5.50385C7.81275 5.6963 7.69585 5.87116 7.54851 6.01843C7.40116 6.16571 7.22626 6.28253 7.03377 6.36221C6.84128 6.44189 6.63498 6.48288 6.42665 6.48283C6.21832 6.48279 6.01205 6.44171 5.8196 6.36194C5.62714 6.28217 5.45229 6.16527 5.30501 6.01793C5.25541 5.96833 5.18815 5.94048 5.11801 5.94048C5.04787 5.94048 4.98061 5.96833 4.93102 6.01793C4.88142 6.06752 4.85355 6.1348 4.85355 6.20494C4.85355 6.27508 4.88142 6.34234 4.93102 6.39194C5.12695 6.5904 5.3602 6.74816 5.61734 6.85612C5.87448 6.96409 6.15043 7.02013 6.42932 7.02103C6.70821 7.02192 6.98452 6.96766 7.24236 6.86134C7.50019 6.75503 7.73444 6.59877 7.93164 6.40157C8.12884 6.20436 8.28511 5.97011 8.39142 5.71228C8.49773 5.45445 8.552 5.17813 8.5511 4.89925C8.55021 4.62036 8.49417 4.34441 8.3862 4.08727C8.27823 3.83012 8.12048 3.59687 7.92201 3.40094H7.923Z" fill="#111111"/>
<path d="M6.797 2.82182C6.49255 2.76409 6.1791 2.77465 5.87923 2.85273C5.57936 2.93082 5.30054 3.07449 5.06292 3.27337C4.82529 3.47225 4.63477 3.7214 4.50509 4.00283C4.37541 4.28426 4.3098 4.59097 4.31301 4.90083C4.31427 5.02469 4.32666 5.14817 4.35001 5.26981C4.36101 5.33083 4.39304 5.38605 4.44054 5.42588C4.48805 5.46571 4.54801 5.48763 4.61001 5.48782C4.62563 5.48939 4.64138 5.48939 4.657 5.48782C4.72584 5.47538 4.78697 5.43624 4.82706 5.37891C4.86715 5.32159 4.88294 5.25074 4.87101 5.18182C4.85296 5.09055 4.84326 4.99785 4.84202 4.90482C4.83916 4.67234 4.88807 4.44213 4.9852 4.23089C5.08234 4.01965 5.22528 3.83268 5.40363 3.68353C5.58198 3.53437 5.79129 3.42678 6.01638 3.36854C6.24147 3.3103 6.4767 3.30289 6.70501 3.34683C6.73915 3.35287 6.77415 3.35211 6.808 3.34463C6.84186 3.33714 6.87392 3.32307 6.90233 3.3032C6.93075 3.28333 6.95496 3.25805 6.97361 3.22881C6.99225 3.19958 7.00497 3.16696 7.01101 3.13282C7.01705 3.09868 7.01631 3.06368 7.00882 3.02982C7.00134 2.99597 6.98725 2.96391 6.96738 2.93549C6.94751 2.90708 6.92224 2.88287 6.89301 2.86422C6.86378 2.84557 6.83115 2.83286 6.797 2.82682V2.82182Z" fill="#111111"/>
<path d="M12.71 4.72585C11.7243 3.61158 10.5526 2.67701 9.24699 1.96384C9.21594 1.94542 9.18146 1.93354 9.14566 1.92893C9.10986 1.92432 9.07349 1.92707 9.03879 1.93702C9.00408 1.94696 8.97177 1.9639 8.94385 1.98678C8.91592 2.00965 8.89297 2.03799 8.87639 2.07006C8.85981 2.10212 8.84996 2.13724 8.84744 2.17325C8.84492 2.20926 8.84978 2.24541 8.86172 2.27947C8.87367 2.31353 8.89245 2.3448 8.91691 2.37134C8.94138 2.39789 8.971 2.41916 9.00398 2.43384C10.1797 3.07947 11.2432 3.91123 12.153 4.89684C11.523 5.57984 9.04199 8.06984 6.42799 8.06984C5.50488 8.06145 4.59569 7.84365 3.76898 7.43285C3.73773 7.41781 3.70382 7.40907 3.66919 7.40714C3.63456 7.40521 3.59988 7.41012 3.56715 7.42159C3.53442 7.43306 3.50427 7.45087 3.47842 7.47399C3.45257 7.49711 3.43152 7.52509 3.41649 7.55634C3.40145 7.58759 3.39272 7.6215 3.39079 7.65613C3.38886 7.69076 3.39376 7.72544 3.40523 7.75817C3.41669 7.7909 3.4345 7.82106 3.45762 7.84691C3.48075 7.87277 3.50874 7.89381 3.53999 7.90885C4.43789 8.35486 5.42546 8.59081 6.42799 8.59885C9.68599 8.59885 12.588 5.21284 12.711 5.06884C12.7517 5.02091 12.774 4.96004 12.7738 4.89716C12.7736 4.83428 12.751 4.77354 12.71 4.72585Z" fill="#111111"/>
<path d="M8.162 1.49995C7.60371 1.30672 7.01775 1.20541 6.427 1.19995C3.169 1.19995 0.266996 4.58595 0.143996 4.72995C0.106284 4.77443 0.0843596 4.83015 0.081646 4.8884C0.0789324 4.94665 0.0955822 5.00416 0.128996 5.05195C0.799905 5.9516 1.62013 6.72955 2.554 7.35195C2.5829 7.37121 2.61534 7.38456 2.64943 7.39121C2.68352 7.39787 2.7186 7.39771 2.75263 7.39073C2.78666 7.38376 2.81897 7.37012 2.84769 7.35059C2.87642 7.33106 2.90099 7.30603 2.92 7.27695C2.93917 7.24806 2.95247 7.21568 2.95913 7.18165C2.96579 7.14762 2.96568 7.11261 2.95881 7.07862C2.95194 7.04463 2.93844 7.01234 2.91908 6.98357C2.89973 6.9548 2.87489 6.93012 2.846 6.91095C2.02849 6.35835 1.30039 5.68388 0.686996 4.91095C1.296 4.24995 3.792 1.72395 6.426 1.72395C6.95952 1.73126 7.48834 1.8248 7.992 2.00095C8.02487 2.01251 8.05972 2.01738 8.0945 2.01526C8.12928 2.01314 8.16329 2.00408 8.19451 1.98861C8.22573 1.97314 8.25354 1.95157 8.27629 1.92518C8.29905 1.89879 8.31629 1.86811 8.327 1.83495C8.33817 1.80212 8.34276 1.76741 8.34051 1.7328C8.33826 1.6982 8.32922 1.66438 8.3139 1.63327C8.29857 1.60216 8.27727 1.57437 8.25121 1.5515C8.22515 1.52862 8.19483 1.5111 8.162 1.49995Z" fill="#111111"/>
<path d="M11.109 0.214928C11.0593 0.165465 10.9921 0.137695 10.922 0.137695C10.8519 0.137695 10.7847 0.165465 10.735 0.214928L1.74601 9.20393C1.69641 9.25352 1.66855 9.32079 1.66855 9.39093C1.66855 9.46107 1.69641 9.52833 1.74601 9.57793C1.7956 9.62752 1.86287 9.65539 1.93301 9.65539C2.00315 9.65539 2.07041 9.62752 2.12001 9.57793L11.109 0.588928C11.1585 0.539263 11.1862 0.472026 11.1862 0.401932C11.1862 0.331837 11.1585 0.264593 11.109 0.214928Z" fill="#111111"/>
</svg>
