<svg width="20" height="19" viewBox="0 0 20 19" fill="none" xmlns="http://www.w3.org/2000/svg">
<path d="M10.0942 0.877519L10.0953 0.878571L18.386 8.42982V8.43074L18.5492 8.57948C18.6187 8.64281 18.6674 8.72568 18.689 8.81721C18.7105 8.90873 18.7038 9.00462 18.6699 9.09229C18.6359 9.17996 18.5762 9.25531 18.4986 9.30842C18.421 9.36154 18.3292 9.38995 18.2352 9.38992H18.235H16.884H16.384V9.88992V17.6079C16.384 17.6222 16.3783 17.636 16.3682 17.6461C16.3581 17.6562 16.3443 17.6619 16.33 17.6619H11.696C11.6817 17.6619 11.668 17.6562 11.6578 17.6461C11.6477 17.636 11.642 17.6222 11.642 17.6079V12.9219V12.4219H11.142H8.41901H7.91901V12.9219V17.6069C7.91901 17.6212 7.91332 17.635 7.90319 17.6451C7.89307 17.6552 7.87933 17.6609 7.86501 17.6609H3.23301C3.21869 17.6609 3.20495 17.6552 3.19483 17.6451C3.1847 17.635 3.17901 17.6212 3.17901 17.6069V9.88892V9.38892H2.67901H1.32901H1.32883C1.23481 9.38895 1.14298 9.36054 1.0654 9.30742C0.987822 9.2543 0.928125 9.17896 0.894154 9.09129C0.860181 9.00362 0.853523 8.90773 0.875054 8.8162C0.896575 8.72472 0.945252 8.64189 1.01469 8.57857C1.01473 8.57854 1.01476 8.57851 1.01479 8.57848L9.4687 0.878573L9.46985 0.877517C9.55505 0.799424 9.66643 0.756104 9.78201 0.756104C9.89759 0.756104 10.009 0.799424 10.0942 0.877519Z" stroke="#111111"/>
<path d="M16.7401 1.35791H13.019L17.295 5.24591V1.91191C17.295 1.83908 17.2807 1.76695 17.2528 1.69967C17.2249 1.63239 17.184 1.57128 17.1324 1.51982C17.0809 1.46837 17.0197 1.42758 16.9524 1.3998C16.885 1.37201 16.8129 1.35778 16.7401 1.35791Z" fill="#111111"/>
</svg>
