<svg width="19" height="36" viewBox="0 0 19 36" fill="none" xmlns="http://www.w3.org/2000/svg">
<path d="M9.91303 0.429932H9.57102C7.20725 0.432843 4.94112 1.37314 3.26968 3.04458C1.59823 4.71603 0.65794 6.98216 0.655029 9.34593V26.4249C0.655029 26.6069 0.727299 26.7814 0.855949 26.91C0.984599 27.0387 1.15909 27.1109 1.34103 27.1109H6.99102V32.7509C6.98111 33.1183 7.04491 33.4839 7.17866 33.8263C7.3124 34.1686 7.51338 34.4806 7.76972 34.7439C8.02606 35.0073 8.33257 35.2166 8.67115 35.3595C9.00973 35.5025 9.37351 35.5761 9.74102 35.5761C10.1085 35.5761 10.4723 35.5025 10.8109 35.3595C11.1495 35.2166 11.456 35.0073 11.7123 34.7439C11.9687 34.4806 12.1696 34.1686 12.3034 33.8263C12.4371 33.4839 12.5009 33.1183 12.491 32.7509V27.1099H18.141C18.323 27.1099 18.4975 27.0377 18.6261 26.909C18.7548 26.7804 18.827 26.6059 18.827 26.4239V9.34593C18.8241 6.9825 17.8841 4.71667 16.2131 3.04529C14.5421 1.3739 12.2765 0.433372 9.91303 0.429932V0.429932ZM2.02602 9.34593C2.02814 7.34552 2.82374 5.42765 4.23824 4.01315C5.65275 2.59865 7.57061 1.80305 9.57102 1.80093H9.91303C11.9134 1.80305 13.8313 2.59865 15.2458 4.01315C16.6603 5.42765 17.4559 7.34552 17.458 9.34593V11.4119C17.035 11.162 16.5534 11.0285 16.0621 11.025C15.5708 11.0215 15.0873 11.148 14.6608 11.3917C14.2342 11.6355 13.8797 11.9878 13.6334 12.4129C13.387 12.8379 13.2575 13.3206 13.258 13.8119V15.9119C13.2482 16.2806 13.0949 16.6308 12.8307 16.8881C12.5665 17.1454 12.2123 17.2893 11.8435 17.2893C11.4748 17.2893 11.1206 17.1454 10.8564 16.8881C10.5922 16.6308 10.4388 16.2806 10.429 15.9119V9.61193C10.429 8.87291 10.1354 8.16415 9.61288 7.64158C9.09031 7.11901 8.38155 6.82543 7.64252 6.82543C6.9035 6.82543 6.19474 7.11901 5.67217 7.64158C5.1496 8.16415 4.85603 8.87291 4.85603 9.61193V11.7119C4.86105 11.9009 4.82818 12.0889 4.75935 12.2649C4.69053 12.4409 4.58714 12.6013 4.45529 12.7367C4.32345 12.8721 4.16582 12.9797 3.9917 13.0532C3.81758 13.1267 3.63051 13.1645 3.44153 13.1645C3.25254 13.1645 3.06547 13.1267 2.89135 13.0532C2.71723 12.9797 2.5596 12.8721 2.42776 12.7367C2.29591 12.6013 2.19253 12.4409 2.1237 12.2649C2.05488 12.0889 2.022 11.9009 2.02702 11.7119V9.34593H2.02602ZM11.126 32.7459C11.1164 33.1054 10.9668 33.4468 10.7091 33.6976C10.4515 33.9484 10.1061 34.0888 9.74653 34.0888C9.38696 34.0888 9.04159 33.9484 8.78394 33.6976C8.52629 33.4468 8.37671 33.1054 8.36703 32.7459V27.1099H11.126V32.7459ZM17.462 25.7339H2.02602V14.1099C2.44903 14.3598 2.93064 14.4933 3.42193 14.4969C3.91322 14.5004 4.39671 14.3739 4.82328 14.1301C5.24985 13.8864 5.60431 13.5341 5.85069 13.109C6.09706 12.6839 6.22655 12.2012 6.22602 11.7099V9.60993C6.221 9.42101 6.25387 9.233 6.3227 9.05699C6.39153 8.88099 6.49492 8.72055 6.62676 8.58515C6.75861 8.44975 6.91624 8.34214 7.09035 8.26866C7.26447 8.19518 7.45154 8.15732 7.64053 8.15732C7.82951 8.15732 8.01658 8.19518 8.1907 8.26866C8.36481 8.34214 8.52244 8.44975 8.65429 8.58515C8.78613 8.72055 8.88952 8.88099 8.95835 9.05699C9.02718 9.233 9.06005 9.42101 9.05503 9.60993V15.9099C9.05503 16.649 9.34861 17.3577 9.87118 17.8803C10.3937 18.4029 11.1025 18.6964 11.8415 18.6964C12.5806 18.6964 13.2893 18.4029 13.8119 17.8803C14.3345 17.3577 14.628 16.649 14.628 15.9099V13.8099C14.623 13.621 14.6559 13.433 14.7247 13.257C14.7935 13.081 14.8969 12.9205 15.0288 12.7852C15.1606 12.6498 15.3182 12.5421 15.4923 12.4687C15.6665 12.3952 15.8535 12.3573 16.0425 12.3573C16.2315 12.3573 16.4186 12.3952 16.5927 12.4687C16.7668 12.5421 16.9245 12.6498 17.0563 12.7852C17.1881 12.9205 17.2915 13.081 17.3603 13.257C17.4292 13.433 17.462 13.621 17.457 13.8099V25.7389L17.462 25.7339Z" fill="#D95E00"/>
<path d="M10.085 4.40802C10.9832 4.40437 11.8613 4.67319 12.6035 5.17899C13.3456 5.68478 13.917 6.40377 14.242 7.24102C14.2729 7.32745 14.3209 7.4068 14.383 7.47437C14.4452 7.54193 14.5203 7.59633 14.6038 7.63435C14.6874 7.67237 14.7777 7.69323 14.8695 7.69571C14.9612 7.69818 15.0526 7.6822 15.1381 7.64874C15.2235 7.61527 15.3014 7.56498 15.3671 7.50086C15.4328 7.43674 15.485 7.36008 15.5205 7.27544C15.556 7.19079 15.5742 7.09988 15.5739 7.00808C15.5737 6.91628 15.555 6.82547 15.519 6.74102C15.0898 5.64998 14.3419 4.71349 13.3729 4.05354C12.4038 3.39359 11.2585 3.04076 10.086 3.04102C9.99594 3.04102 9.90673 3.05876 9.8235 3.09324C9.74027 3.12771 9.66465 3.17824 9.60095 3.24194C9.53725 3.30564 9.48671 3.38126 9.45224 3.46449C9.41777 3.54772 9.40002 3.63693 9.40002 3.72702C9.40002 3.8171 9.41777 3.90631 9.45224 3.98954C9.48671 4.07277 9.53725 4.14839 9.60095 4.21209C9.66465 4.27579 9.74027 4.32632 9.8235 4.36079C9.90673 4.39527 9.99594 4.41301 10.086 4.41301L10.085 4.40802Z" fill="#D95E00"/>
<path d="M15.3671 8.17088C15.2453 8.19519 15.1323 8.2521 15.0404 8.33555C14.9484 8.41899 14.8808 8.52585 14.8448 8.6447C14.8088 8.76355 14.8057 8.88995 14.8359 9.01042C14.8661 9.13088 14.9284 9.24088 15.0162 9.3287C15.104 9.41651 15.2141 9.47884 15.3345 9.50903C15.455 9.53923 15.5814 9.53616 15.7002 9.50015C15.8191 9.46413 15.9259 9.39654 16.0094 9.30456C16.0928 9.21258 16.1497 9.09968 16.174 8.97789C16.1949 8.86738 16.1884 8.75346 16.1552 8.64601C16.122 8.53857 16.0631 8.44085 15.9836 8.36133C15.9041 8.28181 15.8064 8.2229 15.6989 8.18971C15.5915 8.15653 15.4776 8.15006 15.3671 8.17088Z" fill="#D95E00"/>
</svg>
