<svg width="37" height="35" viewBox="0 0 37 35" fill="none" xmlns="http://www.w3.org/2000/svg">
<path d="M7.36901 24.312C7.22685 24.312 7.09053 24.3685 6.99001 24.469C6.88949 24.5695 6.83301 24.7059 6.83301 24.848V25.548C6.83301 25.6903 6.88954 25.8268 6.99015 25.9274C7.09076 26.028 7.22723 26.0845 7.36951 26.0845C7.5118 26.0845 7.64826 26.028 7.74887 25.9274C7.84948 25.8268 7.90601 25.6903 7.90601 25.548V24.848C7.90601 24.7776 7.89211 24.7078 7.86511 24.6427C7.83811 24.5776 7.79854 24.5184 7.74866 24.4687C7.69879 24.4189 7.63959 24.3794 7.57444 24.3525C7.50929 24.3257 7.43948 24.3119 7.36901 24.312Z" fill="#801919"/>
<path d="M15.11 24.312C14.9679 24.312 14.8316 24.3685 14.731 24.469C14.6305 24.5695 14.574 24.7059 14.574 24.848V25.548C14.574 25.6903 14.6306 25.8268 14.7312 25.9274C14.8318 26.028 14.9682 26.0845 15.1105 26.0845C15.2528 26.0845 15.3893 26.028 15.4899 25.9274C15.5905 25.8268 15.647 25.6903 15.647 25.548V24.848C15.647 24.7776 15.6331 24.7078 15.6061 24.6427C15.5791 24.5776 15.5396 24.5184 15.4897 24.4687C15.4398 24.4189 15.3806 24.3794 15.3155 24.3525C15.2503 24.3257 15.1805 24.3119 15.11 24.312Z" fill="#801919"/>
<path d="M12.769 25.1459C12.716 25.0994 12.6543 25.0639 12.5876 25.0414C12.5208 25.0188 12.4502 25.0097 12.3799 25.0144C12.3096 25.0191 12.2409 25.0377 12.1778 25.069C12.1147 25.1003 12.0583 25.1438 12.012 25.1969C11.9136 25.3029 11.7944 25.3875 11.6618 25.4454C11.5293 25.5032 11.3862 25.5331 11.2415 25.5331C11.0969 25.5331 10.9538 25.5032 10.8212 25.4454C10.6886 25.3875 10.5694 25.3029 10.471 25.1969C10.3774 25.0897 10.245 25.0241 10.1031 25.0146C9.96112 25.005 9.82116 25.0522 9.71401 25.1459C9.60687 25.2395 9.5413 25.3719 9.53173 25.5138C9.52217 25.6558 9.5694 25.7957 9.66302 25.9029C9.8621 26.1241 10.1054 26.301 10.3773 26.422C10.6491 26.5431 10.9434 26.6056 11.241 26.6056C11.5386 26.6056 11.8329 26.5431 12.1047 26.422C12.3766 26.301 12.6199 26.1241 12.819 25.9029C12.9126 25.7958 12.9599 25.656 12.9506 25.514C12.9412 25.3721 12.8759 25.2397 12.769 25.1459Z" fill="#801919"/>
<path d="M34.527 16.305H32.383C32.2407 16.305 32.1043 16.3615 32.0036 16.4621C31.903 16.5627 31.8465 16.6992 31.8465 16.8415C31.8465 16.9837 31.903 17.1202 32.0036 17.2208C32.1043 17.3214 32.2407 17.378 32.383 17.378H34.522C34.7141 17.3812 34.9032 17.4262 35.0761 17.5099C35.249 17.5936 35.4015 17.714 35.5232 17.8626C35.6448 18.0113 35.7326 18.1847 35.7804 18.3708C35.8282 18.5568 35.8349 18.7511 35.8 18.94L33.083 32.419C32.9998 32.8242 32.7796 33.1883 32.4594 33.4502C32.1393 33.7121 31.7387 33.8558 31.325 33.857H24.189C23.7754 33.8558 23.3748 33.7121 23.0546 33.4502C22.7344 33.1883 22.5142 32.8242 22.431 32.419L22.017 30.37C22.0237 30.3126 22.03 30.2546 22.036 30.196C22.057 29.996 22.076 29.787 22.093 29.567C22.16 28.687 22.193 27.634 22.2 26.325C22.2 26.2156 22.2 26.1046 22.2 25.992C22.2 25.977 22.2 25.963 22.2 25.948L23.464 32.209C23.4983 32.3761 23.5891 32.5263 23.7211 32.6343C23.8532 32.7423 24.0184 32.8015 24.189 32.802H31.324C31.4946 32.8015 31.6598 32.7423 31.7919 32.6343C31.924 32.5263 32.0148 32.3761 32.049 32.209L33.756 23.759C33.771 23.6811 33.7686 23.601 33.7492 23.5242C33.7297 23.4473 33.6936 23.3757 33.6435 23.3144C33.5933 23.2531 33.5302 23.2035 33.4588 23.1692C33.3874 23.1349 33.3093 23.1167 33.23 23.116H22.283C22.1676 23.1162 22.0554 23.1538 21.963 23.223C21.8206 22.4244 21.6026 21.6413 21.312 20.884C20.924 19.8979 20.4262 18.9587 19.828 18.084C19.9374 17.8709 20.1036 17.6923 20.3081 17.5677C20.5126 17.4431 20.7475 17.3775 20.987 17.378H30.242C30.3843 17.378 30.5208 17.3214 30.6214 17.2208C30.722 17.1202 30.7785 16.9837 30.7785 16.8415C30.7785 16.6992 30.722 16.5627 30.6214 16.4621C30.5208 16.3615 30.3843 16.305 30.242 16.305H20.983C20.6349 16.3036 20.2908 16.3792 19.9753 16.5263C19.6598 16.6734 19.3807 16.8884 19.158 17.156C18.809 16.695 18.451 16.256 18.097 15.815C16.297 13.592 14.735 11.661 15.09 8.09696C15.4587 7.99712 15.7874 7.78543 16.0308 7.49102C16.2742 7.19662 16.4203 6.834 16.449 6.4531C16.4778 6.0722 16.3877 5.69176 16.1912 5.36417C15.9948 5.03659 15.7016 4.77798 15.352 4.62396C15.5533 4.18401 15.6491 3.70313 15.6318 3.21962C15.6144 2.73611 15.4844 2.26333 15.252 1.83896C14.613 0.80596 13.265 0.282959 11.243 0.282959C9.22101 0.282959 7.87301 0.80696 7.23401 1.83896C7.00165 2.26333 6.87161 2.73611 6.85425 3.21962C6.83689 3.70313 6.93269 4.18401 7.13401 4.62396C6.78471 4.77765 6.4916 5.03576 6.29495 5.36281C6.09831 5.68986 6.0078 6.06979 6.03586 6.45037C6.06392 6.83095 6.20918 7.19349 6.45166 7.48817C6.69414 7.78284 7.02195 7.99516 7.39001 8.09596C7.74501 11.661 6.18301 13.596 4.38301 15.815C3.12079 17.2387 2.07951 18.844 1.29401 20.577C0.597101 22.2972 0.253284 24.1401 0.283012 25.996C0.266334 27.3978 0.321071 28.7997 0.447012 30.196C0.647012 32.086 1.05601 33.248 1.77701 33.964C2.21413 34.3255 2.71848 34.597 3.26099 34.7628C3.8035 34.9286 4.37345 34.9854 4.93801 34.93H17.545C18.1096 34.9854 18.6795 34.9286 19.222 34.7628C19.7645 34.597 20.2689 34.3255 20.706 33.964C21.018 33.6453 21.2655 33.2694 21.435 32.857C21.6085 33.4536 21.9706 33.9781 22.467 34.3518C22.9635 34.7255 23.5676 34.9283 24.189 34.93H31.324C31.9855 34.9284 32.6262 34.6987 33.1381 34.2797C33.65 33.8608 34.0017 33.2781 34.134 32.63L36.856 19.151C36.9212 18.8065 36.9101 18.452 36.8236 18.1124C36.7371 17.7727 36.5772 17.4561 36.3552 17.1848C36.1332 16.9136 35.8545 16.6942 35.5387 16.5422C35.2228 16.3902 34.8775 16.3092 34.527 16.305ZM32.574 24.19L31.051 31.73H24.461L22.938 24.19H32.574ZM8.14501 2.40396C8.56901 1.71896 9.64001 1.35596 11.245 1.35596C12.85 1.35596 13.918 1.71796 14.345 2.40396C14.4968 2.72893 14.5694 3.08528 14.5567 3.44375C14.544 3.80221 14.4464 4.15254 14.272 4.46596H8.21801C8.04359 4.15254 7.94602 3.80221 7.93333 3.44375C7.92064 3.08528 7.99319 2.72893 8.14501 2.40396ZM7.10001 6.31396C7.10028 6.1085 7.18201 5.91153 7.3273 5.76624C7.47258 5.62096 7.66955 5.53922 7.87501 5.53896H14.608C14.8136 5.53896 15.0107 5.62061 15.156 5.76595C15.3014 5.91129 15.383 6.10842 15.383 6.31396C15.383 6.5195 15.3014 6.71663 15.156 6.86197C15.0107 7.00731 14.8136 7.08896 14.608 7.08896H7.87501C7.66955 7.0887 7.47258 7.00696 7.3273 6.86167C7.18201 6.71639 7.10028 6.51942 7.10001 6.31396ZM5.21701 16.49C7.06101 14.212 8.80801 12.054 8.47401 8.16196H14.009C13.675 12.054 15.422 14.212 17.266 16.49C18.2639 17.6438 19.1328 18.9033 19.857 20.246H18.663C18.0156 19.1528 17.2745 18.1179 16.448 17.153C15.5338 16.0961 14.7296 14.9489 14.048 13.729C14.0028 13.6418 13.9344 13.5688 13.8505 13.5178C13.7665 13.4668 13.6702 13.4399 13.572 13.44H8.91101C8.81281 13.4399 8.71648 13.4668 8.63254 13.5178C8.54859 13.5688 8.48027 13.6418 8.43501 13.729C7.75342 14.9489 6.94927 16.0961 6.03501 17.153C5.20893 18.118 4.46816 19.1529 3.82101 20.246H2.62101C3.34406 18.9014 4.21478 17.6416 5.21701 16.49ZM17.417 20.246H5.06701C5.61782 19.4048 6.21891 18.5977 6.86701 17.829C7.75216 16.7968 8.54299 15.6874 9.23001 14.514H13.249C13.9361 15.6873 14.7269 16.7968 15.612 17.829C16.2619 18.5975 16.8646 19.4046 17.417 20.246ZM19.95 33.203C19.6133 33.4673 19.2269 33.6614 18.8138 33.7737C18.4007 33.8861 17.9692 33.9144 17.545 33.857H4.93801C4.51377 33.9144 4.08233 33.8861 3.66922 33.7737C3.25612 33.6614 2.86976 33.4673 2.53301 33.203C1.9621 32.4798 1.63011 31.5971 1.58301 30.677H2.65301C2.71328 31.1831 2.85018 31.677 3.05901 32.142C3.14807 32.3562 3.31645 32.5279 3.52901 32.621C3.98331 32.7686 4.46107 32.8306 4.93801 32.804H17.545C18.0223 32.8308 18.5004 32.7687 18.955 32.621C19.1676 32.5279 19.336 32.3562 19.425 32.142C19.6338 31.677 19.7707 31.1831 19.831 30.677H20.896C20.8501 31.5967 20.5195 32.4794 19.95 33.203ZM3.74001 30.677H18.74C18.6949 31.014 18.6024 31.3429 18.465 31.654C18.1615 31.7162 17.8516 31.7417 17.542 31.73H4.93801C4.62841 31.7417 4.31852 31.7162 4.01501 31.654C3.87759 31.3429 3.785 31.014 3.74001 30.677ZM21.014 29.604H1.46901C1.39201 28.658 1.35601 27.494 1.35601 25.993C1.33298 24.399 1.60418 22.8145 2.15601 21.319H20.329C20.348 21.37 20.367 21.419 20.386 21.473C20.892 22.9256 21.1431 24.4548 21.128 25.993C21.128 27.196 21.112 28.402 21.014 29.604Z" fill="#801919"/>
</svg>
