<svg width="11" height="15" viewBox="0 0 11 15" fill="none" xmlns="http://www.w3.org/2000/svg">
<path d="M9.986 8.222C9.83032 8.222 9.68101 8.28384 9.57093 8.39393C9.46084 8.50401 9.399 8.65332 9.399 8.809V11.745H7.047V2.345C7.04696 2.21858 7.00618 2.09555 6.9307 1.99414C6.85523 1.89272 6.74908 1.81833 6.628 1.782L4.586 1.175H9.396V4.111C9.396 4.26668 9.45784 4.41599 9.56793 4.52607C9.67801 4.63616 9.82732 4.698 9.983 4.698C10.1387 4.698 10.288 4.63616 10.3981 4.52607C10.5082 4.41599 10.57 4.26668 10.57 4.111V0.587C10.57 0.431836 10.5086 0.282983 10.3991 0.172985C10.2897 0.0629874 10.1412 0.000793 9.986 0L0.586 0C0.565803 0.0024962 0.545769 0.00616911 0.526 0.011C0.4376 0.021248 0.352744 0.0517004 0.278 0.1C0.265 0.106 0.249 0.107 0.237 0.116C0.225 0.125 0.23 0.126 0.225 0.13C0.160612 0.180055 0.107464 0.243084 0.0690001 0.315C0.0627587 0.331362 0.0574174 0.348054 0.0530001 0.365C0.0316002 0.407795 0.0158034 0.453168 0.00600012 0.5C0.00481425 0.516979 0.00481425 0.534021 0.00600012 0.551C0.00800012 0.565 1.19947e-07 0.576 1.19947e-07 0.587V12.332C-8.66483e-05 12.4678 0.0469042 12.5994 0.132968 12.7044C0.219032 12.8095 0.338846 12.8814 0.472 12.908L6.344 14.083C6.3818 14.0911 6.42035 14.0951 6.459 14.095C6.6146 14.0947 6.76375 14.0328 6.87378 13.9228C6.98381 13.8128 7.04574 13.6636 7.046 13.508V12.92H9.986C10.1417 12.92 10.291 12.8582 10.4011 12.7481C10.5112 12.638 10.573 12.4887 10.573 12.333V8.809C10.573 8.65332 10.5112 8.50401 10.4011 8.39393C10.291 8.28384 10.1417 8.222 9.986 8.222Z" fill="white"/>
</svg>
