<svg width="198" height="65" viewBox="0 0 198 65" fill="none" xmlns="http://www.w3.org/2000/svg">
<path d="M80.225 56.413C80.225 57.057 80.123 57.649 79.919 58.189C79.715 58.725 79.427 59.187 79.055 59.575C78.683 59.963 78.235 60.265 77.711 60.481C77.191 60.693 76.615 60.799 75.983 60.799C75.351 60.799 74.775 60.693 74.255 60.481C73.735 60.265 73.289 59.963 72.917 59.575C72.545 59.187 72.257 58.725 72.053 58.189C71.849 57.649 71.747 57.057 71.747 56.413C71.747 55.769 71.849 55.179 72.053 54.643C72.257 54.103 72.545 53.639 72.917 53.251C73.289 52.859 73.735 52.555 74.255 52.339C74.775 52.123 75.351 52.015 75.983 52.015C76.615 52.015 77.191 52.123 77.711 52.339C78.235 52.555 78.683 52.859 79.055 53.251C79.427 53.639 79.715 54.103 79.919 54.643C80.123 55.179 80.225 55.769 80.225 56.413ZM79.031 56.413C79.031 55.885 78.959 55.411 78.815 54.991C78.671 54.571 78.467 54.217 78.203 53.929C77.939 53.637 77.619 53.413 77.243 53.257C76.867 53.101 76.447 53.023 75.983 53.023C75.523 53.023 75.105 53.101 74.729 53.257C74.353 53.413 74.031 53.637 73.763 53.929C73.499 54.217 73.295 54.571 73.151 54.991C73.007 55.411 72.935 55.885 72.935 56.413C72.935 56.941 73.007 57.415 73.151 57.835C73.295 58.251 73.499 58.605 73.763 58.897C74.031 59.185 74.353 59.407 74.729 59.563C75.105 59.715 75.523 59.791 75.983 59.791C76.447 59.791 76.867 59.715 77.243 59.563C77.619 59.407 77.939 59.185 78.203 58.897C78.467 58.605 78.671 58.251 78.815 57.835C78.959 57.415 79.031 56.941 79.031 56.413ZM82.5292 55.513C82.6612 55.365 82.8012 55.231 82.9492 55.111C83.0972 54.991 83.2532 54.889 83.4172 54.805C83.5852 54.717 83.7612 54.651 83.9452 54.607C84.1332 54.559 84.3352 54.535 84.5512 54.535C84.8832 54.535 85.1752 54.591 85.4272 54.703C85.6832 54.811 85.8952 54.967 86.0632 55.171C86.2352 55.371 86.3652 55.613 86.4532 55.897C86.5412 56.181 86.5852 56.495 86.5852 56.839V60.709H85.5112V56.839C85.5112 56.379 85.4052 56.023 85.1932 55.771C84.9852 55.515 84.6672 55.387 84.2392 55.387C83.9232 55.387 83.6272 55.463 83.3512 55.615C83.0792 55.767 82.8272 55.973 82.5952 56.233V60.709H81.5212V54.631H82.1632C82.3152 54.631 82.4092 54.705 82.4452 54.853L82.5292 55.513ZM89.3166 51.871V60.709H88.2486V51.871H89.3166ZM92.1765 54.631V60.709H91.1085V54.631H92.1765ZM92.4045 52.723C92.4045 52.827 92.3825 52.925 92.3385 53.017C92.2985 53.105 92.2425 53.185 92.1705 53.257C92.1025 53.325 92.0205 53.379 91.9245 53.419C91.8325 53.459 91.7345 53.479 91.6305 53.479C91.5265 53.479 91.4285 53.459 91.3365 53.419C91.2485 53.379 91.1705 53.325 91.1025 53.257C91.0345 53.185 90.9805 53.105 90.9405 53.017C90.9005 52.925 90.8805 52.827 90.8805 52.723C90.8805 52.619 90.9005 52.521 90.9405 52.429C90.9805 52.333 91.0345 52.251 91.1025 52.183C91.1705 52.111 91.2485 52.055 91.3365 52.015C91.4285 51.975 91.5265 51.955 91.6305 51.955C91.7345 51.955 91.8325 51.975 91.9245 52.015C92.0205 52.055 92.1025 52.111 92.1705 52.183C92.2425 52.251 92.2985 52.333 92.3385 52.429C92.3825 52.521 92.4045 52.619 92.4045 52.723ZM94.9394 55.513C95.0714 55.365 95.2114 55.231 95.3594 55.111C95.5074 54.991 95.6634 54.889 95.8274 54.805C95.9954 54.717 96.1714 54.651 96.3554 54.607C96.5434 54.559 96.7454 54.535 96.9614 54.535C97.2934 54.535 97.5854 54.591 97.8374 54.703C98.0934 54.811 98.3054 54.967 98.4734 55.171C98.6454 55.371 98.7754 55.613 98.8634 55.897C98.9514 56.181 98.9954 56.495 98.9954 56.839V60.709H97.9214V56.839C97.9214 56.379 97.8154 56.023 97.6034 55.771C97.3954 55.515 97.0774 55.387 96.6494 55.387C96.3334 55.387 96.0374 55.463 95.7614 55.615C95.4894 55.767 95.2374 55.973 95.0054 56.233V60.709H93.9314V54.631H94.5734C94.7254 54.631 94.8194 54.705 94.8554 54.853L94.9394 55.513ZM104.691 57.007C104.691 56.759 104.655 56.533 104.583 56.329C104.515 56.121 104.413 55.943 104.277 55.795C104.145 55.643 103.983 55.527 103.791 55.447C103.599 55.363 103.381 55.321 103.137 55.321C102.625 55.321 102.219 55.471 101.919 55.771C101.623 56.067 101.439 56.479 101.367 57.007H104.691ZM105.555 59.857C105.423 60.017 105.265 60.157 105.081 60.277C104.897 60.393 104.699 60.489 104.487 60.565C104.279 60.641 104.063 60.697 103.839 60.733C103.615 60.773 103.393 60.793 103.173 60.793C102.753 60.793 102.365 60.723 102.009 60.583C101.657 60.439 101.351 60.231 101.091 59.959C100.835 59.683 100.635 59.343 100.491 58.939C100.347 58.535 100.275 58.071 100.275 57.547C100.275 57.123 100.339 56.727 100.467 56.359C100.599 55.991 100.787 55.673 101.031 55.405C101.275 55.133 101.573 54.921 101.925 54.769C102.277 54.613 102.673 54.535 103.113 54.535C103.477 54.535 103.813 54.597 104.121 54.721C104.433 54.841 104.701 55.017 104.925 55.249C105.153 55.477 105.331 55.761 105.459 56.101C105.587 56.437 105.651 56.821 105.651 57.253C105.651 57.421 105.633 57.533 105.597 57.589C105.561 57.645 105.493 57.673 105.393 57.673H101.331C101.343 58.057 101.395 58.391 101.487 58.675C101.583 58.959 101.715 59.197 101.883 59.389C102.051 59.577 102.251 59.719 102.483 59.815C102.715 59.907 102.975 59.953 103.263 59.953C103.531 59.953 103.761 59.923 103.953 59.863C104.149 59.799 104.317 59.731 104.457 59.659C104.597 59.587 104.713 59.521 104.805 59.461C104.901 59.397 104.983 59.365 105.051 59.365C105.139 59.365 105.207 59.399 105.255 59.467L105.555 59.857ZM117.269 56.575V59.875C116.837 60.187 116.375 60.421 115.883 60.577C115.395 60.729 114.859 60.805 114.275 60.805C113.583 60.805 112.959 60.699 112.403 60.487C111.847 60.271 111.371 59.971 110.975 59.587C110.583 59.199 110.281 58.735 110.069 58.195C109.857 57.655 109.751 57.061 109.751 56.413C109.751 55.757 109.853 55.159 110.057 54.619C110.265 54.079 110.559 53.617 110.939 53.233C111.319 52.845 111.781 52.545 112.325 52.333C112.869 52.121 113.477 52.015 114.149 52.015C114.489 52.015 114.805 52.041 115.097 52.093C115.389 52.141 115.659 52.213 115.907 52.309C116.155 52.401 116.385 52.515 116.597 52.651C116.809 52.783 117.007 52.933 117.191 53.101L116.861 53.629C116.809 53.709 116.741 53.761 116.657 53.785C116.577 53.805 116.487 53.785 116.387 53.725C116.291 53.669 116.181 53.601 116.057 53.521C115.933 53.441 115.781 53.365 115.601 53.293C115.425 53.217 115.215 53.153 114.971 53.101C114.731 53.049 114.445 53.023 114.113 53.023C113.629 53.023 113.191 53.103 112.799 53.263C112.407 53.419 112.073 53.645 111.797 53.941C111.521 54.233 111.309 54.589 111.161 55.009C111.013 55.425 110.939 55.893 110.939 56.413C110.939 56.953 111.015 57.437 111.167 57.865C111.323 58.289 111.543 58.651 111.827 58.951C112.115 59.247 112.463 59.473 112.871 59.629C113.279 59.785 113.737 59.863 114.245 59.863C114.645 59.863 114.999 59.819 115.307 59.731C115.619 59.639 115.923 59.513 116.219 59.353V57.463H114.881C114.805 57.463 114.743 57.441 114.695 57.397C114.651 57.353 114.629 57.299 114.629 57.235V56.575H117.269ZM119.719 55.849C119.911 55.433 120.147 55.109 120.427 54.877C120.707 54.641 121.049 54.523 121.453 54.523C121.581 54.523 121.703 54.537 121.819 54.565C121.939 54.593 122.045 54.637 122.137 54.697L122.059 55.495C122.035 55.595 121.975 55.645 121.879 55.645C121.823 55.645 121.741 55.633 121.633 55.609C121.525 55.585 121.403 55.573 121.267 55.573C121.075 55.573 120.903 55.601 120.751 55.657C120.603 55.713 120.469 55.797 120.349 55.909C120.233 56.017 120.127 56.153 120.031 56.317C119.939 56.477 119.855 56.661 119.779 56.869V60.709H118.705V54.631H119.317C119.433 54.631 119.513 54.653 119.557 54.697C119.601 54.741 119.631 54.817 119.647 54.925L119.719 55.849ZM125.392 54.535C125.836 54.535 126.236 54.609 126.592 54.757C126.948 54.905 127.252 55.115 127.504 55.387C127.756 55.659 127.948 55.989 128.08 56.377C128.216 56.761 128.284 57.191 128.284 57.667C128.284 58.147 128.216 58.579 128.08 58.963C127.948 59.347 127.756 59.675 127.504 59.947C127.252 60.219 126.948 60.429 126.592 60.577C126.236 60.721 125.836 60.793 125.392 60.793C124.944 60.793 124.54 60.721 124.18 60.577C123.824 60.429 123.52 60.219 123.268 59.947C123.016 59.675 122.822 59.347 122.686 58.963C122.554 58.579 122.488 58.147 122.488 57.667C122.488 57.191 122.554 56.761 122.686 56.377C122.822 55.989 123.016 55.659 123.268 55.387C123.52 55.115 123.824 54.905 124.18 54.757C124.54 54.609 124.944 54.535 125.392 54.535ZM125.392 59.959C125.992 59.959 126.44 59.759 126.736 59.359C127.032 58.955 127.18 58.393 127.18 57.673C127.18 56.949 127.032 56.385 126.736 55.981C126.44 55.577 125.992 55.375 125.392 55.375C125.088 55.375 124.822 55.427 124.594 55.531C124.37 55.635 124.182 55.785 124.03 55.981C123.882 56.177 123.77 56.419 123.694 56.707C123.622 56.991 123.586 57.313 123.586 57.673C123.586 58.393 123.734 58.955 124.03 59.359C124.33 59.759 124.784 59.959 125.392 59.959ZM133.868 55.711C133.836 55.755 133.804 55.789 133.772 55.813C133.74 55.837 133.696 55.849 133.64 55.849C133.58 55.849 133.514 55.825 133.442 55.777C133.37 55.725 133.28 55.669 133.172 55.609C133.068 55.549 132.938 55.495 132.782 55.447C132.63 55.395 132.442 55.369 132.218 55.369C131.918 55.369 131.654 55.423 131.426 55.531C131.198 55.635 131.006 55.787 130.85 55.987C130.698 56.187 130.582 56.429 130.502 56.713C130.426 56.997 130.388 57.315 130.388 57.667C130.388 58.035 130.43 58.363 130.514 58.651C130.598 58.935 130.716 59.175 130.868 59.371C131.024 59.563 131.21 59.711 131.426 59.815C131.646 59.915 131.892 59.965 132.164 59.965C132.424 59.965 132.638 59.935 132.806 59.875C132.974 59.811 133.112 59.741 133.22 59.665C133.332 59.589 133.424 59.521 133.496 59.461C133.572 59.397 133.646 59.365 133.718 59.365C133.806 59.365 133.874 59.399 133.922 59.467L134.222 59.857C134.09 60.021 133.94 60.161 133.772 60.277C133.604 60.393 133.422 60.491 133.226 60.571C133.034 60.647 132.832 60.703 132.62 60.739C132.408 60.775 132.192 60.793 131.972 60.793C131.592 60.793 131.238 60.723 130.91 60.583C130.586 60.443 130.304 60.241 130.064 59.977C129.824 59.709 129.636 59.381 129.5 58.993C129.364 58.605 129.296 58.163 129.296 57.667C129.296 57.215 129.358 56.797 129.482 56.413C129.61 56.029 129.794 55.699 130.034 55.423C130.278 55.143 130.576 54.925 130.928 54.769C131.284 54.613 131.692 54.535 132.152 54.535C132.58 54.535 132.956 54.605 133.28 54.745C133.608 54.881 133.898 55.075 134.15 55.327L133.868 55.711ZM139.331 57.007C139.331 56.759 139.295 56.533 139.223 56.329C139.155 56.121 139.053 55.943 138.917 55.795C138.785 55.643 138.623 55.527 138.431 55.447C138.239 55.363 138.021 55.321 137.777 55.321C137.265 55.321 136.859 55.471 136.559 55.771C136.263 56.067 136.079 56.479 136.007 57.007H139.331ZM140.195 59.857C140.063 60.017 139.905 60.157 139.721 60.277C139.537 60.393 139.339 60.489 139.127 60.565C138.919 60.641 138.703 60.697 138.479 60.733C138.255 60.773 138.033 60.793 137.813 60.793C137.393 60.793 137.005 60.723 136.649 60.583C136.297 60.439 135.991 60.231 135.731 59.959C135.475 59.683 135.275 59.343 135.131 58.939C134.987 58.535 134.915 58.071 134.915 57.547C134.915 57.123 134.979 56.727 135.107 56.359C135.239 55.991 135.427 55.673 135.671 55.405C135.915 55.133 136.213 54.921 136.565 54.769C136.917 54.613 137.313 54.535 137.753 54.535C138.117 54.535 138.453 54.597 138.761 54.721C139.073 54.841 139.341 55.017 139.565 55.249C139.793 55.477 139.971 55.761 140.099 56.101C140.227 56.437 140.291 56.821 140.291 57.253C140.291 57.421 140.273 57.533 140.237 57.589C140.201 57.645 140.133 57.673 140.033 57.673H135.971C135.983 58.057 136.035 58.391 136.127 58.675C136.223 58.959 136.355 59.197 136.523 59.389C136.691 59.577 136.891 59.719 137.123 59.815C137.355 59.907 137.615 59.953 137.903 59.953C138.171 59.953 138.401 59.923 138.593 59.863C138.789 59.799 138.957 59.731 139.097 59.659C139.237 59.587 139.353 59.521 139.445 59.461C139.541 59.397 139.623 59.365 139.691 59.365C139.779 59.365 139.847 59.399 139.895 59.467L140.195 59.857ZM142.617 55.849C142.809 55.433 143.045 55.109 143.325 54.877C143.605 54.641 143.947 54.523 144.351 54.523C144.479 54.523 144.601 54.537 144.717 54.565C144.837 54.593 144.943 54.637 145.035 54.697L144.957 55.495C144.933 55.595 144.873 55.645 144.777 55.645C144.721 55.645 144.639 55.633 144.531 55.609C144.423 55.585 144.301 55.573 144.165 55.573C143.973 55.573 143.801 55.601 143.649 55.657C143.501 55.713 143.367 55.797 143.247 55.909C143.131 56.017 143.025 56.153 142.929 56.317C142.837 56.477 142.753 56.661 142.677 56.869V60.709H141.603V54.631H142.215C142.331 54.631 142.411 54.653 142.455 54.697C142.499 54.741 142.529 54.817 142.545 54.925L142.617 55.849ZM151.218 54.631L147.828 62.503C147.792 62.583 147.746 62.647 147.69 62.695C147.638 62.743 147.556 62.767 147.444 62.767H146.652L147.762 60.355L145.254 54.631H146.178C146.27 54.631 146.342 54.655 146.394 54.703C146.45 54.747 146.488 54.797 146.508 54.853L148.134 58.681C148.198 58.849 148.252 59.025 148.296 59.209C148.352 59.021 148.412 58.843 148.476 58.675L150.054 54.853C150.078 54.789 150.118 54.737 150.174 54.697C150.234 54.653 150.3 54.631 150.372 54.631H151.218ZM159.589 53.455C159.553 53.515 159.513 53.561 159.469 53.593C159.429 53.621 159.379 53.635 159.319 53.635C159.251 53.635 159.171 53.601 159.079 53.533C158.987 53.465 158.871 53.391 158.731 53.311C158.595 53.227 158.429 53.151 158.233 53.083C158.041 53.015 157.807 52.981 157.531 52.981C157.271 52.981 157.041 53.017 156.841 53.089C156.645 53.157 156.479 53.251 156.343 53.371C156.211 53.491 156.111 53.633 156.043 53.797C155.975 53.957 155.941 54.131 155.941 54.319C155.941 54.559 155.999 54.759 156.115 54.919C156.235 55.075 156.391 55.209 156.583 55.321C156.779 55.433 156.999 55.531 157.243 55.615C157.491 55.695 157.743 55.779 157.999 55.867C158.259 55.955 158.511 56.055 158.755 56.167C159.003 56.275 159.223 56.413 159.415 56.581C159.611 56.749 159.767 56.955 159.883 57.199C160.003 57.443 160.063 57.743 160.063 58.099C160.063 58.475 159.999 58.829 159.871 59.161C159.743 59.489 159.555 59.775 159.307 60.019C159.063 60.263 158.761 60.455 158.401 60.595C158.045 60.735 157.639 60.805 157.183 60.805C156.623 60.805 156.115 60.705 155.659 60.505C155.203 60.301 154.813 60.027 154.489 59.683L154.825 59.131C154.857 59.087 154.895 59.051 154.939 59.023C154.987 58.991 155.039 58.975 155.095 58.975C155.147 58.975 155.205 58.997 155.269 59.041C155.337 59.081 155.413 59.133 155.497 59.197C155.581 59.261 155.677 59.331 155.785 59.407C155.893 59.483 156.015 59.553 156.151 59.617C156.291 59.681 156.449 59.735 156.625 59.779C156.801 59.819 156.999 59.839 157.219 59.839C157.495 59.839 157.741 59.801 157.957 59.725C158.173 59.649 158.355 59.543 158.503 59.407C158.655 59.267 158.771 59.101 158.851 58.909C158.931 58.717 158.971 58.503 158.971 58.267C158.971 58.007 158.911 57.795 158.791 57.631C158.675 57.463 158.521 57.323 158.329 57.211C158.137 57.099 157.917 57.005 157.669 56.929C157.421 56.849 157.169 56.769 156.913 56.689C156.657 56.605 156.405 56.509 156.157 56.401C155.909 56.293 155.689 56.153 155.497 55.981C155.305 55.809 155.149 55.595 155.029 55.339C154.913 55.079 154.855 54.759 154.855 54.379C154.855 54.075 154.913 53.781 155.029 53.497C155.149 53.213 155.321 52.961 155.545 52.741C155.773 52.521 156.051 52.345 156.379 52.213C156.711 52.081 157.091 52.015 157.519 52.015C157.999 52.015 158.435 52.091 158.827 52.243C159.223 52.395 159.571 52.615 159.871 52.903L159.589 53.455ZM162.423 55.441C162.683 55.165 162.971 54.945 163.287 54.781C163.603 54.617 163.967 54.535 164.379 54.535C164.711 54.535 165.003 54.591 165.255 54.703C165.511 54.811 165.723 54.967 165.891 55.171C166.063 55.371 166.193 55.613 166.281 55.897C166.369 56.181 166.413 56.495 166.413 56.839V60.709H165.339V56.839C165.339 56.379 165.233 56.023 165.021 55.771C164.813 55.515 164.495 55.387 164.067 55.387C163.751 55.387 163.455 55.463 163.179 55.615C162.907 55.767 162.655 55.973 162.423 56.233V60.709H161.349V51.871H162.423V55.441ZM170.603 54.535C171.047 54.535 171.447 54.609 171.803 54.757C172.159 54.905 172.463 55.115 172.715 55.387C172.967 55.659 173.159 55.989 173.291 56.377C173.427 56.761 173.495 57.191 173.495 57.667C173.495 58.147 173.427 58.579 173.291 58.963C173.159 59.347 172.967 59.675 172.715 59.947C172.463 60.219 172.159 60.429 171.803 60.577C171.447 60.721 171.047 60.793 170.603 60.793C170.155 60.793 169.751 60.721 169.391 60.577C169.035 60.429 168.731 60.219 168.479 59.947C168.227 59.675 168.033 59.347 167.897 58.963C167.765 58.579 167.699 58.147 167.699 57.667C167.699 57.191 167.765 56.761 167.897 56.377C168.033 55.989 168.227 55.659 168.479 55.387C168.731 55.115 169.035 54.905 169.391 54.757C169.751 54.609 170.155 54.535 170.603 54.535ZM170.603 59.959C171.203 59.959 171.651 59.759 171.947 59.359C172.243 58.955 172.391 58.393 172.391 57.673C172.391 56.949 172.243 56.385 171.947 55.981C171.651 55.577 171.203 55.375 170.603 55.375C170.299 55.375 170.033 55.427 169.805 55.531C169.581 55.635 169.393 55.785 169.241 55.981C169.093 56.177 168.981 56.419 168.905 56.707C168.833 56.991 168.797 57.313 168.797 57.673C168.797 58.393 168.945 58.955 169.241 59.359C169.541 59.759 169.995 59.959 170.603 59.959ZM175.923 59.245C176.119 59.509 176.333 59.695 176.565 59.803C176.797 59.911 177.057 59.965 177.345 59.965C177.913 59.965 178.349 59.763 178.653 59.359C178.957 58.955 179.109 58.379 179.109 57.631C179.109 57.235 179.073 56.895 179.001 56.611C178.933 56.327 178.833 56.095 178.701 55.915C178.569 55.731 178.407 55.597 178.215 55.513C178.023 55.429 177.805 55.387 177.561 55.387C177.213 55.387 176.907 55.467 176.643 55.627C176.383 55.787 176.143 56.013 175.923 56.305V59.245ZM175.869 55.573C176.125 55.257 176.421 55.003 176.757 54.811C177.093 54.619 177.477 54.523 177.909 54.523C178.261 54.523 178.579 54.591 178.863 54.727C179.147 54.859 179.389 55.057 179.589 55.321C179.789 55.581 179.943 55.905 180.051 56.293C180.159 56.681 180.213 57.127 180.213 57.631C180.213 58.079 180.153 58.497 180.033 58.885C179.913 59.269 179.739 59.603 179.511 59.887C179.287 60.167 179.011 60.389 178.683 60.553C178.359 60.713 177.993 60.793 177.585 60.793C177.213 60.793 176.893 60.731 176.625 60.607C176.361 60.479 176.127 60.303 175.923 60.079V62.767H174.849V54.631H175.491C175.643 54.631 175.737 54.705 175.773 54.853L175.869 55.573Z" fill="white"/>
<path d="M77.518 39.775C76.0013 39.775 74.9163 39.3433 74.263 38.48C73.6097 37.5933 73.283 36.2867 73.283 34.56C73.283 32.81 74.018 27.875 75.488 19.755L73.633 16.01C76.2697 14.3067 78.673 13.455 80.843 13.455C82.2197 13.455 83.0713 14.1083 83.398 15.415C85.778 15.345 88.9513 14.75 92.918 13.63C93.1047 14.68 93.198 15.5667 93.198 16.29C93.198 17.7833 92.6263 18.9617 91.483 19.825C90.363 20.665 89.0563 21.085 87.563 21.085C86.0697 21.085 84.5763 20.7233 83.083 20C83.083 20 82.978 20.5717 82.768 21.715C82.6047 22.625 82.3363 24.0133 81.963 25.88C82.7563 26.0667 83.503 26.16 84.203 26.16C85.1597 25.9733 86.2097 25.705 87.353 25.355C87.4697 25.7517 87.528 26.405 87.528 27.315C87.528 28.2017 87.1663 28.9133 86.443 29.45C85.7197 29.9867 84.903 30.255 83.993 30.255C83.083 30.255 82.1613 30.15 81.228 29.94C80.9713 31.41 80.843 32.4717 80.843 33.125C80.843 35.3883 81.193 37.08 81.893 38.2C80.493 39.25 79.0347 39.775 77.518 39.775ZM97.0084 17.095L95.0484 14.295C97.965 12.5917 100.263 11.74 101.943 11.74C102.9 11.74 103.577 11.9383 103.973 12.335C104.37 12.7083 104.568 13.4317 104.568 14.505C104.568 15.555 104.043 18.5417 102.993 23.465C101.967 28.3883 101.453 31.8417 101.453 33.825C101.453 35.8083 101.815 37.2083 102.538 38.025C100.905 39.1683 99.4234 39.74 98.0934 39.74C96.7634 39.74 95.7834 39.3083 95.1534 38.445C94.5467 37.5583 94.2434 36.345 94.2434 34.805C94.2434 33.265 94.675 30.115 95.5384 25.355C96.4017 20.595 96.8917 17.8417 97.0084 17.095ZM118.49 12.335C118.49 13.2217 118.023 13.9917 117.09 14.645C116.157 15.275 115.095 15.59 113.905 15.59C112.715 15.59 111.77 15.3567 111.07 14.89C110.393 14.4233 110.055 13.7933 110.055 13C110.055 11.9267 110.557 11.0867 111.56 10.48C112.563 9.87332 113.625 9.56999 114.745 9.56999C115.865 9.56999 116.763 9.80332 117.44 10.27C118.14 10.7367 118.49 11.425 118.49 12.335ZM111.665 39.74C110.218 39.74 109.168 39.3783 108.515 38.655C107.862 37.9317 107.535 36.835 107.535 35.365C107.535 33.8717 108.282 29.8933 109.775 23.43L107.815 20.49C110.732 18.74 113.03 17.865 114.71 17.865C115.667 17.865 116.343 18.075 116.74 18.495C117.137 18.8917 117.335 19.545 117.335 20.455C117.335 20.805 116.903 22.8583 116.04 26.615C115.177 30.3717 114.745 33.055 114.745 34.665C114.745 36.275 115.107 37.395 115.83 38.025C114.523 39.1683 113.135 39.74 111.665 39.74ZM124.639 45.83C123.193 45.83 122.178 45.4683 121.594 44.745C121.034 44.045 120.754 43.0183 120.754 41.665C120.754 40.335 121.034 37.64 121.594 33.58C122.178 29.52 122.738 26.055 123.274 23.185L121.314 20.385C122.761 19.545 124.009 18.915 125.059 18.495C126.109 18.0517 127.148 17.83 128.174 17.83C129.854 17.83 130.694 18.9383 130.694 21.155C130.694 21.4583 130.648 22.0767 130.554 23.01L130.904 23.185C131.581 21.505 132.561 20.1983 133.844 19.265C135.128 18.3083 136.633 17.83 138.359 17.83C140.109 17.83 141.498 18.6233 142.524 20.21C143.551 21.7733 144.064 23.7217 144.064 26.055C144.064 29.1817 142.968 32.0283 140.774 34.595C139.701 35.855 138.266 36.8817 136.469 37.675C134.673 38.445 132.666 38.83 130.449 38.83C129.773 38.83 128.886 38.7717 127.789 38.655C127.719 39.4717 127.684 40.23 127.684 40.93C127.684 42.4233 128.046 43.485 128.769 44.115C127.463 45.2583 126.086 45.83 124.639 45.83ZM129.224 31.34L128.419 35.4C131.243 35.33 133.494 34.4083 135.174 32.635C136.878 30.8383 137.729 28.8783 137.729 26.755C137.729 25.6583 137.508 24.7833 137.064 24.13C136.644 23.4533 136.026 23.115 135.209 23.115C132.316 23.115 130.321 25.8567 129.224 31.34ZM151.436 45.83C149.99 45.83 148.975 45.4683 148.391 44.745C147.831 44.045 147.551 43.0183 147.551 41.665C147.551 40.335 147.831 37.64 148.391 33.58C148.975 29.52 149.535 26.055 150.071 23.185L148.111 20.385C149.558 19.545 150.806 18.915 151.856 18.495C152.906 18.0517 153.945 17.83 154.971 17.83C156.651 17.83 157.491 18.9383 157.491 21.155C157.491 21.4583 157.445 22.0767 157.351 23.01L157.701 23.185C158.378 21.505 159.358 20.1983 160.641 19.265C161.925 18.3083 163.43 17.83 165.156 17.83C166.906 17.83 168.295 18.6233 169.321 20.21C170.348 21.7733 170.861 23.7217 170.861 26.055C170.861 29.1817 169.765 32.0283 167.571 34.595C166.498 35.855 165.063 36.8817 163.266 37.675C161.47 38.445 159.463 38.83 157.246 38.83C156.57 38.83 155.683 38.7717 154.586 38.655C154.516 39.4717 154.481 40.23 154.481 40.93C154.481 42.4233 154.843 43.485 155.566 44.115C154.26 45.2583 152.883 45.83 151.436 45.83ZM156.021 31.34L155.216 35.4C158.04 35.33 160.291 34.4083 161.971 32.635C163.675 30.8383 164.526 28.8783 164.526 26.755C164.526 25.6583 164.305 24.7833 163.861 24.13C163.441 23.4533 162.823 23.115 162.006 23.115C159.113 23.115 157.118 25.8567 156.021 31.34ZM184.043 38.165C182.947 38.5617 181.85 38.76 180.753 38.76C179.657 38.76 178.735 38.4333 177.988 37.78C177.242 37.1267 176.81 36.24 176.693 35.12C176.577 34 176.472 32.3783 176.378 30.255C176.285 28.1083 176.192 26.5917 176.098 25.705C175.795 22.7417 174.862 20.63 173.298 19.37C174.395 18.3667 175.772 17.865 177.428 17.865C178.338 17.865 179.132 18.11 179.808 18.6C180.485 19.0667 181.022 19.6967 181.418 20.49C181.838 21.26 182.177 22.2633 182.433 23.5C182.83 25.5533 183.028 28.33 183.028 31.83C183.028 32.6933 182.993 33.7083 182.923 34.875H184.953C187.357 28.3883 188.558 23.9667 188.558 21.61C188.558 20.8167 188.383 20.07 188.033 19.37C189.667 18.3667 191.09 17.865 192.303 17.865C194.567 17.865 195.698 19.1717 195.698 21.785C195.698 23.8617 194.742 27.5133 192.828 32.74C192.478 33.6967 192.28 34.2567 192.233 34.42C189.27 42.8667 185.058 47.09 179.598 47.09C177.942 47.09 176.577 46.7283 175.503 46.005C174.43 45.305 173.893 44.3717 173.893 43.205C173.893 42.0617 174.325 40.86 175.188 39.6C176.308 41.1867 177.708 41.98 179.388 41.98C180.345 41.98 181.232 41.665 182.048 41.035C182.888 40.405 183.553 39.4483 184.043 38.165Z" fill="#56D5A8"/>
<path d="M5.212 4.99405C4.31385 5.46545 3.51788 6.10994 2.86996 6.89038C2.22204 7.67082 1.73498 8.57178 1.43687 9.54132C1.13875 10.5109 1.03547 11.5298 1.13298 12.5395C1.23049 13.5491 1.52686 14.5295 2.005 15.4241L15.835 41.2611C16.8098 43.071 18.4609 44.4219 20.4281 45.019C22.3952 45.616 24.5186 45.4108 26.335 44.448C27.233 43.9767 28.0289 43.3322 28.6767 42.5518C29.3245 41.7715 29.8115 40.8706 30.1097 39.9012C30.4078 38.9318 30.5111 37.9129 30.4137 36.9034C30.3162 35.8939 30.02 34.9136 29.542 34.019L15.706 8.18105C14.731 6.37131 13.0799 5.02058 11.1128 4.42353C9.14578 3.82648 7.02243 4.03157 5.206 4.99405H5.212Z" fill="#EAB875"/>
<path d="M29.538 34.019L15.704 8.18105C14.729 6.37131 13.0779 5.02058 11.1108 4.42353C9.14378 3.82648 7.02043 4.03157 5.20401 4.99405C5.00401 5.10205 4.80401 5.21905 4.61301 5.34205C7.71301 4.09705 11.57 5.80005 13.474 9.35705L27.312 35.1961C29.212 38.7531 28.479 42.8871 25.712 44.7411C25.921 44.6531 26.128 44.557 26.333 44.449C27.231 43.9775 28.0268 43.3329 28.6745 42.5523C29.3222 41.7718 29.8091 40.8708 30.107 39.9013C30.4049 38.9318 30.508 37.9129 30.4104 36.9033C30.3127 35.8938 30.0162 34.9135 29.538 34.019Z" fill="#C68D4E"/>
<path d="M15.077 25.0869C14.457 23.9289 11.609 24.2289 8.71601 25.7579C8.40134 25.9246 8.10134 26.0979 7.81601 26.2779L10.026 30.4069C10.337 30.2699 10.65 30.1189 10.965 29.9529C13.855 28.4239 15.697 26.2449 15.077 25.0869Z" fill="#FFF7AF"/>
<path d="M19.477 33.3061C18.857 32.1471 16.009 32.4481 13.116 33.9771C12.802 34.1431 12.501 34.3171 12.216 34.4971L14.426 38.6261C14.7367 38.4895 15.0497 38.3381 15.365 38.1721C18.258 36.6431 20.1 34.4641 19.48 33.3061H19.477Z" fill="#FFF7AF"/>
<path d="M4.31702 17.543C4.00202 17.709 3.70202 17.883 3.41702 18.063L5.62702 22.192C5.93769 22.0554 6.25069 21.904 6.56602 21.738C9.45902 20.209 11.301 18.031 10.681 16.872C10.061 15.713 7.21302 16.014 4.32002 17.543H4.31702Z" fill="#FFF7AF"/>
<path d="M31.048 4.03101V9.24801C31.0481 9.28486 31.0555 9.32133 31.0698 9.35532C31.084 9.3893 31.1049 9.42014 31.1311 9.44606C31.1573 9.47198 31.1883 9.49248 31.2225 9.50637C31.2566 9.52026 31.2931 9.52727 31.33 9.52701H39.048C39.0848 9.52714 39.1212 9.52003 39.1552 9.50608C39.1892 9.49213 39.2202 9.47161 39.2463 9.44571C39.2724 9.4198 39.2931 9.38901 39.3073 9.35508C39.3215 9.32116 39.3289 9.28478 39.329 9.24801V4.03101C39.3269 3.41031 39.0784 2.81586 38.638 2.37837C38.1977 1.94087 37.6017 1.69615 36.981 1.69801H33.396C32.7753 1.69615 32.1793 1.94087 31.739 2.37837C31.2987 2.81586 31.0501 3.41031 31.048 4.03101Z" fill="#ED5176"/>
<path d="M36.98 1.69801H34.919C35.4806 1.75818 35.9962 2.03626 36.3551 2.47249C36.7139 2.90873 36.8873 3.46831 36.838 4.03101V9.24801C36.8439 9.31538 36.8231 9.38236 36.7801 9.43454C36.737 9.48672 36.6753 9.51993 36.608 9.52701H39.047C39.0838 9.52714 39.1202 9.52003 39.1542 9.50608C39.1883 9.49213 39.2192 9.47161 39.2453 9.44571C39.2714 9.4198 39.2921 9.38901 39.3063 9.35508C39.3205 9.32116 39.3279 9.28478 39.328 9.24801V4.03101C39.3259 3.41031 39.0773 2.81586 38.637 2.37837C38.1967 1.94087 37.6007 1.69615 36.98 1.69801Z" fill="#BA365F"/>
<path d="M38.645 12.823V9.52295H31.73V12.823C31.7302 13.2305 31.6279 13.6316 31.4325 13.9893C31.2372 14.347 30.955 14.6498 30.612 14.8699C29.412 15.6409 27.612 16.906 27.104 17.846C24.84 22.073 25.979 37 25.979 37H44.397C44.397 37 45.535 22.073 43.272 17.846C42.772 16.906 40.965 15.6409 39.764 14.8699C39.4211 14.6498 39.139 14.3469 38.9436 13.9892C38.7483 13.6315 38.6459 13.2305 38.646 12.823H38.645Z" fill="#804C68"/>
<path d="M43.272 17.846C42.772 16.906 40.965 15.6409 39.765 14.8699C39.422 14.6498 39.1399 14.347 38.9445 13.9893C38.7491 13.6316 38.6468 13.2305 38.647 12.823V9.52295H36.282V12.823C36.272 13.2107 36.3489 13.5958 36.5071 13.95C36.6652 14.3042 36.9006 14.6185 37.196 14.8699C38.3335 15.6691 39.3068 16.6794 40.063 17.846C41.913 22.073 40.983 37 40.983 37H44.398C44.398 37 45.535 22.073 43.272 17.846Z" fill="#60364E"/>
<path d="M49.085 23.335H37.554L34.09 27.661V47.961H52.548V27.661L49.085 23.335Z" fill="#E9E9EA"/>
<path d="M49.085 23.335H46.785L49.717 27.661V47.961H52.548V27.661L49.085 23.335Z" fill="#C5C4CC"/>
<path d="M38.667 18.4851H47.967C48.2612 18.4843 48.5437 18.6004 48.7524 18.8078C48.9611 19.0151 49.079 19.2969 49.08 19.5911V23.3351H37.55V19.5961C37.5499 19.4497 37.5787 19.3047 37.6349 19.1694C37.691 19.0342 37.7734 18.9114 37.8773 18.8081C37.9811 18.7048 38.1043 18.6231 38.2399 18.5677C38.3754 18.5123 38.5206 18.4842 38.667 18.4851Z" fill="#C8E7F7"/>
<path d="M47.971 18.4851H45.761C45.8952 18.4846 46.0281 18.5105 46.1523 18.5614C46.2764 18.6123 46.3893 18.6871 46.4845 18.7817C46.5797 18.8762 46.6553 18.9886 46.707 19.1124C46.7588 19.2362 46.7856 19.369 46.786 19.5031V23.3361H49.086V19.5961C49.0861 19.4498 49.0573 19.305 49.0013 19.1699C48.9453 19.0348 48.8631 18.912 48.7595 18.8088C48.6559 18.7056 48.5329 18.6238 48.3976 18.5683C48.2622 18.5127 48.1173 18.4845 47.971 18.4851Z" fill="#8CBCD6"/>
<path d="M25.788 27.1019L25.794 27.0969L31.423 22.5909C31.5699 22.4738 31.704 22.3414 31.823 22.1959C32.0437 21.9277 32.209 21.6183 32.3095 21.2857C32.41 20.9532 32.4435 20.604 32.4083 20.2584C32.373 19.9128 32.2697 19.5776 32.1042 19.2722C31.9387 18.9668 31.7143 18.6972 31.444 18.4789C31.1365 18.2289 30.7771 18.0506 30.392 17.9571C30.0069 17.8635 29.6057 17.8571 29.2178 17.9383C28.8299 18.0194 28.465 18.1861 28.1496 18.4262C27.8343 18.6662 27.5765 18.9736 27.395 19.3259L24.083 25.7109V25.7179C23.9647 25.9458 23.9289 26.2077 23.9815 26.459C24.0342 26.7103 24.1722 26.9357 24.372 27.0969C24.5729 27.2584 24.8228 27.3463 25.0805 27.3463C25.3382 27.3463 25.5881 27.2584 25.789 27.0969L25.788 27.1019Z" fill="#7FAB38"/>
<path d="M22.124 27.102L22.118 27.097L16.485 22.589C16.3381 22.4718 16.204 22.3394 16.085 22.194C15.8643 21.9257 15.699 21.6163 15.5985 21.2838C15.4981 20.9512 15.4645 20.6021 15.4997 20.2565C15.535 19.9109 15.6383 19.5757 15.8038 19.2703C15.9693 18.9648 16.1937 18.6952 16.464 18.477C16.7715 18.2269 17.1309 18.0487 17.516 17.9551C17.9012 17.8616 18.3023 17.8552 18.6902 17.9363C19.0781 18.0175 19.4431 18.1842 19.7584 18.4242C20.0737 18.6643 20.3315 18.9717 20.513 19.324L23.826 25.709V25.716C23.9439 25.944 23.9796 26.2057 23.9269 26.4569C23.8743 26.7081 23.7366 26.9335 23.537 27.095C23.336 27.2565 23.0859 27.3445 22.828 27.3445C22.5702 27.3445 22.32 27.2565 22.119 27.095L22.124 27.102Z" fill="#7FAB38"/>
<path d="M30.797 32.9599C31.0181 31.9386 31.0078 30.8807 30.7667 29.8639C30.5256 28.8471 30.0599 27.8971 29.4038 27.0838C28.7477 26.2704 27.9178 25.6143 26.975 25.1635C26.0322 24.7127 25.0005 24.4788 23.9555 24.4788C22.9105 24.4788 21.8787 24.7127 20.936 25.1635C19.9932 25.6143 19.1633 26.2704 18.5072 27.0838C17.8511 27.8971 17.3854 28.8471 17.1443 29.8639C16.9032 30.8807 16.8929 31.9386 17.114 32.9599C19.993 46.3459 20 46.3779 21.166 51.7989C21.2992 52.4403 21.6493 53.0162 22.1574 53.4296C22.6654 53.843 23.3005 54.0687 23.9555 54.0687C24.6105 54.0687 25.2456 53.843 25.7536 53.4296C26.2617 53.0162 26.6118 52.4403 26.745 51.7989C27.911 46.3779 27.918 46.3449 30.797 32.9599Z" fill="#FFCD34"/>
<path d="M23.956 24.532C23.6766 24.5327 23.3975 24.5497 23.12 24.583C25.851 24.994 27.968 27.927 27.968 31.483C27.968 31.9763 27.9261 32.4687 27.843 32.955C25.578 46.341 25.573 46.373 24.656 51.794C24.606 52.2534 24.4382 52.6922 24.169 53.0678C23.8997 53.4434 23.5381 53.7431 23.119 53.938C23.498 54.0549 23.8973 54.0913 24.2912 54.0448C24.6851 53.9984 25.0649 53.8701 25.4064 53.6682C25.7478 53.4663 26.0432 53.1953 26.2738 52.8726C26.5043 52.5498 26.6648 52.1824 26.745 51.794L30.797 32.955C31.018 31.9366 31.0072 30.8815 30.7654 29.8678C30.5236 28.8541 30.0571 27.9077 29.4003 27.0986C28.7435 26.2895 27.9132 25.6384 26.9708 25.1935C26.0285 24.7485 24.9981 24.5211 23.956 24.528V24.532Z" fill="#E69012"/>
<path d="M7.20502 38.6602L7.72602 43.0882L8.11602 46.3952L9.82702 60.9262C9.92482 61.7271 10.3127 62.4644 10.9172 62.9988C11.5218 63.5331 12.3012 63.8275 13.108 63.8262H49.605C50.4119 63.8275 51.1913 63.5331 51.7958 62.9988C52.4004 62.4644 52.7882 61.7271 52.886 60.9262L55.507 38.6612L7.20502 38.6602Z" fill="#56D5A8"/>
<path d="M55.172 41.4872L55.505 38.6611H7.20502L7.53802 41.4872H55.172Z" fill="#56D5A8"/>
<path d="M52.359 38.6602L49.738 60.9252C49.6402 61.7261 49.2524 62.4634 48.6478 62.9978C48.0433 63.5321 47.2639 63.8265 46.457 63.8252H49.602C50.4089 63.8265 51.1883 63.5321 51.7928 62.9978C52.3974 62.4634 52.7852 61.7261 52.883 60.9252L55.504 38.6602H52.359Z" fill="#56D5A8"/>
<path d="M3.78702 33.8661V36.9261C3.78861 37.3874 3.97332 37.8292 4.30054 38.1543C4.62776 38.4795 5.07071 38.6614 5.53202 38.6601H57.178C57.6393 38.6614 58.0823 38.4795 58.4095 38.1543C58.7367 37.8292 58.9214 37.3874 58.923 36.9261V33.8661C58.9214 33.4048 58.7367 32.963 58.4095 32.6378C58.0823 32.3127 57.6393 32.1308 57.178 32.1321H5.53202C5.07071 32.1308 4.62776 32.3127 4.30054 32.6378C3.97332 32.963 3.78861 33.4048 3.78702 33.8661Z" fill="#90B6E1"/>
<path d="M57.179 32.1311H53.979C54.4403 32.1298 54.8833 32.3117 55.2105 32.6368C55.5377 32.962 55.7224 33.4038 55.724 33.8651V36.9261C55.7224 37.3874 55.5377 37.8292 55.2105 38.1544C54.8833 38.4795 54.4403 38.6614 53.979 38.6601H57.179C57.6403 38.6614 58.0833 38.4795 58.4105 38.1544C58.7377 37.8292 58.9224 37.3874 58.924 36.9261V33.8651C58.9224 33.4038 58.7377 32.962 58.4105 32.6368C58.0833 32.3117 57.6403 32.1298 57.179 32.1311Z" fill="#5692D8"/>
<path d="M60.24 58.613C59.8946 58.662 59.5424 58.6084 59.227 58.4591C58.9117 58.3098 58.6471 58.0713 58.466 57.7731L45.944 37.038C45.8241 36.8392 45.7446 36.6186 45.7103 36.3889C45.676 36.1592 45.6874 35.925 45.744 35.6997C45.8006 35.4745 45.9013 35.2627 46.0401 35.0765C46.179 34.8904 46.3533 34.7335 46.553 34.615C46.9573 34.3738 47.4405 34.3022 47.8974 34.4157C48.3542 34.5292 48.7477 34.8187 48.992 35.221L61.512 55.9551C61.632 56.154 61.7115 56.3747 61.7458 56.6044C61.7802 56.8342 61.7687 57.0685 61.7121 57.2938C61.6555 57.5191 61.5549 57.731 61.416 57.9173C61.2771 58.1035 61.1028 58.2605 60.903 58.379C60.6997 58.5002 60.4744 58.5798 60.24 58.613Z" fill="#575B7A"/>
<path d="M2.472 58.613C2.81746 58.6621 3.16972 58.6086 3.48508 58.4593C3.80044 58.31 4.06502 58.0714 4.246 57.7731L16.768 37.038C16.888 36.8392 16.9674 36.6186 17.0018 36.3889C17.0361 36.1592 17.0246 35.925 16.968 35.6997C16.9114 35.4745 16.8108 35.2627 16.6719 35.0765C16.5331 34.8904 16.3587 34.7335 16.159 34.615C15.7548 34.3738 15.2715 34.3022 14.8147 34.4157C14.3578 34.5292 13.9643 34.8187 13.72 35.221L1.198 55.9551C1.078 56.154 0.998533 56.3747 0.964196 56.6044C0.929859 56.8342 0.941324 57.0685 0.997932 57.2938C1.05454 57.5191 1.15517 57.731 1.29403 57.9173C1.43289 58.1035 1.60723 58.2605 1.807 58.379C2.01089 58.5005 2.23697 58.5801 2.472 58.613Z" fill="#575B7A"/>
<path d="M20.668 47.7839C20.668 48.202 20.5019 48.603 20.2063 48.8987C19.9106 49.1943 19.5096 49.3604 19.0915 49.3604C18.6734 49.3604 18.2724 49.1943 17.9768 48.8987C17.6811 48.603 17.515 48.202 17.515 47.7839V44.6839C17.515 44.2658 17.6811 43.8648 17.9768 43.5692C18.2724 43.2735 18.6734 43.1074 19.0915 43.1074C19.5096 43.1074 19.9106 43.2735 20.2063 43.5692C20.5019 43.8648 20.668 44.2658 20.668 44.6839V47.7839Z" fill="#56D5A8"/>
<path d="M26.801 57.9189C26.801 58.337 26.6349 58.738 26.3393 59.0337C26.0436 59.3293 25.6426 59.4954 25.2245 59.4954C24.8064 59.4954 24.4054 59.3293 24.1098 59.0337C23.8141 58.738 23.648 58.337 23.648 57.9189V54.8189C23.648 54.4008 23.8141 53.9998 24.1098 53.7042C24.4054 53.4085 24.8064 53.2424 25.2245 53.2424C25.6426 53.2424 26.0436 53.4085 26.3393 53.7042C26.6349 53.9998 26.801 54.4008 26.801 54.8189V57.9189Z" fill="#56D5A8"/>
<path d="M32.932 47.784C32.9217 48.1953 32.751 48.5862 32.4565 48.8734C32.162 49.1605 31.7669 49.3213 31.3555 49.3213C30.9441 49.3213 30.5491 49.1605 30.2545 48.8734C29.96 48.5862 29.7894 48.1953 29.779 47.784V44.684C29.7894 44.2728 29.96 43.8819 30.2545 43.5947C30.5491 43.3075 30.9441 43.1467 31.3555 43.1467C31.7669 43.1467 32.162 43.3075 32.4565 43.5947C32.751 43.8819 32.9217 44.2728 32.932 44.684V47.784Z" fill="#56D5A8"/>
<path d="M39.065 57.919C39.0546 58.3302 38.884 58.7212 38.5895 59.0084C38.295 59.2956 37.8999 59.4563 37.4885 59.4563C37.0772 59.4563 36.6821 59.2956 36.3875 59.0084C36.093 58.7212 35.9224 58.3302 35.912 57.919V54.819C35.9224 54.4078 36.093 54.0169 36.3875 53.7297C36.6821 53.4425 37.0772 53.2817 37.4885 53.2817C37.8999 53.2817 38.295 53.4425 38.5895 53.7297C38.884 54.0169 39.0546 54.4078 39.065 54.819V57.919Z" fill="#56D5A8"/>
<path d="M45.198 47.784C45.1876 48.1953 45.017 48.5862 44.7225 48.8734C44.428 49.1605 44.0329 49.3213 43.6215 49.3213C43.2102 49.3213 42.8151 49.1605 42.5205 48.8734C42.226 48.5862 42.0554 48.1953 42.045 47.784V44.684C42.0554 44.2728 42.226 43.8819 42.5205 43.5947C42.8151 43.3075 43.2102 43.1467 43.6215 43.1467C44.0329 43.1467 44.428 43.3075 44.7225 43.5947C45.017 43.8819 45.1876 44.2728 45.198 44.684V47.784Z" fill="#56D5A8"/>
<path d="M62.324 55.473L55.755 44.595L56.343 39.595H57.179C57.8897 39.5966 58.572 39.3162 59.0762 38.8152C59.5803 38.3143 59.8651 37.6338 59.868 36.923V33.863C59.8648 33.1525 59.5799 32.4722 59.0758 31.9715C58.5717 31.4708 57.8895 31.1904 57.179 31.192H53.491V27.692C53.491 27.683 53.491 27.673 53.491 27.663C53.4925 27.4516 53.422 27.246 53.291 27.08L50.033 23.012V19.591C50.0306 19.0474 49.8127 18.5269 49.4271 18.1438C49.0415 17.7606 48.5196 17.546 47.976 17.547H44.178C44.154 17.499 44.129 17.447 44.105 17.406C43.638 16.532 42.35 15.414 40.276 14.082C40.065 13.9471 39.8914 13.761 39.7715 13.5411C39.6516 13.3212 39.5891 13.0745 39.59 12.824V10.339C39.7944 10.2391 39.9667 10.084 40.0874 9.89113C40.2081 9.69831 40.2724 9.47554 40.273 9.24804V4.03104C40.2693 3.16085 39.9205 2.32768 39.3031 1.71442C38.6857 1.10116 37.8502 0.757917 36.98 0.760044H33.399C32.9675 0.75807 32.5399 0.841119 32.1405 1.00445C31.7411 1.16777 31.3779 1.40818 31.0714 1.71194C30.765 2.01569 30.5214 2.37684 30.3545 2.77476C30.1877 3.17268 30.1008 3.59957 30.099 4.03104V9.24704C30.0995 9.47456 30.1637 9.69738 30.2845 9.89023C30.4052 10.0831 30.5776 10.2382 30.782 10.338V12.823C30.7828 13.0738 30.7202 13.3206 30.6001 13.5407C30.48 13.7608 30.3063 13.947 30.095 14.082C29.752 14.302 29.369 14.557 28.978 14.833C28.978 14.76 28.978 14.687 28.978 14.614C28.978 13.2793 28.4478 11.9993 27.504 11.0555C26.5602 10.1118 25.2802 9.58154 23.9455 9.58154C22.6108 9.58154 21.3308 10.1118 20.387 11.0555C19.4432 11.9993 18.913 13.2793 18.913 14.614C18.9134 14.9681 18.9516 15.3211 19.027 15.667C19.14 16.199 19.246 16.694 19.344 17.156C18.7601 16.9499 18.1331 16.8968 17.5228 17.0018C16.9126 17.1069 16.3394 17.3665 15.858 17.756C15.4429 18.0927 15.1088 18.5182 14.8801 19.0012C14.6514 19.4842 14.5341 20.0124 14.5368 20.5468C14.5395 21.0812 14.6621 21.6081 14.8956 22.0888C15.1291 22.5695 15.4676 22.9916 15.886 23.324L18.695 25.573C17.8871 26.2776 17.232 27.14 16.7699 28.1072C16.3078 29.0744 16.0485 30.1259 16.008 31.197H11.508L11.308 30.83L11.396 30.784C14.413 29.189 16.93 26.57 15.901 24.65C14.872 22.73 11.281 23.339 8.26401 24.934L8.17601 24.981L6.91701 22.608L7.00501 22.562C8.38545 21.8623 9.62435 20.913 10.659 19.762C12.065 18.1 11.796 16.962 11.51 16.425C11.224 15.888 10.422 15.035 8.24901 15.26C6.71376 15.4697 5.23031 15.9606 3.87301 16.708L3.78601 16.76L2.83501 14.985C2.30829 14.0101 2.03331 12.9191 2.03501 11.811C2.03971 10.7479 2.2931 9.70052 2.77492 8.75276C3.25673 7.80501 3.95362 6.98313 4.80984 6.35284C5.66607 5.72255 6.65789 5.30133 7.706 5.12287C8.75411 4.9444 9.82944 5.01364 10.846 5.32504C11.7018 5.58193 12.4982 6.00582 13.1892 6.57223C13.8802 7.13864 14.4522 7.83634 14.872 8.62504L16.499 11.66C16.6175 11.88 16.8182 12.0441 17.0572 12.1166C17.2963 12.1891 17.5543 12.1641 17.775 12.047C17.8843 11.9898 17.9811 11.9115 18.0599 11.8166C18.1387 11.7217 18.198 11.6122 18.2342 11.4943C18.2705 11.3764 18.2831 11.2525 18.2712 11.1298C18.2593 11.007 18.2232 10.8878 18.165 10.779L16.539 7.74004C15.4436 5.71339 13.5925 4.20105 11.3881 3.53179C9.18372 2.86253 6.80426 3.09047 4.76701 4.16604C3.75833 4.69362 2.86423 5.4159 2.13641 6.29114C1.40859 7.16638 0.861485 8.17721 0.526722 9.26519C0.191959 10.3532 0.0761817 11.4967 0.186083 12.6297C0.295985 13.7627 0.629386 14.8627 1.16701 15.866L9.37601 31.194H5.53301C4.82247 31.1924 4.14031 31.4728 3.6362 31.9735C3.13208 32.4742 2.84719 33.1545 2.84401 33.865V36.925C2.84692 37.6358 3.1317 38.3163 3.63585 38.8172C4.13999 39.3182 4.8223 39.5986 5.53301 39.597H6.36901L6.95801 44.597L0.38901 55.473C0.205071 55.7775 0.0832608 56.1153 0.030612 56.4671C-0.0220368 56.8189 -0.00448092 57.1776 0.0822659 57.5225C0.169013 57.8674 0.323232 58.1918 0.536019 58.4768C0.748805 58.7618 1.01594 59.0018 1.32201 59.183C1.63429 59.3696 1.98077 59.4916 2.34101 59.542C2.46822 59.56 2.59654 59.569 2.72501 59.569C3.19333 59.5698 3.65394 59.4497 4.06228 59.2204C4.47063 58.9911 4.8129 58.6603 5.05601 58.26L7.99401 53.395L8.20601 55.201C8.23492 55.4496 8.36136 55.6764 8.55753 55.8317C8.75369 55.987 9.0035 56.058 9.25201 56.029C9.50052 56.0001 9.72736 55.8737 9.88264 55.6775C10.0379 55.4814 10.1089 55.2316 10.08 54.983L9.58401 50.76L16.324 39.6H46.389L53.129 50.76L51.945 60.817C51.8761 61.39 51.599 61.9177 51.1665 62.2997C50.7339 62.6817 50.1761 62.8915 49.599 62.889H13.11C12.5333 62.8907 11.976 62.6805 11.5441 62.2983C11.1122 61.9162 10.8356 61.3887 10.767 60.816L10.518 58.702C10.5037 58.579 10.4653 58.46 10.405 58.3518C10.3447 58.2436 10.2636 58.1483 10.1665 58.0714C10.0694 57.9945 9.95804 57.9375 9.83888 57.9037C9.71972 57.8698 9.59506 57.8597 9.47201 57.874C9.34896 57.8884 9.22994 57.9268 9.12173 57.9871C9.01353 58.0474 8.91826 58.1284 8.84138 58.2256C8.76449 58.3227 8.70749 58.434 8.67362 58.5532C8.63976 58.6723 8.6297 58.797 8.64401 58.92L8.89301 61.033C9.01767 62.063 9.516 63.0114 10.2935 63.6984C11.071 64.3854 12.0735 64.7632 13.111 64.76H49.599C50.6368 64.763 51.6397 64.3848 52.417 63.6972C53.1944 63.0096 53.6923 62.0605 53.816 61.03L54.716 53.386L57.657 58.26C58.031 58.8762 58.6334 59.3194 59.333 59.4931C60.0325 59.6667 60.7723 59.5567 61.391 59.187C61.6971 59.0058 61.9642 58.7658 62.177 58.4808C62.3898 58.1958 62.544 57.8714 62.6308 57.5265C62.7175 57.1816 62.7351 56.8228 62.6824 56.4711C62.6298 56.1193 62.5079 55.7815 62.324 55.477V55.473ZM9.16001 26.586C12.199 24.979 14.105 25.267 14.245 25.527C14.385 25.787 13.558 27.519 10.519 29.127L10.431 29.173L9.07201 26.633L9.16001 26.586ZM4.76001 18.367C5.90501 17.7354 7.15478 17.316 8.44901 17.129C9.38701 17.029 9.80001 17.229 9.84901 17.309C9.89801 17.389 9.82601 17.842 9.21901 18.56C8.33631 19.5236 7.28593 20.3189 6.11901 20.907L6.03101 20.953L4.67201 18.414L4.75901 18.367H4.76001ZM54.165 41.96L52.736 39.595H54.443L54.165 41.96ZM35.034 31.194V27.988L38.009 24.273H48.629L50.591 26.724H46.316C46.1903 26.7199 46.0651 26.7411 45.9478 26.7864C45.8304 26.8317 45.7234 26.9001 45.633 26.9875C45.5427 27.075 45.4708 27.1797 45.4217 27.2955C45.3727 27.4113 45.3474 27.5358 45.3474 27.6615C45.3474 27.7873 45.3727 27.9118 45.4217 28.0276C45.4708 28.1434 45.5427 28.2481 45.633 28.3356C45.7234 28.423 45.8304 28.4914 45.9478 28.5367C46.0651 28.5819 46.1903 28.6032 46.316 28.599H51.599V31.199L35.034 31.194ZM48.142 19.594V22.401H38.499V19.591C38.4991 19.5688 38.5036 19.5469 38.5123 19.5264C38.5209 19.506 38.5334 19.4874 38.5492 19.4718C38.565 19.4562 38.5837 19.4439 38.6043 19.4355C38.6248 19.4272 38.6468 19.4229 38.669 19.423H47.969C47.9912 19.4229 48.0132 19.4272 48.0338 19.4355C48.0543 19.4439 48.073 19.4562 48.0888 19.4718C48.1046 19.4874 48.1171 19.506 48.1258 19.5264C48.1344 19.5469 48.1389 19.5688 48.139 19.591L48.142 19.594ZM33.399 2.63504H36.984C37.3553 2.63504 37.7114 2.78254 37.974 3.04509C38.2365 3.30765 38.384 3.66374 38.384 4.03504V8.58904H31.991V4.03104C31.991 3.65974 32.1385 3.30365 32.4011 3.04109C32.6636 2.77854 33.0197 2.63104 33.391 2.63104L33.399 2.63504ZM31.123 15.66C31.5991 15.3564 31.9908 14.9374 32.2618 14.442C32.5327 13.9466 32.6742 13.3907 32.673 12.826V10.46H37.699V12.819C37.697 13.3852 37.8383 13.9426 38.1099 14.4394C38.3814 14.9362 38.7743 15.3561 39.252 15.66C40.1539 16.2151 41.0057 16.8474 41.798 17.55H38.667C38.1233 17.5487 37.6013 17.7632 37.2156 18.1465C36.8299 18.5297 36.6121 19.0503 36.61 19.594V23.011L33.352 27.08C33.2191 27.2457 33.1468 27.4517 33.147 27.664V31.198H31.893C31.8523 30.1269 31.593 29.0754 31.1309 28.1083C30.6688 27.1411 30.0137 26.2787 29.206 25.574L30.345 24.662L32.013 23.326C32.2123 23.1677 32.3943 22.9887 32.556 22.792C32.8551 22.4285 33.0791 22.0093 33.2152 21.5587C33.3513 21.1081 33.3967 20.6349 33.3488 20.1666C33.3009 19.6983 33.1607 19.2442 32.9362 18.8304C32.7117 18.4167 32.4075 18.0515 32.041 17.756C31.6745 17.4578 31.2527 17.2347 30.7999 17.0997C30.3471 16.9646 29.872 16.9202 29.402 16.969C29.346 16.975 29.291 16.982 29.236 16.99C29.752 16.581 30.392 16.13 31.123 15.66ZM27.845 20.514C28.104 20.149 28.345 18.961 29.593 18.835C29.8169 18.8117 30.0432 18.8329 30.2589 18.8972C30.4746 18.9616 30.6755 19.0679 30.85 19.21C31.0481 19.3706 31.2075 19.5736 31.3165 19.8041C31.4255 20.0346 31.4812 20.2867 31.4796 20.5416C31.4779 20.7966 31.419 21.0479 31.3071 21.277C31.1951 21.5061 31.0331 21.7071 30.833 21.865L29.162 23.202L27.58 24.469C27.4087 24.3817 27.234 24.3004 27.056 24.225L27.845 20.514ZM23.955 11.492C24.4235 11.4893 24.8865 11.5919 25.31 11.7922C25.7335 11.9925 26.1066 12.2854 26.4017 12.6492C26.6968 13.013 26.9064 13.4385 27.015 13.8942C27.1235 14.3499 27.1283 14.8242 27.029 15.282L26.662 17.005C26.662 17.014 26.662 17.024 26.656 17.033L25.238 23.701C24.3885 23.5643 23.5225 23.5643 22.673 23.701L22.661 23.646C22.333 22.103 21.982 20.446 20.882 15.278C20.7822 14.8205 20.7867 14.3463 20.895 13.8907C21.0034 13.4351 21.2129 13.0097 21.5081 12.6461C21.8032 12.2825 22.1764 11.9899 22.6 11.7901C23.0236 11.5904 23.4867 11.4885 23.955 11.492ZM16.817 21.604C16.6747 21.4308 16.5681 21.231 16.5033 21.0164C16.4385 20.8017 16.4169 20.5763 16.4395 20.3533C16.4622 20.1302 16.5288 19.9138 16.6355 19.7166C16.7421 19.5193 16.8868 19.3451 17.061 19.204C17.2603 19.0435 17.4929 18.9294 17.7419 18.87C17.9908 18.8106 18.2498 18.8074 18.5002 18.8607C18.7505 18.9139 18.9858 19.0223 19.189 19.1778C19.3923 19.3334 19.5583 19.5323 19.675 19.76L20.068 20.519C20.422 22.186 20.623 23.129 20.814 24.033L20.855 24.224C20.677 24.2994 20.5023 24.3807 20.331 24.468C19.1092 23.5781 17.9361 22.6231 16.817 21.607V21.604ZM23.955 25.471C25.5047 25.4683 26.9963 26.0607 28.1219 27.1258C29.2475 28.1909 29.9212 29.6476 30.004 31.195H17.904C17.9868 29.6476 18.6605 28.1909 19.7861 27.1258C20.9117 26.0607 22.4033 25.4683 23.953 25.471H23.955ZM8.26901 39.597H9.97601L8.54801 41.96L8.26901 39.597ZM3.43701 57.29C3.35244 57.4303 3.22844 57.5426 3.08048 57.6128C2.93252 57.6831 2.76715 57.7082 2.60501 57.685C2.49474 57.6694 2.38868 57.6321 2.29301 57.575C2.19927 57.5195 2.11746 57.4459 2.0523 57.3585C1.98713 57.2712 1.93989 57.1718 1.91331 57.0661C1.88672 56.9604 1.88131 56.8505 1.8974 56.7427C1.91348 56.6349 1.95073 56.5314 2.00701 56.438L8.73701 45.294L12.437 39.175C12.45 39.155 12.463 39.134 12.474 39.113L14.532 35.705C14.6075 35.5827 14.7129 35.4818 14.8385 35.4117C14.964 35.3417 15.1053 35.305 15.249 35.305C15.3998 35.3054 15.5477 35.3466 15.677 35.424C15.7706 35.4797 15.8524 35.5534 15.9174 35.6407C15.9825 35.7281 16.0297 35.8275 16.0563 35.9331C16.0829 36.0388 16.0883 36.1486 16.0723 36.2564C16.0563 36.3641 16.0192 36.4677 15.963 36.561L14.999 38.152C14.988 38.169 14.978 38.185 14.969 38.202L3.43701 57.29ZM17.456 37.722L17.578 37.522C17.7618 37.2176 17.8835 36.8797 17.9361 36.528C17.9887 36.1763 17.9711 35.8176 17.8843 35.4727C17.7976 35.1278 17.6434 34.8035 17.4307 34.5184C17.218 34.2334 16.951 33.9933 16.645 33.812C16.0263 33.4429 15.2868 33.3333 14.5876 33.5069C13.8884 33.6805 13.2862 34.1234 12.912 34.739L11.112 37.724H5.53301C5.32084 37.724 5.11735 37.6398 4.96732 37.4897C4.8173 37.3397 4.73301 37.1362 4.73301 36.924V33.864C4.73301 33.6519 4.8173 33.4484 4.96732 33.2984C5.11735 33.1483 5.32084 33.064 5.53301 33.064H57.18C57.3922 33.064 57.5957 33.1483 57.7457 33.2984C57.8957 33.4484 57.98 33.6519 57.98 33.864V36.924C57.98 37.1362 57.8957 37.3397 57.7457 37.4897C57.5957 37.6398 57.3922 37.724 57.18 37.724H51.604L49.804 34.739C49.526 34.2797 49.1186 33.9126 48.6327 33.6839C48.1469 33.4552 47.6044 33.3751 47.0732 33.4536C46.542 33.5322 46.0459 33.7658 45.647 34.1252C45.2481 34.4847 44.9642 34.9539 44.831 35.474C44.7434 35.8185 44.7254 36.177 44.7782 36.5285C44.8309 36.88 44.9532 37.2174 45.138 37.521L45.26 37.721L17.456 37.722ZM60.108 57.685C59.9464 57.7023 59.7832 57.6745 59.6364 57.6048C59.4895 57.5351 59.3648 57.4261 59.276 57.29L46.753 36.56C46.6967 36.4667 46.6595 36.3632 46.6434 36.2554C46.6273 36.1476 46.6327 36.0377 46.6593 35.932C46.6859 35.8263 46.7331 35.7269 46.7983 35.6396C46.8635 35.5522 46.9453 35.4786 47.039 35.423C47.2287 35.3096 47.4555 35.2758 47.67 35.329C47.8846 35.3822 48.0693 35.5181 48.184 35.707L53.972 45.291V45.298L60.702 56.442C60.7724 56.5597 60.8125 56.6931 60.8187 56.83C60.8249 56.967 60.797 57.1034 60.7376 57.227C60.6781 57.3506 60.5889 57.4575 60.478 57.5381C60.3671 57.6187 60.2379 57.6706 60.102 57.689L60.108 57.685Z" fill="white"/>
<path d="M21.611 47.7841V44.6841C21.611 44.0157 21.3455 43.3748 20.8729 42.9022C20.4003 42.4296 19.7594 42.1641 19.091 42.1641C18.4227 42.1641 17.7817 42.4296 17.3091 42.9022C16.8365 43.3748 16.571 44.0157 16.571 44.6841V47.7841C16.571 48.4524 16.8365 49.0934 17.3091 49.566C17.7817 50.0386 18.4227 50.304 19.091 50.304C19.7594 50.304 20.4003 50.0386 20.8729 49.566C21.3455 49.0934 21.611 48.4524 21.611 47.7841ZM18.458 47.7841V44.6841C18.458 44.5162 18.5247 44.3552 18.6434 44.2365C18.7621 44.1177 18.9231 44.0511 19.091 44.0511C19.2589 44.0511 19.4199 44.1177 19.5386 44.2365C19.6573 44.3552 19.724 44.5162 19.724 44.6841V47.7841C19.724 47.9519 19.6573 48.1129 19.5386 48.2317C19.4199 48.3504 19.2589 48.4171 19.091 48.4171C18.9231 48.4171 18.7621 48.3504 18.6434 48.2317C18.5247 48.1129 18.458 47.9519 18.458 47.7841Z" fill="white"/>
<path d="M27.744 57.9152V54.8152C27.744 54.1468 27.4785 53.5059 27.0059 53.0333C26.5333 52.5607 25.8924 52.2952 25.224 52.2952C24.5557 52.2952 23.9147 52.5607 23.4421 53.0333C22.9695 53.5059 22.704 54.1468 22.704 54.8152V57.9152C22.704 58.5835 22.9695 59.2245 23.4421 59.6971C23.9147 60.1697 24.5557 60.4352 25.224 60.4352C25.8924 60.4352 26.5333 60.1697 27.0059 59.6971C27.4785 59.2245 27.744 58.5835 27.744 57.9152ZM24.591 57.9152V54.8152C24.5975 54.6518 24.667 54.4972 24.7849 54.3839C24.9028 54.2706 25.06 54.2073 25.2235 54.2073C25.387 54.2073 25.5442 54.2706 25.6621 54.3839C25.78 54.4972 25.8495 54.6518 25.856 54.8152V57.9152C25.8495 58.0786 25.78 58.2331 25.6621 58.3464C25.5442 58.4597 25.387 58.523 25.2235 58.523C25.06 58.523 24.9028 58.4597 24.7849 58.3464C24.667 58.2331 24.5975 58.0786 24.591 57.9152Z" fill="white"/>
<path d="M33.876 47.7841V44.6841C33.876 44.0157 33.6105 43.3748 33.1379 42.9022C32.6653 42.4296 32.0243 42.1641 31.356 42.1641C30.6876 42.1641 30.0467 42.4296 29.5741 42.9022C29.1015 43.3748 28.836 44.0157 28.836 44.6841V47.7841C28.836 48.4524 29.1015 49.0934 29.5741 49.566C30.0467 50.0386 30.6876 50.304 31.356 50.304C32.0243 50.304 32.6653 50.0386 33.1379 49.566C33.6105 49.0934 33.876 48.4524 33.876 47.7841ZM30.723 47.7841V44.6841C30.7295 44.5207 30.799 44.3661 30.9169 44.2528C31.0348 44.1395 31.192 44.0762 31.3555 44.0762C31.519 44.0762 31.6762 44.1395 31.7941 44.2528C31.912 44.3661 31.9815 44.5207 31.988 44.6841V47.7841C31.9815 47.9475 31.912 48.102 31.7941 48.2153C31.6762 48.3286 31.519 48.3919 31.3555 48.3919C31.192 48.3919 31.0348 48.3286 30.9169 48.2153C30.799 48.102 30.7295 47.9475 30.723 47.7841Z" fill="white"/>
<path d="M40.012 57.9152V54.8152C40.012 54.1468 39.7465 53.5059 39.2739 53.0333C38.8013 52.5607 38.1604 52.2952 37.492 52.2952C36.8237 52.2952 36.1827 52.5607 35.7101 53.0333C35.2375 53.5059 34.972 54.1468 34.972 54.8152V57.9152C34.972 58.5835 35.2375 59.2245 35.7101 59.6971C36.1827 60.1697 36.8237 60.4352 37.492 60.4352C38.1604 60.4352 38.8013 60.1697 39.2739 59.6971C39.7465 59.2245 40.012 58.5835 40.012 57.9152ZM36.859 57.9152V54.8152C36.8655 54.6518 36.935 54.4972 37.0529 54.3839C37.1708 54.2706 37.328 54.2073 37.4915 54.2073C37.655 54.2073 37.8122 54.2706 37.9301 54.3839C38.0481 54.4972 38.1175 54.6518 38.124 54.8152V57.9152C38.1175 58.0786 38.0481 58.2331 37.9301 58.3464C37.8122 58.4597 37.655 58.523 37.4915 58.523C37.328 58.523 37.1708 58.4597 37.0529 58.3464C36.935 58.2331 36.8655 58.0786 36.859 57.9152Z" fill="white"/>
<path d="M46.142 47.7841V44.6841C46.142 44.0157 45.8765 43.3748 45.4039 42.9022C44.9313 42.4296 44.2904 42.1641 43.622 42.1641C42.9537 42.1641 42.3127 42.4296 41.8401 42.9022C41.3675 43.3748 41.102 44.0157 41.102 44.6841V47.7841C41.102 48.4524 41.3675 49.0934 41.8401 49.566C42.3127 50.0386 42.9537 50.304 43.622 50.304C44.2904 50.304 44.9313 50.0386 45.4039 49.566C45.8765 49.0934 46.142 48.4524 46.142 47.7841ZM42.989 47.7841V44.6841C42.989 44.5162 43.0557 44.3552 43.1744 44.2365C43.2931 44.1177 43.4541 44.0511 43.622 44.0511C43.7899 44.0511 43.9509 44.1177 44.0696 44.2365C44.1883 44.3552 44.255 44.5162 44.255 44.6841V47.7841C44.255 47.9519 44.1883 48.1129 44.0696 48.2317C43.9509 48.3504 43.7899 48.4171 43.622 48.4171C43.4541 48.4171 43.2931 48.3504 43.1744 48.2317C43.0557 48.1129 42.989 47.9519 42.989 47.7841Z" fill="white"/>
</svg>
