<svg width="32" height="32" viewBox="0 0 32 32" fill="none" xmlns="http://www.w3.org/2000/svg">
<path d="M30.667 24.7081C30.533 24.5741 30.386 24.4538 30.228 24.3491C30.1267 24.285 30.0043 24.2632 29.8871 24.2883C29.7699 24.3135 29.6672 24.3836 29.6011 24.4836C29.535 24.5836 29.5107 24.7056 29.5335 24.8232C29.5563 24.9409 29.6243 25.045 29.723 25.1131C29.9844 25.2867 30.1989 25.5221 30.3477 25.7984C30.4965 26.0747 30.5749 26.3833 30.576 26.6971C30.5756 26.9539 30.5232 27.2079 30.4219 27.4438C30.3206 27.6797 30.1725 27.8927 29.9866 28.0698C29.8007 28.2469 29.5809 28.3845 29.3403 28.4743C29.0997 28.564 28.8435 28.6041 28.587 28.5921C28.5233 28.5891 28.4597 28.5994 28.4002 28.6225C28.3407 28.6455 28.2867 28.6807 28.2416 28.7257C28.1966 28.7708 28.1614 28.8248 28.1384 28.8843C28.1154 28.9438 28.105 29.0074 28.108 29.0711C28.1243 29.3876 28.0611 29.7031 27.9243 29.9889C27.7875 30.2747 27.5814 30.5218 27.3247 30.7076C27.068 30.8934 26.7689 31.0121 26.4547 31.0528C26.1404 31.0936 25.821 31.055 25.5254 30.9408C25.2298 30.8265 24.9675 30.6401 24.7624 30.3986C24.5573 30.1571 24.4158 29.8681 24.3508 29.558C24.2859 29.2478 24.2996 28.9263 24.3906 28.6228C24.4816 28.3193 24.6471 28.0433 24.872 27.8201C25.124 27.5681 25.514 27.2901 25.155 26.9311L23.345 25.1211L24.637 23.8291L26.447 25.6391C26.4945 25.6845 26.551 25.7194 26.6129 25.7415C26.6747 25.7636 26.7406 25.7724 26.8061 25.7673C26.8716 25.7622 26.9353 25.7433 26.993 25.7119C27.0507 25.6805 27.1011 25.6373 27.141 25.5851C27.2015 25.5036 27.2684 25.427 27.341 25.3561C27.555 25.1406 27.8183 24.9803 28.108 24.8891C28.167 24.8724 28.222 24.844 28.2698 24.8056C28.3176 24.7672 28.3572 24.7197 28.3863 24.6657C28.4154 24.6117 28.4333 24.5525 28.4391 24.4914C28.4448 24.4304 28.4382 24.3689 28.4198 24.3104C28.4013 24.252 28.3713 24.1978 28.3315 24.1512C28.2917 24.1046 28.2429 24.0664 28.1881 24.0389C28.1333 24.0115 28.0736 23.9953 28.0124 23.9914C27.9512 23.9875 27.8899 23.9959 27.832 24.0161C27.4307 24.1438 27.063 24.3598 26.756 24.6481L25.134 23.0291C24.9255 22.5194 24.7583 21.9937 24.634 21.4571C24.5002 20.3796 24.448 19.2935 24.478 18.2081C24.5004 17.4076 24.48 16.6064 24.417 15.8081C23.9329 12.2176 22.5196 8.81571 20.317 5.9391C19.2555 4.52478 18.0853 3.19541 16.817 1.9631C15.616 0.749102 13.668 0.450102 11.343 1.1161C8.84009 1.92401 6.57655 3.33993 4.75501 5.2371C2.85783 7.05865 1.44192 9.32219 0.634007 11.8251C-0.0329931 14.1501 0.267007 16.0981 1.47801 17.3091C2.70946 18.5783 4.03889 19.7486 5.45401 20.8091C7.30669 22.1862 9.35326 23.2811 11.527 24.0581C12.1635 24.2796 12.8123 24.4642 13.47 24.6111C14.5296 24.8471 15.6115 24.9681 16.697 24.9721C18.1248 24.9249 19.5542 24.976 20.975 25.1251C21.5032 25.2469 22.0209 25.4108 22.523 25.6151L24.166 27.2391C23.8612 27.5633 23.6376 27.9552 23.5136 28.3826C23.3897 28.81 23.3689 29.2607 23.453 29.6976C23.5371 30.1346 23.7236 30.5454 23.9974 30.8963C24.2711 31.2472 24.6241 31.5281 25.0275 31.716C25.4309 31.9039 25.8731 31.9934 26.3178 31.9772C26.7625 31.961 27.197 31.8395 27.5856 31.6228C27.9743 31.406 28.3059 31.1001 28.5534 30.7302C28.8008 30.3603 28.957 29.937 29.009 29.4951C29.5335 29.4332 30.03 29.2249 30.4416 28.8939C30.8533 28.563 31.1635 28.1229 31.3367 27.624C31.5099 27.125 31.5391 26.5874 31.421 26.0726C31.303 25.5578 31.0423 25.0867 30.669 24.7131L30.667 24.7081ZM1.51401 12.0781C2.27872 9.72438 3.61449 7.5967 5.40201 5.8851C7.11358 4.09756 9.24127 2.76178 11.595 1.9971C12.252 1.7998 12.9331 1.69479 13.619 1.6851C14.086 1.66023 14.5532 1.72918 14.993 1.88788C15.4329 2.04658 15.8365 2.29182 16.18 2.6091C17.145 3.5741 17.362 5.2021 16.792 7.1931C16.0273 9.54684 14.6916 11.6745 12.904 13.3861C11.1916 15.172 9.06361 16.506 6.71001 17.2691C4.71901 17.8401 3.09101 17.6231 2.12601 16.6571C1.16101 15.6911 0.943007 14.0691 1.51401 12.0781ZM21.102 24.2131C20.8013 24.1704 20.5013 24.1371 20.202 24.1131C19.344 24.0411 18.485 24.0311 17.617 24.0431C15.9446 24.1027 14.273 23.9043 12.661 23.4551C10.2634 22.7295 8.01258 21.5867 6.01201 20.0791C5.23601 19.5141 4.55701 18.9571 3.99301 18.4611C4.2227 18.4879 4.45376 18.5013 4.68501 18.5011C5.45644 18.4917 6.2228 18.3749 6.96201 18.1541C9.46491 17.3462 11.7284 15.9302 13.55 14.0331C15.4472 12.2115 16.8631 9.948 17.671 7.4451C17.9682 6.48537 18.0728 5.4764 17.979 4.4761C18.479 5.0401 19.032 5.7191 19.596 6.4951C21.6939 9.23581 23.0424 12.4753 23.509 15.8951C23.692 17.7871 23.464 19.6951 23.731 21.5861C23.8106 22.0811 23.951 22.5645 24.149 23.0251L22.542 24.6321C22.0814 24.434 21.5981 24.2936 21.103 24.2141L21.102 24.2131Z" fill="#FF0000"/>
<path d="M7.23101 16.2181C9.17239 15.4928 10.9259 14.3404 12.362 12.8461C13.8563 11.41 15.0087 9.65649 15.734 7.71511C16.344 5.89911 16.184 4.40311 15.284 3.50311C13.484 1.70311 9.38401 2.9861 5.94101 6.4251C5.41799 6.94715 4.93025 7.50337 4.48101 8.09011C4.40728 8.18664 4.37492 8.30852 4.39105 8.42892C4.40718 8.54932 4.47047 8.65838 4.56701 8.73211C4.66355 8.80584 4.78543 8.8382 4.90582 8.82207C5.02622 8.80594 5.13528 8.74264 5.20901 8.64611C5.63328 8.09176 6.09396 7.56627 6.58801 7.07311C9.56101 4.10011 13.247 2.76211 14.636 4.15111C15.268 4.78311 15.352 5.97611 14.866 7.42411C14.1858 9.23155 13.1087 10.8633 11.714 12.1991C10.3782 13.5938 8.74646 14.6709 6.93901 15.3511C5.49201 15.8371 4.29801 15.7511 3.66601 15.1211C2.80601 14.2611 2.96601 12.4371 4.09301 10.3591C4.12164 10.3062 4.13956 10.2481 4.14576 10.1883C4.15196 10.1284 4.1463 10.068 4.12912 10.0103C4.11195 9.95263 4.08358 9.89891 4.04564 9.85221C4.0077 9.80551 3.96093 9.76673 3.90801 9.7381C3.85509 9.70948 3.79704 9.69156 3.7372 9.68536C3.67735 9.67916 3.61686 9.68482 3.5592 9.70199C3.50153 9.71917 3.44781 9.74754 3.40111 9.78548C3.35441 9.82342 3.31564 9.87018 3.28701 9.92311C1.94301 12.4081 1.84301 14.5931 3.01801 15.7681C3.31283 16.0442 3.66011 16.2582 4.03922 16.3975C4.41834 16.5368 4.82158 16.5986 5.22501 16.5791C5.90875 16.5675 6.58613 16.4456 7.23101 16.2181Z" fill="#FF0000"/>
<path d="M10.446 9.70216C10.8903 9.65634 11.3211 9.52289 11.7134 9.30953C12.1058 9.09617 12.452 8.80715 12.732 8.45916C13.814 7.27816 14.098 5.89916 13.391 5.25116C13.1717 5.07824 12.9081 4.97059 12.6304 4.94053C12.3528 4.91046 12.0722 4.9592 11.821 5.08116C11.2192 5.32015 10.6818 5.69689 10.252 6.18116C9.16999 7.36216 8.88598 8.74116 9.59298 9.38916C9.82684 9.59871 10.1321 9.71073 10.446 9.70216ZM10.927 6.80216C11.2578 6.42573 11.6708 6.13045 12.134 5.93916C12.534 5.79416 12.909 5.82516 12.856 6.33316C12.7495 6.90337 12.4702 7.42704 12.056 7.83316C11.287 8.67216 10.436 8.91716 10.211 8.71116C9.98599 8.50516 10.159 7.64416 10.929 6.80516L10.927 6.80216Z" fill="#FF0000"/>
</svg>
