<svg width="20" height="20" viewBox="0 0 20 20" fill="none" xmlns="http://www.w3.org/2000/svg">
<path d="M10 20C15.5228 20 20 15.5228 20 10C20 4.47715 15.5228 0 10 0C4.47715 0 0 4.47715 0 10C0 15.5228 4.47715 20 10 20Z" fill="white"/>
<path d="M10 19.5C15.2467 19.5 19.5 15.2467 19.5 10C19.5 4.75329 15.2467 0.5 10 0.5C4.75329 0.5 0.5 4.75329 0.5 10C0.5 15.2467 4.75329 19.5 10 19.5Z" stroke="#C9C9C9"/>
<path d="M13.447 10.648H6.324C6.23807 10.648 6.15566 10.6139 6.0949 10.5531C6.03414 10.4923 6 10.4099 6 10.324C6 10.2381 6.03414 10.1557 6.0949 10.0949C6.15566 10.0341 6.23807 10 6.324 10H13.447C13.5329 10 13.6153 10.0341 13.6761 10.0949C13.7369 10.1557 13.771 10.2381 13.771 10.324C13.771 10.4099 13.7369 10.4923 13.6761 10.5531C13.6153 10.6139 13.5329 10.648 13.447 10.648Z" fill="#111111"/>
</svg>
