<svg width="17" height="16" viewBox="0 0 17 16" fill="none" xmlns="http://www.w3.org/2000/svg">
<path d="M15.903 8.93009C15.8468 8.90558 15.7839 8.90167 15.7252 8.91905C15.6664 8.93643 15.6157 8.97398 15.582 9.02509C15.0224 9.85034 14.2873 10.5417 13.4294 11.0498C12.5715 11.5579 11.6119 11.8701 10.6192 11.9641C9.6266 12.0582 8.62545 11.9317 7.68739 11.5937C6.74933 11.2557 5.89755 10.7146 5.19297 10.0091C4.5643 9.37667 4.06927 8.62425 3.73732 7.79661C3.40538 6.96896 3.24331 6.083 3.26076 5.19145C3.2782 4.29989 3.47481 3.42095 3.83888 2.60692C4.20295 1.7929 4.72704 1.06043 5.37997 0.453087C5.42408 0.411256 5.45227 0.355388 5.45972 0.295055C5.46716 0.234722 5.45339 0.173677 5.42077 0.122381C5.38815 0.0710843 5.3387 0.0327282 5.28091 0.0138833C5.22311 -0.00496166 5.16056 -0.00312211 5.10397 0.0190865C3.82055 0.547251 2.69501 1.39744 1.83605 2.48754C0.977089 3.57764 0.413741 4.87082 0.200412 6.24218C-0.012917 7.61353 0.130983 9.01674 0.618212 10.3162C1.10544 11.6158 1.91954 12.7677 2.98187 13.6608C4.04421 14.5538 5.31888 15.1579 6.68279 15.4146C8.0467 15.6712 9.45375 15.5719 10.7681 15.1261C12.0824 14.6803 13.2595 13.9031 14.1858 12.8696C15.1121 11.8361 15.7562 10.5812 16.056 9.22609C16.0696 9.16663 16.0617 9.10426 16.0337 9.05008C16.0057 8.99589 15.9594 8.95337 15.903 8.93009ZM13.003 13.4541C11.5191 14.6499 9.64793 15.2595 7.74442 15.1673C5.84091 15.0752 4.03741 14.2876 2.67597 12.9541C1.80915 12.0987 1.15884 11.049 0.77903 9.89194C0.399218 8.73489 0.300857 7.50395 0.492111 6.30127C0.683366 5.0986 1.15872 3.95889 1.87871 2.97674C2.59871 1.9946 3.54258 1.19835 4.63197 0.654087C3.73515 1.67371 3.15118 2.93018 2.94994 4.2731C2.74871 5.61602 2.93874 6.98848 3.4973 8.22619C4.05586 9.4639 4.95927 10.5144 6.0994 11.252C7.23953 11.9896 8.56806 12.383 9.92597 12.3851H9.98597C11.0402 12.387 12.0817 12.1547 13.0353 11.7051C13.9889 11.2554 14.8307 10.5997 15.5 9.78509C15.0452 11.2264 14.1769 12.5023 13.003 13.4541Z" fill="white"/>
</svg>
