<svg width="20" height="15" viewBox="0 0 20 15" fill="none" xmlns="http://www.w3.org/2000/svg">
<path d="M4.97889 11.1269C4.90664 11.0667 4.8135 11.0376 4.71982 11.0458C4.62614 11.054 4.53953 11.099 4.47889 11.1709L3.5879 12.2339L3.2659 11.9609C3.19376 11.8999 3.10034 11.8701 3.0062 11.8779C2.91205 11.8858 2.82489 11.9308 2.76389 12.0029C2.70289 12.075 2.67305 12.1685 2.68093 12.2626C2.68881 12.3567 2.73376 12.4439 2.80589 12.5049L3.4059 13.0049C3.47022 13.0592 3.55171 13.089 3.6359 13.0889H3.66589C3.71271 13.085 3.75828 13.0718 3.79999 13.0502C3.8417 13.0286 3.87871 12.9989 3.9089 12.9629L5.0299 11.6249C5.08866 11.5519 5.11626 11.4587 5.10671 11.3654C5.09716 11.2722 5.05124 11.1865 4.97889 11.1269Z" fill="white"/>
<path d="M18.4821 5.634H17.9701C17.5411 5.614 17.1961 5.249 16.7971 4.826C16.5301 4.52175 16.228 4.25019 15.8971 4.017V0.973C15.8969 0.715025 15.7943 0.467694 15.6119 0.285278C15.4294 0.102863 15.1821 0.000264725 14.9241 0H3.31114C3.05316 0.000264725 2.80583 0.102863 2.62342 0.285278C2.441 0.467694 2.3384 0.715025 2.33814 0.973V3.444C2.33814 3.53842 2.37565 3.62897 2.44241 3.69573C2.50917 3.7625 2.59972 3.8 2.69414 3.8C2.78856 3.8 2.87911 3.7625 2.94587 3.69573C3.01263 3.62897 3.05014 3.53842 3.05014 3.444V0.973C3.05117 0.904365 3.0789 0.838832 3.12743 0.790295C3.17597 0.741757 3.2415 0.714034 3.31014 0.713001H7.25314V3.86C7.25344 3.92344 7.27069 3.98564 7.30309 4.04018C7.3355 4.09471 7.38189 4.1396 7.43746 4.17019C7.49304 4.20078 7.55578 4.21597 7.61919 4.21418C7.6826 4.21239 7.74438 4.19368 7.79814 4.16L9.12114 3.333L10.4431 4.16C10.4969 4.19368 10.5587 4.21239 10.6221 4.21418C10.6855 4.21597 10.7482 4.20078 10.8038 4.17019C10.8594 4.1396 10.9058 4.09471 10.9382 4.04018C10.9706 3.98564 10.9878 3.92344 10.9881 3.86V0.712002H14.9291C14.9978 0.713034 15.0633 0.740758 15.1118 0.789295C15.1604 0.837833 15.1881 0.903365 15.1891 0.972V3.715C15.0687 3.68981 14.9462 3.67608 14.8231 3.674H12.8001C12.6533 3.66557 12.5067 3.69444 12.374 3.75791C12.2413 3.82138 12.1268 3.91739 12.0411 4.037C11.9562 4.18115 11.9077 4.34388 11.9001 4.51104C11.8924 4.67819 11.9257 4.84468 11.9971 4.996C12.0295 5.08039 12.0693 5.16171 12.1161 5.239H9.41614C9.24838 5.23846 9.08291 5.27801 8.93353 5.35435C8.78414 5.4307 8.65516 5.54164 8.55733 5.67792C8.4595 5.8142 8.39564 5.97189 8.37108 6.13784C8.34652 6.3038 8.36197 6.47322 8.41614 6.632H8.32814C8.06086 6.6485 7.80994 6.76631 7.62652 6.96141C7.4431 7.15651 7.34098 7.41422 7.34098 7.682C7.34098 7.94979 7.4431 8.20749 7.62652 8.40259C7.80994 8.59769 8.06086 8.7155 8.32814 8.732H8.42214C8.36972 8.88601 8.35367 9.05006 8.37524 9.21131C8.3968 9.37255 8.4554 9.52662 8.54645 9.66145C8.63749 9.79627 8.75851 9.90818 8.90002 9.98843C9.04153 10.0687 9.1997 10.1151 9.36214 10.124C9.30777 10.2828 9.29217 10.4524 9.31664 10.6185C9.3411 10.7845 9.40492 10.9424 9.50278 11.0788C9.60064 11.2152 9.72969 11.3262 9.87918 11.4026C10.0287 11.479 10.1943 11.5186 10.3621 11.518H14.7751C14.916 11.5186 15.0564 11.5018 15.1931 11.468V12.59C15.1924 12.6588 15.1648 12.7246 15.1162 12.7733C15.0676 12.8221 15.0019 12.85 14.9331 12.851H6.67914C6.81954 12.3513 6.8229 11.8229 6.68885 11.3215C6.55481 10.82 6.28831 10.3638 5.91728 10.0007C5.54626 9.6377 5.0844 9.38116 4.58011 9.25805C4.07583 9.13493 3.54771 9.14977 3.05114 9.301V6.646C3.05114 6.55158 3.01363 6.46103 2.94687 6.39427C2.88011 6.32751 2.78956 6.29 2.69514 6.29C2.60072 6.29 2.51017 6.32751 2.44341 6.39427C2.37665 6.46103 2.33914 6.55158 2.33914 6.646V9.631C1.9704 9.86497 1.65942 10.1794 1.42951 10.5507C1.19959 10.9219 1.05671 11.3404 1.01158 11.7748C0.966454 12.2092 1.02025 12.6481 1.16892 13.0587C1.3176 13.4693 1.55731 13.8409 1.87007 14.1457C2.18283 14.4505 2.56053 14.6805 2.97485 14.8185C3.38917 14.9565 3.82936 14.9989 4.26241 14.9426C4.69546 14.8862 5.11013 14.7326 5.47533 14.4931C5.84053 14.2537 6.14679 13.9347 6.37114 13.56H14.9291C15.1873 13.5597 15.4348 13.457 15.6172 13.2744C15.7997 13.0917 15.9021 12.8441 15.9021 12.586V11.123C15.9811 11.067 16.0561 11.009 16.1291 10.953C16.403 10.6841 16.765 10.5235 17.1481 10.501H18.4831C18.6829 10.5007 18.8743 10.4213 19.0157 10.2802C19.157 10.1391 19.2366 9.94772 19.2371 9.748V6.388C19.2369 6.18811 19.1574 5.99648 19.016 5.85514C18.8747 5.71379 18.683 5.63427 18.4831 5.634H18.4821ZM10.2751 3.221L9.30914 2.621C9.25249 2.58551 9.18699 2.56669 9.12014 2.56669C9.05329 2.56669 8.98779 2.58551 8.93114 2.621L7.96414 3.221V0.712002H10.2741L10.2751 3.221ZM3.89314 14.251C3.46154 14.2512 3.03957 14.1234 2.68061 13.8838C2.32165 13.6441 2.04182 13.3034 1.87652 12.9047C1.71122 12.506 1.66786 12.0673 1.75194 11.6439C1.83602 11.2206 2.04376 10.8317 2.34888 10.5264C2.654 10.2212 3.04279 10.0133 3.46608 9.929C3.88938 9.84473 4.32816 9.88788 4.72692 10.053C5.12569 10.2181 5.46653 10.4978 5.70634 10.8566C5.94614 11.2155 6.07414 11.6374 6.07414 12.069C6.07361 12.6474 5.84369 13.2019 5.43482 13.611C5.02594 14.02 4.47151 14.2502 3.89314 14.251ZM18.5241 9.751C18.5236 9.76189 18.519 9.77217 18.5112 9.77978C18.5034 9.78739 18.493 9.79176 18.4821 9.792H17.1471C16.6058 9.80921 16.0891 10.0224 15.6931 10.392C15.4463 10.6388 15.1192 10.7889 14.7711 10.815H10.3591C10.269 10.815 10.1825 10.7792 10.1187 10.7154C10.055 10.6517 10.0191 10.5652 10.0191 10.475C10.0191 10.3848 10.055 10.2983 10.1187 10.2346C10.1825 10.1708 10.269 10.135 10.3591 10.135H11.5411C11.6356 10.135 11.7261 10.0975 11.7929 10.0307C11.8596 9.96397 11.8971 9.87342 11.8971 9.779C11.8971 9.68459 11.8596 9.59403 11.7929 9.52727C11.7261 9.46051 11.6356 9.423 11.5411 9.423H9.41914C9.33202 9.41828 9.25003 9.38035 9.19003 9.31701C9.13004 9.25367 9.0966 9.16974 9.0966 9.0825C9.0966 8.99526 9.13004 8.91133 9.19003 8.848C9.25003 8.78466 9.33202 8.74672 9.41914 8.742H11.5411C11.6356 8.742 11.7261 8.70449 11.7929 8.63773C11.8596 8.57097 11.8971 8.48042 11.8971 8.386C11.8971 8.29158 11.8596 8.20103 11.7929 8.13427C11.7261 8.06751 11.6356 8.03 11.5411 8.03H8.32914C8.23897 8.03 8.15248 7.99418 8.08872 7.93042C8.02496 7.86665 7.98914 7.78018 7.98914 7.69C7.98914 7.59983 8.02496 7.51335 8.08872 7.44958C8.15248 7.38582 8.23897 7.35 8.32914 7.35H11.5411C11.6356 7.35 11.7261 7.31249 11.7929 7.24573C11.8596 7.17897 11.8971 7.08842 11.8971 6.994C11.8971 6.89958 11.8596 6.80903 11.7929 6.74227C11.7261 6.67551 11.6356 6.638 11.5411 6.638H9.41914C9.33202 6.63328 9.25003 6.59535 9.19003 6.53201C9.13004 6.46867 9.0966 6.38474 9.0966 6.2975C9.0966 6.21026 9.13004 6.12633 9.19003 6.063C9.25003 5.99966 9.33202 5.96172 9.41914 5.957H14.6831C14.7776 5.957 14.8681 5.91949 14.9349 5.85273C15.0016 5.78597 15.0391 5.69542 15.0391 5.601C15.0391 5.50658 15.0016 5.41603 14.9349 5.34927C14.8681 5.28251 14.7776 5.245 14.6831 5.245H13.3931C13.2353 5.24598 13.0809 5.19859 12.9507 5.1092C12.8206 5.01981 12.7209 4.89272 12.6651 4.745C12.5971 4.569 12.6161 4.469 12.6351 4.445C12.6859 4.40611 12.7496 4.3882 12.8131 4.395H14.8131C15.1075 4.44307 15.3891 4.55014 15.641 4.70979C15.8929 4.86943 16.11 5.07836 16.2791 5.324C16.4741 5.59887 16.7223 5.83176 17.009 6.00887C17.2957 6.18598 17.6151 6.30368 17.9481 6.355H18.4811C18.4922 6.35525 18.5027 6.35976 18.5106 6.36758C18.5184 6.37541 18.5229 6.38594 18.5231 6.397V9.757L18.5241 9.751Z" fill="white"/>
<path d="M2.69536 5.40102C2.76601 5.40122 2.83513 5.38045 2.89397 5.34134C2.95281 5.30223 2.99873 5.24654 3.0259 5.18132C3.05307 5.11611 3.06029 5.0443 3.04663 4.97498C3.03296 4.90566 2.99904 4.84196 2.94915 4.79193C2.89926 4.74191 2.83566 4.7078 2.76638 4.69394C2.6971 4.68009 2.62527 4.68711 2.55998 4.7141C2.49468 4.74109 2.43887 4.78684 2.3996 4.84557C2.36032 4.9043 2.33936 4.97336 2.33936 5.04401C2.3391 5.09088 2.34812 5.13735 2.3659 5.18071C2.38369 5.22408 2.40988 5.26349 2.44298 5.29668C2.47608 5.32987 2.51542 5.35618 2.55874 5.37409C2.60205 5.39199 2.64849 5.40115 2.69536 5.40102Z" fill="white"/>
</svg>
