<svg width="20" height="20" viewBox="0 0 20 20" fill="none" xmlns="http://www.w3.org/2000/svg">
<path d="M10 20C15.5228 20 20 15.5228 20 10C20 4.47715 15.5228 0 10 0C4.47715 0 0 4.47715 0 10C0 15.5228 4.47715 20 10 20Z" fill="white"/>
<path d="M10 19.5C15.2467 19.5 19.5 15.2467 19.5 10C19.5 4.75329 15.2467 0.5 10 0.5C4.75329 0.5 0.5 4.75329 0.5 10C0.5 15.2467 4.75329 19.5 10 19.5Z" stroke="#C9C9C9"/>
<path d="M13.577 9.62401H10.283V6.32901C10.283 6.24162 10.2483 6.15781 10.1865 6.09602C10.1247 6.03423 10.0409 5.99951 9.95351 5.99951C9.86612 5.99951 9.78231 6.03423 9.72052 6.09602C9.65873 6.15781 9.62401 6.24162 9.62401 6.32901V9.62401H6.32901C6.24162 9.62401 6.15781 9.65873 6.09602 9.72052C6.03423 9.78231 5.99951 9.86612 5.99951 9.95351C5.99951 10.0409 6.03423 10.1247 6.09602 10.1865C6.15781 10.2483 6.24162 10.283 6.32901 10.283H9.62401V13.577C9.62401 13.6644 9.65873 13.7482 9.72052 13.81C9.78231 13.8718 9.86612 13.9065 9.95351 13.9065C10.0409 13.9065 10.1247 13.8718 10.1865 13.81C10.2483 13.7482 10.283 13.6644 10.283 13.577V10.283H13.577C13.6644 10.283 13.7482 10.2483 13.81 10.1865C13.8718 10.1247 13.9065 10.0409 13.9065 9.95351C13.9065 9.86612 13.8718 9.78231 13.81 9.72052C13.7482 9.65873 13.6644 9.62401 13.577 9.62401Z" fill="#111111"/>
</svg>
