<svg width="5" height="8" viewBox="0 0 5 8" fill="none" xmlns="http://www.w3.org/2000/svg">
<path d="M3.95095 3.50003L0.528944 0.080027C0.474117 0.0372747 0.405559 0.0160384 0.336165 0.0203156C0.266771 0.0245928 0.201336 0.0540885 0.152174 0.10325C0.103013 0.152412 0.0735125 0.217849 0.0692353 0.287243C0.0649581 0.356636 0.0861983 0.4252 0.128951 0.480027L3.34495 3.70503L0.124945 6.92603C0.0821929 6.98085 0.0609603 7.04942 0.0652375 7.11881C0.0695147 7.18821 0.0990072 7.25364 0.148169 7.3028C0.197331 7.35197 0.262774 7.38146 0.332167 7.38574C0.401561 7.39002 0.47012 7.36878 0.524947 7.32603L3.94795 3.90303C4.00178 3.84998 4.03233 3.77772 4.0329 3.70215C4.03346 3.62657 4.00399 3.55387 3.95095 3.50003Z" fill="#111111"/>
</svg>
