<svg width="15" height="14" viewBox="0 0 15 14" fill="none" xmlns="http://www.w3.org/2000/svg">
<path d="M14.6638 12.899L10.6698 8.90499C11.5482 7.81919 11.9764 6.43778 11.8663 5.04555C11.7562 3.65332 11.1161 2.35639 10.078 1.42216C9.03993 0.487935 7.68296 -0.0123863 6.28686 0.0243497C4.89076 0.0610857 3.56197 0.632078 2.57444 1.61961C1.58691 2.60714 1.01592 3.93593 0.979184 5.33203C0.942448 6.72812 1.44277 8.0851 2.377 9.1232C3.31123 10.1613 4.60815 10.8014 6.00038 10.9115C7.39262 11.0216 8.77403 10.5933 9.85982 9.71499L13.8538 13.709C13.8804 13.7356 13.912 13.7568 13.9467 13.7712C13.9814 13.7856 14.0187 13.793 14.0563 13.793C14.0939 13.793 14.1312 13.7856 14.1659 13.7712C14.2007 13.7568 14.2323 13.7356 14.2588 13.709L14.6588 13.309C14.6865 13.2827 14.7087 13.2511 14.724 13.216C14.7393 13.181 14.7474 13.1433 14.7479 13.105C14.7484 13.0668 14.7412 13.0289 14.7267 12.9935C14.7123 12.9581 14.6909 12.926 14.6638 12.899ZM6.44182 9.78299C5.59136 9.78299 4.76 9.5308 4.05287 9.05831C3.34574 8.58582 2.7946 7.91425 2.46914 7.12853C2.14368 6.3428 2.05853 5.47822 2.22444 4.6441C2.39036 3.80998 2.7999 3.04379 3.40126 2.44243C4.00263 1.84106 4.76882 1.43153 5.60293 1.26561C6.43705 1.09969 7.30164 1.18485 8.08736 1.51031C8.87308 1.83576 9.54465 2.3869 10.0171 3.09404C10.4896 3.80117 10.7418 4.63253 10.7418 5.48299C10.7418 6.62342 10.2888 7.71714 9.48238 8.52355C8.67597 9.32995 7.58225 9.78299 6.44182 9.78299Z" fill="#111111"/>
</svg>
