<svg width="17" height="17" viewBox="0 0 17 17" fill="none" xmlns="http://www.w3.org/2000/svg">
<path d="M13.8 3.20007C13.1134 2.4632 12.2854 1.87218 11.3654 1.46226C10.4454 1.05234 9.45226 0.831923 8.44524 0.814155C7.43821 0.796388 6.43792 0.981634 5.50403 1.35884C4.57015 1.73605 3.72181 2.2975 3.00963 3.00969C2.29744 3.72188 1.73599 4.57021 1.35878 5.5041C0.981573 6.43798 0.796327 7.43827 0.814094 8.4453C0.831862 9.45232 1.05228 10.4455 1.4622 11.3655C1.87212 12.2854 2.46314 13.1135 3.20001 13.8001C3.88663 14.5369 4.71464 15.128 5.63463 15.5379C6.55462 15.9478 7.54776 16.1682 8.55478 16.186C9.56181 16.2038 10.5621 16.0185 11.496 15.6413C12.4299 15.2641 13.2782 14.7026 13.9904 13.9905C14.7026 13.2783 15.264 12.4299 15.6412 11.496C16.0184 10.5622 16.2037 9.56187 16.1859 8.55485C16.1682 7.54782 15.9477 6.55468 15.5378 5.63469C15.1279 4.7147 14.5369 3.88669 13.8 3.20007ZM13.2 13.2001C11.9502 14.4308 10.2646 15.1176 8.51059 15.1109C6.75656 15.1042 5.07629 14.4044 3.83599 13.1641C2.59569 11.9238 1.89592 10.2435 1.88918 8.48949C1.88244 6.73546 2.56928 5.04986 3.80001 3.80007C4.4155 3.17505 5.14861 2.67804 5.95708 2.33769C6.76555 1.99734 7.6334 1.82037 8.51059 1.817C9.38778 1.81363 10.257 1.98392 11.068 2.31805C11.8791 2.65218 12.616 3.14354 13.2363 3.76381C13.8565 4.38408 14.3479 5.12099 14.682 5.93206C15.0162 6.74312 15.1865 7.6123 15.1831 8.48949C15.1797 9.36668 15.0027 10.2345 14.6624 11.043C14.322 11.8515 13.825 12.5846 13.2 13.2001Z" fill="#273773"/>
<path d="M11.805 5.19501C11.7254 5.11562 11.6175 5.07104 11.505 5.07104C11.3926 5.07104 11.2847 5.11562 11.205 5.19501L8.50501 7.895L5.80502 5.19501C5.72336 5.12691 5.61917 5.0918 5.51295 5.0966C5.40673 5.1014 5.30614 5.14576 5.23095 5.22095C5.15576 5.29613 5.11141 5.39672 5.10661 5.50294C5.10181 5.60917 5.13691 5.71334 5.20501 5.795L7.90501 8.49501L5.20501 11.195C5.14587 11.2548 5.10565 11.3307 5.08937 11.4132C5.07308 11.4957 5.08147 11.5811 5.11347 11.6589C5.14548 11.7367 5.19968 11.8033 5.26931 11.8504C5.33895 11.8976 5.42093 11.9232 5.50501 11.924C5.56092 11.9242 5.6163 11.9132 5.66784 11.8916C5.71939 11.8699 5.76605 11.8381 5.80502 11.798L8.50501 9.09801L11.205 11.798C11.2846 11.8778 11.3923 11.923 11.505 11.924C11.561 11.9245 11.6164 11.9136 11.668 11.892C11.7196 11.8703 11.7662 11.8383 11.805 11.798C11.8844 11.7183 11.929 11.6105 11.929 11.498C11.929 11.3855 11.8844 11.2777 11.805 11.198L9.10502 8.498L11.805 5.798C11.8448 5.7585 11.8763 5.71153 11.8979 5.65979C11.9194 5.60805 11.9305 5.55255 11.9305 5.49651C11.9305 5.44046 11.9194 5.38497 11.8979 5.33322C11.8763 5.28148 11.8448 5.23451 11.805 5.19501Z" fill="#273773"/>
</svg>
