<svg width="14" height="14" viewBox="0 0 14 14" fill="none" xmlns="http://www.w3.org/2000/svg">
<path d="M13.8799 0.11996C13.8232 0.0632185 13.7511 0.0243536 13.6726 0.00817862C13.594 -0.00799638 13.5124 -0.000770969 13.4379 0.02896L0.257914 5.29896C0.183999 5.32837 0.120238 5.37866 0.0744029 5.44368C0.0285681 5.5087 0.00263926 5.58565 -0.000222782 5.66515C-0.00308482 5.74465 0.0172435 5.82327 0.0582842 5.89142C0.0993249 5.95957 0.159305 6.01431 0.230914 6.04896L5.43091 8.56996L7.95191 13.77C7.98558 13.8384 8.03767 13.8961 8.10233 13.9365C8.16699 13.977 8.24164 13.9986 8.31791 13.999H8.33291C8.41237 13.9961 8.48926 13.9701 8.55425 13.9243C8.61923 13.8785 8.66949 13.8148 8.69891 13.741L13.9709 0.56196C14.0006 0.487461 14.0079 0.405878 13.9917 0.327314C13.9755 0.24875 13.9367 0.176655 13.8799 0.11996ZM1.42491 5.71796L11.8869 1.53296L5.65191 7.76796L1.42491 5.71796ZM8.28291 12.576L6.23191 8.34796L12.4669 2.11296L8.28291 12.576Z" fill="#273773"/>
</svg>
