<svg width="375" height="334" viewBox="0 0 375 334" fill="none" xmlns="http://www.w3.org/2000/svg">
<path d="M226.05 272.416C93.663 272.416 57.465 136.204 -18.838 136.204C-25.1166 136.233 -31.3625 137.111 -37.406 138.813L-54.017 307.313C-13.674 290.145 40.739 256.653 89.226 256.653C158.307 256.653 191.305 329.23 268.347 329.23C313.368 329.23 353.625 311.415 393.63 293.63V216.144C342.207 247.321 288.594 272.416 226.05 272.416Z" fill="url(#paint0_linear_1_9146)"/>
<path d="M283.014 175.002V89.3981C283.014 85.4078 279.779 82.1731 275.789 82.1731L90.529 82.1731C86.5388 82.1731 83.304 85.4078 83.304 89.3981V175.002C83.304 178.992 86.5388 182.227 90.529 182.227H275.789C279.779 182.227 283.014 178.992 283.014 175.002Z" fill="#0D4DBC"/>
<path d="M274.315 84.9761H92.0021C88.7463 84.9761 86.1071 87.6154 86.1071 90.8711V173.529C86.1071 176.785 88.7463 179.424 92.0021 179.424H274.315C277.571 179.424 280.21 176.785 280.21 173.529V90.8711C280.21 87.6154 277.571 84.9761 274.315 84.9761Z" fill="#273773"/>
<path d="M277.408 167V157.45C277.408 157.06 277.279 156.681 277.041 156.371C276.804 156.062 276.47 155.84 276.093 155.739L273.52 155.054C272.3 154.73 271.221 154.012 270.451 153.011C269.681 152.01 269.264 150.783 269.265 149.52V114.877C269.265 113.615 269.682 112.388 270.452 111.387C271.221 110.386 272.3 109.667 273.52 109.343L276.093 108.66C276.47 108.56 276.804 108.338 277.041 108.028C277.279 107.719 277.408 107.339 277.408 106.949V97.4002C277.408 96.1372 277.159 94.8865 276.676 93.7196C276.192 92.5528 275.484 91.4926 274.59 90.5995C273.697 89.7065 272.637 88.9982 271.47 88.515C270.303 88.0317 269.052 87.7831 267.789 87.7832H98.529C97.266 87.7831 96.0153 88.0317 94.8483 88.515C93.6813 88.9982 92.621 89.7065 91.7278 90.5995C90.8346 91.4926 90.126 92.5528 89.6425 93.7196C89.1591 94.8865 88.9102 96.1372 88.91 97.4002V167C88.9103 169.551 89.9238 171.998 91.7277 173.802C93.5315 175.605 95.978 176.619 98.529 176.619H267.789C270.34 176.619 272.787 175.605 274.59 173.802C276.394 171.998 277.408 169.551 277.408 167Z" fill="#4D89F4"/>
<path d="M241.439 115.233H207.505V149.167H241.439V115.233Z" fill="#56D5A8"/>
<path d="M200.126 115.233H166.192V149.167H200.126V115.233Z" fill="#273773"/>
<path d="M158.813 115.233H124.879V149.167H158.813V115.233Z" fill="#273773"/>
<path d="M237.641 142.833C233.938 142.833 230.349 141.549 227.486 139.199C224.623 136.85 222.663 133.58 221.941 129.948C221.218 126.316 221.778 122.545 223.524 119.279C225.269 116.013 228.094 113.453 231.515 112.036C234.937 110.618 238.744 110.431 242.288 111.506C245.832 112.581 248.894 114.852 250.951 117.931C253.009 121.011 253.935 124.708 253.572 128.394C253.209 132.079 251.58 135.525 248.961 138.144C247.478 139.636 245.714 140.818 243.771 141.623C241.828 142.428 239.744 142.839 237.641 142.833ZM237.641 114.415C234.77 114.417 231.988 115.415 229.77 117.238C227.552 119.061 226.034 121.597 225.476 124.413C224.918 127.229 225.353 130.152 226.708 132.684C228.064 135.215 230.254 137.198 232.908 138.295C235.561 139.392 238.513 139.536 241.26 138.701C244.007 137.866 246.379 136.104 247.973 133.716C249.567 131.328 250.284 128.461 250.001 125.603C249.718 122.746 248.453 120.075 246.422 118.046C245.27 116.892 243.901 115.978 242.394 115.354C240.887 114.731 239.272 114.412 237.641 114.415Z" fill="white"/>
<path d="M247.69 136.876C246.841 137.719 245.889 138.451 244.856 139.053C244.948 139.18 245.048 139.301 245.156 139.415L253.673 147.932C254.35 148.592 255.259 148.959 256.204 148.954C257.15 148.948 258.054 148.569 258.723 147.901C259.391 147.232 259.769 146.327 259.774 145.382C259.779 144.437 259.412 143.527 258.751 142.851L250.236 134.335C250.121 134.228 250.001 134.128 249.874 134.035C249.269 135.071 248.535 136.025 247.69 136.876Z" fill="white"/>
<path d="M137.956 206.958C137.956 206.958 145.456 236.291 147.181 241.894C147.828 243.958 147.956 246.149 147.555 248.275C147.154 250.4 146.235 252.394 144.881 254.08C143.155 256.255 125.606 281.68 123.592 298.64C123.592 298.64 130.092 301.668 133.749 303.685C137.406 305.702 143.206 305.704 143.206 305.704V310.504H108.34C108.34 310.504 106.614 301.77 112.369 296.952C112.369 296.952 114.669 286.485 116.396 277.161C118.123 267.837 119.066 256.401 127.946 251.946L116.396 229.692V206.958H137.956Z" fill="#273773"/>
<path d="M116.11 298.593C116.11 298.593 123.302 259.165 129.919 254.935C136.536 250.705 136.104 248.426 136.104 248.426C134.524 244.591 126.179 214.91 126.179 214.91L116.397 211.831V229.694L127.947 251.948C119.067 256.403 118.123 267.839 116.397 277.163C114.671 286.487 112.37 296.954 112.37 296.954C106.615 301.771 108.341 310.506 108.341 310.506H111.506C110.644 299.13 116.11 298.593 116.11 298.593Z" fill="#112261"/>
<path d="M97.1291 206.958V245.921C97.1291 245.921 89.3741 239.321 76.1161 238.021C62.8581 236.721 56.841 232.85 56.841 232.85C56.841 232.85 52.241 227.234 48.21 227.809C48.21 227.809 25.195 245.647 30.086 262.621H34.686C34.686 262.621 36.125 257.614 40.152 254.938C44.179 252.262 49.934 252.245 55.4 247.651C55.4 247.651 57.8591 246.951 68.7131 252.772C75.3654 256.532 82.5023 259.362 89.924 261.182C95.1011 262.621 97.403 265.139 101.432 265.139C105.461 265.139 109.775 261.47 110.639 259.739C111.503 258.008 123.584 226.902 125.887 222.751C127.745 219.512 130.108 216.591 132.887 214.097C134.802 212.27 132.887 206.958 132.887 206.958H97.1291Z" fill="#273773"/>
<path d="M181.518 132.824L168.185 143.889C168.185 143.889 168.425 132.464 165.444 127.889L169.711 119.949L181.518 132.824Z" fill="white"/>
<path d="M169.709 119.947L165.442 127.887C166.631 130.082 167.372 132.492 167.621 134.976C171.113 134.002 175.055 138.185 176.212 137.227L178.989 134.922C179.945 134.13 181.069 133.567 182.276 133.276L184.676 132.701L169.709 119.947Z" fill="#4D89F4"/>
<path d="M188.933 112.544C191.221 117.054 190.288 130.487 184.676 132.698C179.064 134.909 173.076 125.11 172.471 125.746C171.866 126.382 170.056 126.134 168.779 123.08C167.502 120.026 166.225 113.568 176.173 109.486C186.121 105.404 188.933 112.544 188.933 112.544Z" fill="white"/>
<path d="M173.848 121.079H175.983C175.983 121.079 176.783 115.879 181.854 115.879C181.854 115.879 178.919 112.41 180.52 110.809C182.121 109.208 189.191 114.809 190.793 111.477C192.395 108.145 197.193 104.005 192.527 100.804C187.861 97.6031 176.784 104.138 170.515 104.004C164.246 103.87 161.443 110.404 163.315 115.343C164.417 118.397 164.463 121.732 163.448 124.815L165.448 127.885L168.784 123.085C168.784 123.085 166.911 117.859 169.184 116.548C172.246 114.779 173.848 121.079 173.848 121.079Z" fill="#232323"/>
<path d="M158.006 127.886C158.006 127.886 158.282 122.793 161.146 122.612C164.01 122.431 170.917 134.554 167.919 155.948C164.921 177.342 138.439 188.713 137.956 196.004C137.635 199.648 137.635 203.313 137.956 206.957H97.1321V198.024C97.1321 193.388 100.754 181.312 111.143 169.958C121.532 158.604 130.709 127.886 158.006 127.886Z" fill="#56D5A8"/>
<path d="M165.444 142.662C164.093 142.192 164.106 139.902 162.738 135.327L154.758 140.005C154.758 140.005 139.887 165.127 126.358 181.071C118.022 190.895 117.942 197.181 117.75 206.958H137.95C137.629 203.314 137.629 199.649 137.95 196.005C138.433 188.714 164.914 177.343 167.913 155.949C168.993 148.994 168.902 141.907 167.643 134.982L167.618 134.976C167.618 134.976 168.85 143.844 165.444 142.662Z" fill="#34B98B"/>
<path d="M161.608 175.807C157.781 173.507 155.484 168.725 152.423 168.725C152.423 168.725 156.441 164.131 158.355 155.135C160.269 146.139 161.227 136.762 152.423 135.422C143.619 134.082 135.388 146.906 136.153 176.191C136.153 176.191 136.739 188.419 173.394 188.438C173.394 185.855 173.402 182.928 173.413 180.093C170.048 179.149 164.242 177.383 161.608 175.807Z" fill="#56D5A8"/>
<path d="M184.677 180.782H175.964C175.964 180.782 174.94 180.523 173.414 180.093C173.403 182.624 173.397 185.226 173.395 187.593L174.253 188.44H187.421C187.834 188.44 188.231 188.276 188.523 187.983C188.815 187.691 188.98 187.295 188.98 186.881V183.081C188.98 183.081 188.411 180.782 184.677 180.782Z" fill="white"/>
<path d="M194.214 186.971H187.743C187.743 186.378 187.606 185.792 187.342 185.26C187.079 184.728 186.696 184.264 186.224 183.905C185.752 183.545 185.204 183.298 184.621 183.185C184.039 183.071 183.438 183.094 182.865 183.25C182.219 183.424 181.629 183.765 181.156 184.239C180.684 184.713 180.344 185.303 180.172 185.95C180.015 186.523 179.993 187.123 180.106 187.706C180.219 188.288 180.466 188.837 180.825 189.309C181.185 189.781 181.649 190.163 182.181 190.427C182.712 190.69 183.298 190.828 183.891 190.828H190.647C190.952 190.84 191.251 190.918 191.524 191.056C191.796 191.194 192.035 191.389 192.225 191.628C192.641 192.105 193.207 192.427 193.829 192.541C194.452 192.655 195.094 192.555 195.653 192.257C196.211 191.959 196.652 191.48 196.903 190.9C197.155 190.319 197.203 189.67 197.038 189.059C196.864 188.448 196.493 187.911 195.982 187.534C195.471 187.156 194.849 186.958 194.214 186.971Z" fill="#273773"/>
<path d="M294.811 289.931H202.453C202.402 289.935 202.352 289.922 202.309 289.894C202.267 289.865 202.235 289.824 202.219 289.775C202.197 289.73 202.19 289.678 202.2 289.629C202.21 289.579 202.236 289.534 202.274 289.501L221.709 270.068L218.127 258.723L291.87 248.105L295.794 204.726L197.725 194.118L196.185 189.24C196.113 189.013 195.998 188.803 195.845 188.62C195.692 188.438 195.504 188.288 195.293 188.178C195.082 188.068 194.851 188.001 194.614 187.981C194.377 187.96 194.138 187.986 193.911 188.058C193.684 188.13 193.474 188.245 193.291 188.399C193.109 188.552 192.959 188.739 192.849 188.95C192.739 189.161 192.672 189.392 192.652 189.629C192.631 189.866 192.657 190.105 192.729 190.332L217.592 269.062L199.714 286.94C199.172 287.482 198.803 288.173 198.653 288.924C198.504 289.676 198.58 290.455 198.873 291.164C199.166 291.872 199.663 292.477 200.3 292.903C200.937 293.329 201.687 293.557 202.453 293.557H294.811C295.292 293.557 295.753 293.366 296.092 293.026C296.432 292.687 296.623 292.226 296.623 291.745C296.623 291.265 296.432 290.804 296.092 290.464C295.753 290.124 295.292 289.933 294.811 289.933V289.931ZM290.955 238.112L276.723 239.273L276.567 231.921L291.549 231.531L290.955 238.112ZM256.788 222.293L257.732 230.602L242.587 230.996L240.848 221.92L256.788 222.293ZM240.501 220.099L238.765 211.038L255.642 212.184L256.584 220.476L240.501 220.099ZM258.617 222.337L274.562 222.71L274.72 230.157L259.55 230.557L258.617 222.337ZM257.939 232.407L258.885 240.726L244.676 241.885L242.935 232.799L257.939 232.407ZM240.752 231.045L225.639 231.439L223.072 221.505L238.994 221.878L240.752 231.045ZM241.098 232.845L242.858 242.033L228.674 243.188L226.103 233.238L241.098 232.845ZM243.198 243.822L244.962 253.022L231.701 254.936L229.128 244.973L243.198 243.822ZM245.014 243.674L259.084 242.526L260.03 250.856L246.757 252.767L245.014 243.674ZM260.89 242.38L274.949 241.232L275.105 248.683L261.823 250.596L260.89 242.38ZM260.69 240.58L259.754 232.362L274.754 231.97L274.91 239.421L260.69 240.58ZM291.715 229.713L276.53 230.113L276.376 222.757L292.311 223.13L291.715 229.713ZM276.339 220.938L276.183 213.58L293.073 214.728L292.473 221.317L276.339 220.938ZM274.525 220.896L258.411 220.519L257.477 212.309L274.366 213.457L274.525 220.896ZM257.271 210.48L256.34 202.28L274.174 204.208L274.33 211.638L257.271 210.48ZM255.434 210.354L238.414 209.199L236.682 200.155L254.494 202.081L255.434 210.354ZM236.545 209.073L219.569 207.918L217.015 198.027L234.796 199.951L236.545 209.073ZM236.897 210.913L238.648 220.058L222.606 219.681L220.046 209.769L236.897 210.913ZM220.721 219.635L205.671 219.283L202.285 208.559L218.14 209.636L220.721 219.635ZM221.193 221.46L223.781 231.486L209.644 231.857L206.249 221.11L221.193 221.46ZM224.246 233.288L226.846 243.339L213.613 244.418L210.213 233.654L224.246 233.288ZM227.301 245.12L229.901 255.195L217.572 256.971L214.172 246.193L227.301 245.12ZM276.916 248.426L276.76 241.087L290.788 239.945L290.194 246.515L276.916 248.426ZM293.232 212.926L276.142 211.765L275.986 204.411L293.828 206.339L293.232 212.926ZM215.085 197.826L217.66 207.797L201.701 206.703L198.323 196.003L215.085 197.826Z" fill="#273773"/>
<path d="M219.65 273.989C222.095 273.989 224.076 272.008 224.076 269.563C224.076 267.119 222.095 265.137 219.65 265.137C217.206 265.137 215.224 267.119 215.224 269.563C215.224 272.008 217.206 273.989 219.65 273.989Z" fill="#273773"/>
<path d="M200.935 310.506C205.124 310.506 208.52 307.11 208.52 302.921C208.52 298.732 205.124 295.336 200.935 295.336C196.746 295.336 193.35 298.732 193.35 302.921C193.35 307.11 196.746 310.506 200.935 310.506Z" fill="#112261"/>
<path d="M202.453 291.742V295.902C202.453 296.551 202.319 297.193 202.06 297.787C201.8 298.382 201.421 298.917 200.946 299.358L199.498 300.702C198.969 301.087 198.589 301.642 198.42 302.273C198.251 302.905 198.303 303.576 198.569 304.173C198.957 304.788 199.573 305.225 200.282 305.387C200.991 305.548 201.735 305.423 202.351 305.037L206.858 302.317C207.554 301.897 208.13 301.304 208.53 300.596C208.93 299.888 209.14 299.088 209.14 298.275V291.743L202.453 291.742Z" fill="#273773"/>
<path d="M294.187 302.921C294.187 304.421 293.743 305.888 292.909 307.136C292.076 308.383 290.891 309.355 289.505 309.93C288.119 310.504 286.594 310.654 285.123 310.361C283.651 310.069 282.3 309.346 281.239 308.286C280.178 307.225 279.455 305.873 279.163 304.402C278.87 302.93 279.02 301.405 279.595 300.019C280.169 298.633 281.141 297.448 282.389 296.615C283.636 295.782 285.103 295.337 286.603 295.337C288.614 295.337 290.543 296.137 291.966 297.559C293.388 298.981 294.187 300.91 294.187 302.921Z" fill="#112261"/>
<path d="M288.123 291.742V295.902C288.123 296.551 287.989 297.193 287.73 297.787C287.47 298.382 287.091 298.917 286.616 299.358L285.17 300.702C284.146 301.652 283.577 302.969 284.239 304.173C284.627 304.788 285.243 305.225 285.952 305.387C286.661 305.548 287.405 305.423 288.021 305.037L292.53 302.317C293.226 301.897 293.801 301.303 294.201 300.595C294.6 299.887 294.81 299.088 294.81 298.275V291.743L288.123 291.742Z" fill="#273773"/>
<path d="M261.034 162.995C274.134 169.629 288.67 175.364 302.407 175.364C332.551 175.364 347.512 146.714 347.512 116.745C347.512 106.771 344.155 98.553 334.212 98.553C324.466 98.553 319.225 108.982 319.225 121.728C319.225 141.768 332.178 167.537 360.95 167.537C375.505 167.623 389.763 163.426 401.95 155.469" stroke="#273773" stroke-width="0.5" stroke-miterlimit="10" stroke-dasharray="2 2"/>
<defs>
<linearGradient id="paint0_linear_1_9146" x1="230.239" y1="-51.0311" x2="214.585" y2="381.302" gradientUnits="userSpaceOnUse">
<stop stop-color="#273773"/>
<stop offset="1" stop-color="white"/>
</linearGradient>
</defs>
</svg>
