<svg width="16" height="10" viewBox="0 0 16 10" fill="none" xmlns="http://www.w3.org/2000/svg">
<path d="M14.836 0.153976C14.7231 0.0550331 14.5781 0.000488281 14.428 0.000488281C14.2779 0.000488281 14.1329 0.0550331 14.02 0.153976L4.66499 8.65398L0.984986 5.30998C0.872097 5.21104 0.727099 5.15649 0.576986 5.15649C0.426874 5.15649 0.281876 5.21104 0.168986 5.30998C0.115987 5.35607 0.0734928 5.41299 0.0443724 5.47691C0.015252 5.54082 0.000183105 5.61024 0.000183105 5.68048C0.000183105 5.75072 0.015252 5.82013 0.0443724 5.88405C0.0734928 5.94796 0.115987 6.00489 0.168986 6.05098L4.25599 9.75998C4.36888 9.85892 4.51387 9.91348 4.66399 9.91348C4.8141 9.91348 4.9591 9.85892 5.07199 9.75998L14.835 0.890976C14.8874 0.844969 14.9294 0.78833 14.9582 0.724831C14.987 0.661331 15.0019 0.59243 15.002 0.522705C15.0021 0.45298 14.9873 0.384035 14.9587 0.320457C14.9301 0.25688 14.8883 0.200126 14.836 0.153976Z" fill="#273773"/>
</svg>
