<svg width="18" height="16" viewBox="0 0 18 16" fill="none" xmlns="http://www.w3.org/2000/svg">
<path d="M17.19 11.086C17.0786 10.9746 16.9275 10.912 16.77 10.912C16.6125 10.912 16.4614 10.9746 16.35 11.086L14.277 13.169V0.594C14.277 0.436461 14.2144 0.285375 14.103 0.173979C13.9916 0.0625819 13.8406 0 13.683 0C13.5255 0 13.3744 0.0625819 13.263 0.173979C13.1516 0.285375 13.089 0.436461 13.089 0.594V13.172L11.016 11.088C10.9045 10.9781 10.7542 10.9167 10.5976 10.9171C10.4411 10.9175 10.2911 10.9797 10.1801 11.0901C10.0692 11.2005 10.0063 11.3503 10.0051 11.5068C10.004 11.6633 10.0647 11.814 10.174 11.926L13.262 15.026C13.3172 15.0813 13.3827 15.1252 13.4549 15.1551C13.5271 15.185 13.6044 15.2005 13.6825 15.2005C13.7606 15.2005 13.838 15.185 13.9101 15.1551C13.9823 15.1252 14.0478 15.0813 14.103 15.026L17.191 11.926C17.3023 11.8145 17.3647 11.6633 17.3645 11.5058C17.3643 11.3483 17.3015 11.1973 17.19 11.086Z" fill="#F7F7F7"/>
<path d="M0.173995 4.11798C0.28539 4.22936 0.436466 4.29194 0.593994 4.29194C0.751522 4.29194 0.902597 4.22936 1.01399 4.11798L3.08701 2.03498L3.08701 14.61C3.08701 14.7675 3.14957 14.9186 3.26097 15.03C3.37237 15.1414 3.52346 15.204 3.681 15.204C3.83854 15.204 3.98962 15.1414 4.10101 15.03C4.21241 14.9186 4.27499 14.7675 4.27499 14.61L4.27499 2.03198L6.34799 4.11598C6.45949 4.22584 6.60986 4.28724 6.76639 4.28684C6.92292 4.28645 7.07295 4.22429 7.1839 4.11387C7.29484 4.00345 7.35773 3.8537 7.35887 3.69718C7.36001 3.54065 7.29933 3.39 7.19 3.27798L4.102 0.177979C4.04683 0.122678 3.98127 0.0788031 3.90912 0.0488672C3.83696 0.0189314 3.75962 0.00352192 3.6815 0.00352192C3.60338 0.00352192 3.52603 0.0189314 3.45387 0.0488672C3.38172 0.0788031 3.31618 0.122678 3.261 0.177979L0.173004 3.27798C0.0617528 3.38951 -0.000645638 3.54066 -0.000458241 3.69819C-0.000270844 3.85571 0.0624795 4.00672 0.173995 4.11798Z" fill="#F7F7F7"/>
</svg>
