<svg width="16" height="16" viewBox="0 0 16 16" fill="none" xmlns="http://www.w3.org/2000/svg">
<path d="M13.68 2.30001C12.1684 0.826356 10.1411 0.00110168 8.03 6.23228e-06C6.6371 -0.00173851 5.26824 0.362881 4.06076 1.05728C2.85329 1.75168 1.84968 2.75143 1.15064 3.95621C0.451592 5.161 0.0817008 6.52845 0.0780787 7.92135C0.0744567 9.31425 0.437231 10.6836 1.13 11.892L0 16L4.223 14.9C5.39877 15.5195 6.70509 15.8503 8.034 15.865C9.60326 15.8664 11.1378 15.4028 12.4437 14.5327C13.7496 13.6626 14.7685 12.425 15.3715 10.9762C15.9745 9.52748 16.1348 7.93251 15.8319 6.39274C15.5291 4.85298 14.7768 3.43748 13.67 2.32501L13.68 2.30001Z" fill="#ECEFF1"/>
<path d="M8.04499 14.4861H8.02999C6.75351 14.4829 5.50451 14.1151 4.42999 13.4261L1.93499 14.0751L2.60399 11.6481L2.44499 11.3991C1.66776 10.1615 1.32367 8.70084 1.46675 7.24649C1.60983 5.79213 2.23199 4.42651 3.23549 3.36414C4.23899 2.30178 5.56697 1.60287 7.01081 1.3772C8.45466 1.15153 9.93257 1.41189 11.2124 2.11739C12.4922 2.82288 13.5014 3.93353 14.0814 5.27487C14.6615 6.6162 14.7795 8.11222 14.4169 9.52792C14.0544 10.9436 13.2319 12.1988 12.0785 13.0962C10.9252 13.9937 9.50636 14.4826 8.04499 14.4861Z" fill="#4CAF50"/>
<path d="M11.6362 9.55412L11.6302 9.60512C11.4302 9.50512 10.4642 9.02112 10.2832 8.95512C9.88315 8.80212 9.99315 8.93112 9.21615 9.83812C9.10015 9.96912 8.98615 9.97912 8.79015 9.88912C8.20661 9.65201 7.66966 9.31345 7.20415 8.88912C6.77139 8.48065 6.40079 8.011 6.10415 7.49512C5.91115 7.15412 6.31515 7.10612 6.68415 6.39512C6.71032 6.34 6.72271 6.27936 6.72027 6.2184C6.71783 6.15743 6.70063 6.09797 6.67015 6.04512C6.62015 5.94512 6.22615 4.95412 6.06115 4.56012C5.89615 4.16612 5.74015 4.21712 5.61715 4.21712C5.45972 4.17727 5.29479 4.17764 5.13752 4.21817C4.98026 4.25871 4.83571 4.33813 4.71715 4.44912C3.65215 5.64412 3.91715 6.87612 4.83215 8.18612C6.62315 10.5781 7.57815 11.0181 9.32315 11.6301C9.72474 11.7541 10.1499 11.7818 10.5642 11.7111C10.8405 11.6524 11.1017 11.5367 11.3308 11.3714C11.56 11.2061 11.7522 10.9948 11.8952 10.7511C12.0269 10.4494 12.0683 10.1159 12.0142 9.79112C11.9652 9.70012 11.8362 9.65012 11.6382 9.55912L11.6362 9.55412Z" fill="#FAFAFA"/>
</svg>
